<?xml version="1.0" standalone="no"?>
<!DOCTYPE svg PUBLIC "-//W3C//DTD SVG 1.1//EN" "http://www.w3.org/Graphics/SVG/1.1/DTD/svg11.dtd" >
<svg>
<metadata>
Created by FontForge 20120731 at Thu Aug 22 20:03:40 2019
 By www-data
Copyright (c) TypeMarket Ltd, 1995. All rights reserved.
</metadata>
<defs>
<font id="AnastasiaScriptC" horiz-adv-x="389" >
  <font-face 
    font-family="AnastasiaScriptC"
    font-weight="400"
    font-stretch="normal"
    units-per-em="1000"
    panose-1="0 0 5 0 0 0 0 0 0 0"
    ascent="611"
    descent="-389"
    x-height="278"
    cap-height="708"
    bbox="-109 -389 1669 921"
    underline-thickness="50"
    underline-position="-50"
    stemh="12"
    stemv="26"
    unicode-range="U+0020-2122"
  />
<missing-glyph horiz-adv-x="500" 
 />
    <glyph glyph-name=".notdef" horiz-adv-x="500" 
 />
    <glyph glyph-name="space" unicode=" " horiz-adv-x="194" 
 />
    <glyph glyph-name="space" unicode="&#xa0;" horiz-adv-x="194" 
 />
    <glyph glyph-name="exclam" unicode="!" horiz-adv-x="333" 
d="M292 86l210 386l74 6l-266 -392h-18zM274 62c18 0 29 -9 29 -25c0 -27 -11 -43 -39 -43c-16 0 -25 6 -25 28s10 40 35 40z" />
    <glyph glyph-name="quotedbl" unicode="&#x22;" horiz-adv-x="333" 
d="M381 436l-12 -156c-1 -15 -3 -26 -10 -26s-9 11 -10 26l-12 156c-1 11 -1 20 -1 28c0 24 4 44 23 44s23 -20 23 -44c0 -8 0 -17 -1 -28zM513 436l-12 -156c-1 -15 -3 -26 -10 -26s-9 11 -10 26l-12 156c-1 11 -1 20 -1 28c0 24 4 44 23 44s23 -20 23 -44
c0 -8 0 -17 -1 -28z" />
    <glyph glyph-name="numbersign" unicode="#" 
d="M525 180v-26h-84l-52 -154h-31l54 154h-94l-53 -154h-32l54 154h-72v26h82l37 108h-72v26h82l53 152h31l-53 -152h95l51 152h31l-52 -152h74v-26h-84l-39 -108h74zM459 288h-93l-38 -108h94z" />
    <glyph glyph-name="dollar" unicode="$" 
d="M321 163l54 101c-15 26 -24 59 -24 90c0 73 68 119 137 122l29 54h19l-30 -55c19 -3 38 -10 55 -18l39 73h20l-45 -83c22 -16 36 -35 36 -65c0 -49 -34 -84 -75 -84c-11 0 -23 4 -33 12l-50 -94c17 -38 22 -56 22 -97c0 -68 -65 -128 -138 -128h-4l-30 -57h-18l30 58
c-22 1 -45 5 -61 11l-37 -69h-18l41 77c-40 16 -59 50 -59 90c0 48 37 85 85 85c20 0 38 -11 55 -23zM500 464l-88 -163c11 -21 21 -43 32 -66l45 85c-2 2 -6 13 -6 17c0 21 11 37 33 37l39 71c-13 10 -37 17 -55 19zM569 435l-36 -69c13 -9 15 -24 21 -37c-1 -4 8 -5 11 -5
c13 0 34 22 34 59c0 21 -14 39 -30 52zM304 97l-44 -82c14 -8 40 -11 60 -12l95 178c-9 22 -21 43 -31 66l-52 -97c4 -9 5 -14 5 -23c0 -18 -14 -31 -25 -31c-3 0 -5 0 -8 1zM245 21l46 86c-9 1 -10 18 -10 23s1 11 2 16c-6 14 -21 18 -35 18c-37 0 -55 -33 -55 -67
c0 -33 20 -60 52 -76zM404 318l78 146c-49 -6 -91 -39 -91 -94c0 -17 3 -31 13 -52zM425 163l-85 -160c64 5 95 58 95 98c0 32 -5 47 -10 62z" />
    <glyph glyph-name="percent" unicode="%" horiz-adv-x="778" 
d="M806 362c57 0 69 -40 69 -80c0 -97 -118 -282 -212 -282c-62 0 -82 58 -82 103c0 112 125 259 225 259zM853 293c0 45 -21 53 -40 53c-76 0 -192 -177 -192 -272c0 -28 15 -58 46 -58c60 0 186 164 186 277zM522 550c57 0 69 -40 69 -80c0 -97 -118 -282 -212 -282
c-62 0 -82 58 -82 103c0 112 125 259 225 259zM569 481c0 45 -21 53 -40 53c-76 0 -192 -177 -192 -272c0 -28 15 -58 46 -58c60 0 186 164 186 277zM391 -6h-22l406 562h22z" />
    <glyph glyph-name="ampersand" unicode="&#x26;" horiz-adv-x="500" 
d="M565 -24c0 -144 -124 -288 -293 -288c-75 0 -159 47 -159 130c-2 99 104 126 120 126c5 0 6 -3 6 -5c0 -7 -15 -2 -50 -19c-19 -10 -64 -36 -64 -90c0 -75 78 -108 126 -108c144 0 294 134 294 281c0 25 -7 69 -16 94c-45 -55 -111 -103 -194 -103
c-75 0 -136 47 -136 118c0 133 133 182 239 217c-5 18 -7 36 -7 54c0 76 43 171 131 171c46 0 75 -30 75 -76c0 -91 -115 -133 -184 -159c8 -44 57 -146 82 -199c44 53 96 122 125 164c36 52 107 138 176 138c21 0 37 -12 37 -34c0 -23 -15 -36 -37 -36c-27 0 -27 36 -46 36
c-18 0 -70 -41 -107 -92c-47 -65 -99 -131 -143 -186c17 -43 25 -88 25 -134zM253 96c0 -50 30 -90 82 -90c77 0 144 46 190 102c-27 71 -63 132 -84 207c-96 -37 -188 -105 -188 -219zM443 393c0 -20 0 -41 6 -61c70 26 176 55 176 148c0 34 -24 62 -61 62
c-76 0 -121 -85 -121 -149z" />
    <glyph glyph-name="quotesingle" unicode="'" horiz-adv-x="333" 
d="M381 436l-12 -156c-1 -15 -3 -26 -10 -26s-9 11 -10 26l-12 156c-1 11 -1 20 -1 28c0 24 4 44 23 44s23 -20 23 -44c0 -8 0 -17 -1 -28z" />
    <glyph glyph-name="parenleft" unicode="(" horiz-adv-x="500" 
d="M319 34c0 233 214 477 512 638c24 13 52 26 56 26c2 0 4 -1 4 -4c0 -5 -2 -3 -40 -23c-224 -118 -492 -430 -492 -695c0 -116 55 -165 55 -174c0 -1 -1 -2 -3 -2c-4 0 -17 10 -38 43c-43 68 -54 121 -54 191z" />
    <glyph glyph-name="parenright" unicode=")" horiz-adv-x="500" 
d="M603 464c0 -233 -214 -477 -512 -638c-24 -13 -52 -26 -56 -26c-2 0 -4 1 -4 4c0 5 2 3 40 23c224 118 492 430 492 695c0 116 -55 165 -55 174c0 1 1 2 3 2c4 0 17 -10 38 -43c43 -68 54 -121 54 -191z" />
    <glyph glyph-name="asterisk" unicode="*" 
d="M355 486c-9 0 -16 11 -16 21c0 17 35 24 130 50c-96 63 -108 68 -108 83c0 10 7 20 17 20c20 0 24 -16 99 -91l6 102c1 20 7 27 20 27c15 0 22 -9 22 -18c0 -10 -12 -28 -34 -111c40 14 102 55 119 55c9 0 17 -13 17 -18c0 -28 -24 -22 -135 -50c54 -34 115 -69 115 -80
c0 -13 -8 -24 -23 -24c-11 0 -25 23 -96 92c-4 -133 -11 -136 -26 -136c-11 0 -17 7 -17 18c0 24 23 91 29 118c-22 -11 -104 -58 -119 -58z" />
    <glyph glyph-name="plus" unicode="+" horiz-adv-x="400" 
d="M353 154v124h30v-124h124v-30h-124v-124h-30v124h-124v30h124z" />
    <glyph glyph-name="comma" unicode="," horiz-adv-x="222" 
d="M337 38c0 -64 -114 -142 -166 -142c-4 0 -6 1 -6 4c0 6 5 4 30 13c57 21 73 42 76 82c4 50 14 67 40 67c15 0 26 -7 26 -24z" />
    <glyph glyph-name="hyphen" unicode="-" horiz-adv-x="333" 
d="M456 158l-12 -38h-221l12 38h221z" />
    <glyph glyph-name="hyphen" unicode="&#xad;" horiz-adv-x="333" 
d="M456 158l-12 -38h-221l12 38h221z" />
    <glyph glyph-name="period" unicode="." horiz-adv-x="222" 
d="M308 62c18 0 29 -9 29 -25c0 -27 -11 -43 -39 -43c-16 0 -25 6 -25 28s10 40 35 40z" />
    <glyph glyph-name="slash" unicode="/" horiz-adv-x="278" 
d="M91 -6l559 704h35l-559 -704h-35z" />
    <glyph glyph-name="zero" unicode="0" 
d="M231 120c0 138 166 352 277 352c50 0 69 -27 69 -82c0 -162 -164 -396 -262 -396c-58 0 -84 54 -84 126zM271 61c0 -32 10 -55 45 -55c101 0 245 272 245 398c0 35 -15 56 -53 56c-91 0 -237 -260 -237 -399z" />
    <glyph glyph-name="one" unicode="1" 
d="M264 0c91 147 195 294 278 434l-2 2c-55 -58 -120 -123 -208 -193c-52 -41 -68 -53 -77 -53c-3 0 -4 2 -4 5c0 9 24 17 142 117c123 105 160 160 171 160c3 0 5 -4 5 -10c0 -18 -126 -276 -229 -456c-26 0 -51 -3 -76 -6z" />
    <glyph glyph-name="two" unicode="2" 
d="M313 323c0 -27 16 -45 44 -45c46 0 92 70 106 107c10 28 14 35 17 35c2 0 5 -2 5 -7c0 -58 -53 -151 -126 -151c-31 0 -58 18 -58 58c0 72 82 152 173 152c68 0 108 -34 108 -92c0 -142 -154 -170 -251 -228c-57 -33 -114 -84 -114 -94c0 -3 -1 -5 1 -3v-2
c-1 0 53 53 100 53c27 0 60 -14 60 -59c0 -21 5 -31 24 -31c25 0 67 43 97 81c14 19 20 25 22 25c3 0 5 -2 5 -6c0 -2 -7 -16 -48 -63c-26 -31 -62 -59 -101 -59c-42 0 -55 24 -59 54c-4 28 -5 36 -22 36c-20 0 -63 -28 -88 -58c-24 -29 -29 -38 -33 -38s-6 4 -6 8
c0 9 21 57 55 89c46 45 108 79 212 153c59 42 102 117 102 165c0 45 -29 57 -67 57c-81 0 -158 -75 -158 -137z" />
    <glyph glyph-name="three" unicode="3" 
d="M586 396c0 -91 -114 -118 -176 -150v-2c58 0 94 -33 94 -81c0 -86 -101 -169 -199 -169c-82 0 -106 45 -106 86c0 21 15 47 38 47s31 -14 31 -28c0 -19 -10 -30 -33 -36c-12 -3 -14 -8 -14 -15c1 -23 25 -42 70 -42c75 0 169 109 169 188c0 24 -16 38 -45 38
c-41 0 -66 -27 -73 -27c-4 0 -7 2 -7 8c0 9 14 6 81 47c95 59 126 109 126 153c0 31 -16 47 -52 47c-67 0 -142 -58 -142 -112c0 -19 17 -28 29 -28c33 0 70 37 96 78c14 22 9 28 16 28c3 0 3 -3 3 -8c3 -44 -45 -110 -104 -110c-30 0 -52 13 -52 43c0 48 73 121 158 121
c43 0 92 -25 92 -76z" />
    <glyph glyph-name="four" unicode="4" 
d="M430 466l80 6c-88 -126 -176 -253 -275 -367l2 -2c15 7 32 11 52 11c49 0 57 -8 100 -8c156 234 156 241 165 241c4 0 7 -2 7 -5c0 -5 -14 -22 -117 -234c31 0 49 13 67 24c17 11 17 12 19 12s4 -3 4 -5c0 -8 -39 -43 -96 -43l-44 -96c-20 0 -65 -2 -80 -3l66 97
c-49 0 -52 8 -93 8c-42 0 -68 -22 -74 -22c-3 0 -4 2 -4 6c0 10 80 84 221 380z" />
    <glyph glyph-name="five" unicode="5" 
d="M319 240c22 22 57 45 97 45c63 0 97 -43 97 -99c0 -97 -119 -192 -213 -192c-68 0 -99 37 -99 77c0 35 18 57 43 57c22 0 31 -10 31 -27c0 -23 -16 -30 -36 -33c-12 -2 -12 -10 -12 -21c0 -19 15 -41 57 -41c102 -1 181 135 181 222c0 27 -23 45 -52 45
c-64 0 -106 -67 -119 -67c-5 0 -8 3 -8 6c0 5 7 8 142 233c10 15 11 21 18 21c16 0 36 -16 93 -16c56 0 83 22 87 22c2 0 4 -1 4 -4c0 -10 -52 -66 -146 -66c-19 0 -39 3 -56 11l-111 -173v2z" />
    <glyph glyph-name="six" unicode="6" 
d="M263 51c0 -27 17 -45 39 -45c76 0 161 146 161 220c0 36 -10 54 -38 54c-80 0 -162 -153 -162 -229zM507 199c0 -89 -94 -205 -192 -205c-58 0 -86 44 -86 116c0 166 205 362 335 362c52 0 85 -25 85 -67c0 -28 -19 -46 -35 -46c-19 0 -31 10 -31 30c0 32 28 27 28 44
c0 15 -17 27 -49 27c-107 0 -234 -187 -254 -251l2 -2c23 35 63 85 117 85c46 0 80 -41 80 -93z" />
    <glyph glyph-name="seven" unicode="7" 
d="M333 0c-41 -1 -61 -1 -80 -6c94 148 270 354 328 415l-2 2c-26 -13 -54 -29 -86 -29s-71 40 -93 40c-49 0 -77 -91 -102 -91c-7 0 -13 4 -13 12c0 24 39 45 53 63c9 12 37 61 44 75l22 5c-19 -27 -36 -56 -55 -81l2 -2c16 15 63 55 85 55c40 0 60 -46 104 -46
c24 0 39 8 52 20c19 18 16 40 33 40c3 0 7 -3 7 -9c0 -16 -24 -33 -59 -82c-85 -121 -127 -180 -240 -381z" />
    <glyph glyph-name="eight" unicode="8" 
d="M555 399c0 40 -25 61 -67 61c-48 0 -93 -47 -93 -99c0 -37 21 -67 42 -95c61 24 118 67 118 133zM483 149c0 -78 -70 -155 -167 -155c-68 0 -105 45 -105 90c0 79 113 137 170 160c-18 31 -36 66 -36 103c0 70 72 125 143 125c52 0 89 -24 89 -78
c0 -75 -75 -112 -133 -139c18 -32 39 -68 39 -106zM433 121c0 37 -24 86 -45 113c-62 -27 -143 -76 -143 -153c0 -53 29 -75 78 -75c64 0 110 52 110 115z" />
    <glyph glyph-name="nine" unicode="9" 
d="M309 275c0 88 91 197 182 197c64 0 86 -46 86 -107c0 -210 -192 -371 -311 -371c-54 0 -101 22 -101 82c0 20 11 36 35 36c19 0 29 -17 29 -30c0 -26 -26 -31 -26 -46c0 -17 19 -30 59 -30c121 0 234 180 251 270l-2 2c-40 -67 -76 -100 -123 -100c-57 0 -79 47 -79 97z
M501 460c-92 0 -148 -183 -148 -223c0 -27 12 -47 42 -47c61 0 148 126 148 216c0 33 -11 54 -42 54z" />
    <glyph glyph-name="colon" unicode=":" horiz-adv-x="333" 
d="M308 62c18 0 29 -9 29 -25c0 -27 -11 -43 -39 -43c-16 0 -25 6 -25 28s10 40 35 40zM430 260c18 0 29 -9 29 -25c0 -27 -11 -43 -39 -43c-16 0 -25 6 -25 28s10 40 35 40z" />
    <glyph glyph-name="semicolon" unicode=";" horiz-adv-x="333" 
d="M337 38c0 -64 -114 -142 -166 -142c-4 0 -6 1 -6 4c0 6 5 4 30 13c57 21 73 42 76 82c4 50 14 67 40 67c15 0 26 -7 26 -24zM430 260c18 0 29 -9 29 -25c0 -27 -11 -43 -39 -43c-16 0 -25 6 -25 28s10 40 35 40z" />
    <glyph glyph-name="less" unicode="&#x3c;" horiz-adv-x="400" 
d="M497 26v-30l-278 128v30l278 128v-30l-244 -113z" />
    <glyph glyph-name="equal" unicode="=" horiz-adv-x="400" 
d="M507 208v-30h-278v30h278zM507 100v-30h-278v30h278z" />
    <glyph glyph-name="greater" unicode="&#x3e;" horiz-adv-x="400" 
d="M255 -4v30l244 113l-244 113v30l278 -128v-30z" />
    <glyph glyph-name="at" unicode="@" horiz-adv-x="800" 
d="M791 420c0 43 -16 66 -67 66c-78 0 -158 -112 -158 -207c0 -67 28 -89 72 -89c48 0 139 82 153 230zM805 472l11 40h44l-66 -257c-3 -12 -5 -19 -5 -27c0 -24 26 -51 56 -51c107 0 157 125 157 233c0 114 -110 268 -309 268c-185 0 -320 -132 -320 -342
c0 -174 123 -316 330 -316c91 0 144 23 202 48l14 -17c-66 -28 -135 -57 -215 -57c-266 0 -383 200 -383 337c0 220 171 367 372 367c189 0 335 -128 335 -300c0 -104 -67 -243 -188 -243c-68 0 -92 59 -91 72h-2c-13 -19 -58 -71 -119 -71c-60 0 -98 42 -98 126
c0 68 64 238 201 238c41 0 61 -23 74 -48z" />
    <glyph glyph-name="A" unicode="A" horiz-adv-x="1056" 
d="M1053 58l-22 -58h-72l28 62c-72 10 -145 30 -202 73c-90 -79 -212 -141 -360 -141c-138 0 -256 82 -256 202c0 146 150 230 254 230c122 0 188 -72 188 -151c0 -105 -108 -167 -202 -167c-41 0 -46 2 -46 9c0 4 1 6 6 6s13 -3 30 -3c103 0 196 59 196 153
c0 67 -52 115 -153 115c-114 0 -247 -86 -247 -210c0 -98 114 -172 227 -172c134 0 243 44 352 137c-70 55 -125 125 -125 217c0 106 80 159 151 159c92 0 170 -66 208 -143c209 228 367 322 412 322c4 0 5 -3 5 -7c0 -5 -66 -69 -163 -227c-82 -133 -138 -262 -205 -394
c28 0 56 7 88 19c55 22 75 54 80 54c3 0 5 -2 5 -5c0 -7 -61 -74 -177 -80zM1023 233c0 40 -8 90 -20 119c-70 -69 -133 -144 -208 -208c56 -43 132 -62 196 -70c18 51 32 104 32 159zM1027 148l2 -2c84 193 203 373 356 520l-2 2c-46 -6 -218 -144 -370 -306
c17 -40 22 -82 22 -122c0 -32 -3 -63 -8 -92zM687 342c0 -90 44 -149 96 -190c77 65 144 140 215 213c-36 67 -87 124 -169 124c-70 0 -142 -45 -142 -147z" />
    <glyph glyph-name="B" unicode="B" horiz-adv-x="944" 
d="M929 366v-2c74 -17 136 -71 136 -151c0 -119 -135 -219 -247 -219c-60 0 -115 38 -115 98c0 46 29 86 53 110c20 20 51 44 54 44c2 0 5 -3 5 -6c0 -4 -17 -13 -48 -42s-52 -70 -52 -102c0 -56 42 -90 96 -90c111 0 190 129 190 229c0 91 -46 121 -85 121
c-31 0 -30 -12 -70 -12c-14 0 -19 6 -19 14c0 10 10 16 39 16c20 0 28 -2 36 -2c81 0 133 101 133 172c0 50 -13 81 -48 102c-123 -82 -185 -254 -260 -373c-81 -129 -213 -279 -379 -279c-69 0 -121 38 -121 86c0 23 18 40 41 40c24 0 37 -11 37 -36c0 -13 -10 -24 -10 -35
c0 -23 16 -43 58 -43c108 0 203 61 315 279c87 170 171 281 305 369c-58 26 -126 36 -191 36c-38 0 -77 -5 -115 -14c30 -28 44 -79 44 -119c0 -145 -140 -313 -298 -313c-60 0 -108 37 -108 107c0 152 195 295 338 329c-32 25 -72 36 -112 36c-106 0 -198 -67 -242 -130
c-62 -89 -54 -110 -61 -110c-3 0 -5 0 -5 5s15 51 56 108c53 76 149 139 253 139c45 0 91 -15 125 -43c44 10 86 17 129 17c69 0 138 -13 202 -39c22 12 49 29 70 29c2 0 4 -2 4 -4c0 -6 -21 -4 -60 -31c54 -28 91 -75 91 -134c0 -86 -90 -139 -164 -157zM321 348
c0 -53 30 -88 91 -88c131 0 269 195 269 312c0 48 -11 81 -28 100c-133 -32 -332 -154 -332 -324z" />
    <glyph glyph-name="C" unicode="C" horiz-adv-x="667" 
d="M1019 634c0 -118 -294 -292 -538 -300c-31 -65 -54 -136 -54 -209c0 -81 22 -117 106 -119c-1 11 -3 20 -3 31c0 156 85 271 193 271c50 0 78 -38 78 -86c0 -114 -144 -218 -254 -227c5 -55 18 -88 18 -93c0 -4 -2 -6 -5 -6c-6 0 -23 69 -25 98c-113 0 -172 69 -172 175
c0 50 26 123 50 167c-102 9 -190 85 -190 186c0 120 100 206 241 206c73 0 174 -36 238 -116c67 38 163 86 243 86c42 0 74 -19 74 -64zM454 716c-125 0 -215 -85 -215 -176c0 -102 110 -163 194 -168c59 100 181 188 259 234c-58 72 -148 110 -238 110zM953 686
c-84 0 -188 -52 -241 -89c34 -44 59 -98 59 -100c0 -4 -1 -6 -6 -6c-6 0 -12 34 -62 101c-87 -56 -156 -134 -208 -224c273 0 512 168 512 268c0 26 -14 50 -54 50zM789 223c0 41 -20 69 -62 69c-84 0 -181 -144 -181 -264v-22c100 4 243 107 243 217z" />
    <glyph glyph-name="D" unicode="D" horiz-adv-x="889" 
d="M489 10v-2c23 1 46 -2 86 -2c242 0 470 148 470 400c0 68 -20 142 -69 192c-82 -93 -128 -207 -192 -316c-59 -101 -171 -239 -295 -272zM259 27c0 13 14 17 42 17c70 0 118 -24 176 -24c96 0 182 156 252 284c85 155 155 245 232 309c-46 48 -136 73 -210 73
c-27 0 -58 -2 -82 -7c37 -36 54 -99 54 -147c0 -138 -121 -306 -268 -306c-81 0 -140 56 -140 139c0 166 177 292 328 322c-33 23 -78 33 -119 33c-104 0 -184 -56 -243 -138c-74 -104 -68 -216 -80 -216c-2 0 -4 2 -4 7c0 9 8 111 61 194c70 110 168 165 268 165
c39 0 92 -13 131 -42c36 5 67 8 87 8c80 0 172 -25 226 -77c50 40 123 77 126 77s5 -4 5 -9c0 -6 -60 -25 -117 -83c49 -53 73 -124 73 -195c0 -279 -248 -417 -502 -417c-27 0 -54 6 -81 6c-35 0 -69 -6 -103 -6c-76 0 -112 10 -112 33zM365 322c0 -61 39 -84 94 -84
c138 0 252 161 252 289c0 53 -16 112 -55 149c-142 -42 -291 -184 -291 -354z" />
    <glyph glyph-name="E" unicode="E" horiz-adv-x="556" 
d="M551 400v2c-22 8 -41 21 -59 38c-20 -5 -40 -8 -60 -8c-109 0 -193 54 -193 142c0 101 105 156 196 156c66 0 130 -27 180 -68c51 24 106 46 164 46c36 0 58 -14 58 -51c0 -93 -236 -205 -308 -209c6 -22 20 -42 45 -42c6 0 20 4 37 4c19 0 40 -7 40 -15
c0 -9 -9 -13 -23 -13c-35 0 -47 12 -59 12c-80 0 -240 -102 -240 -266c0 -74 30 -112 92 -121c-2 12 -4 26 -4 39c0 152 93 262 195 262c49 0 77 -41 77 -86c0 -116 -144 -226 -254 -228c4 -42 20 -87 20 -93c0 -2 -2 -3 -5 -3c-5 0 -5 10 -15 43c-6 19 -10 40 -12 53
c-91 0 -162 50 -162 146c0 144 165 241 290 260zM825 664c0 22 -14 32 -46 32c-46 0 -101 -32 -138 -56c23 -25 47 -52 47 -54c0 -4 -2 -6 -5 -6c-6 0 -9 14 -52 54c-58 -42 -104 -98 -104 -166c120 18 298 110 298 196zM265 596c0 -92 82 -134 177 -134c11 0 23 1 35 2
c-1 9 -2 18 -2 28c0 74 69 132 130 164c-49 39 -110 62 -172 62c-64 0 -168 -40 -168 -122zM677 222c0 41 -22 70 -64 70c-80 0 -180 -152 -180 -262c0 -9 0 -17 1 -24c105 -4 243 108 243 216z" />
    <glyph glyph-name="F" unicode="F" horiz-adv-x="889" 
d="M438 394c-124 0 -263 -90 -263 -212c0 -104 106 -176 256 -176c214 0 334 113 434 296c-56 -16 -102 -49 -135 -79c-28 -26 -28 -35 -33 -35c-4 0 -5 3 -5 6c0 5 68 92 183 122c54 82 111 171 150 209c66 63 132 101 142 101c3 0 4 -1 4 -4c0 -6 -30 -17 -72 -54
c-59 -52 -120 -181 -154 -244c73 16 151 42 185 61c10 5 15 11 20 11c4 0 7 -3 7 -6c0 -4 -78 -76 -112 -178c-23 -11 -58 -24 -88 -40l-2 2c14 44 84 124 140 182l-2 2c-48 -21 -102 -33 -156 -46c-104 -198 -280 -318 -508 -318c-152 0 -274 76 -274 206
c0 126 130 226 268 226c87 0 196 -45 196 -148c0 -109 -113 -170 -214 -170c-65 0 -124 31 -124 38c0 4 1 8 4 8c7 0 43 -34 124 -34c91 0 194 54 194 156c0 70 -56 118 -165 118zM895 664c-214 0 -316 -94 -316 -179c0 -49 40 -83 98 -83c96 0 178 54 231 111
c44 48 51 75 57 75c4 0 6 -4 6 -6c0 -6 -94 -210 -264 -210c-88 0 -144 54 -144 110c0 60 42 127 174 176c76 28 148 32 440 32c134 0 190 18 210 18c1 0 2 -3 2 -5c0 -9 -53 -63 -155 -63c-112 0 -195 24 -339 24z" />
    <glyph glyph-name="G" unicode="G" horiz-adv-x="833" 
d="M993 351l-2 2c-65 -65 -173 -169 -271 -169c-70 0 -111 57 -111 123c0 8 2 19 4 27c-102 0 -224 72 -224 184c0 130 111 210 235 210c91 0 181 -42 241 -110c61 34 174 80 247 80c49 0 79 -26 75 -62c0 -116 -276 -276 -508 -300c-7 -14 -12 -36 -12 -53
c0 -65 22 -83 55 -83c142 0 292 207 316 207c3 0 7 -2 7 -4c0 -14 -27 -18 -132 -259c-90 -207 -276 -324 -470 -324c-150 0 -262 81 -262 194c0 137 152 232 273 232c101 0 193 -54 193 -150c0 -101 -105 -166 -200 -166c-70 0 -134 26 -134 35c0 2 4 5 6 5
c9 0 45 -28 123 -28c89 0 193 54 193 155c0 75 -72 119 -158 119c-122 0 -270 -86 -270 -222c0 -86 94 -162 236 -162c158 0 258 83 352 225c92 138 168 263 198 294zM405 536c0 -104 119 -162 216 -162c41 107 139 180 234 238c-56 65 -142 104 -238 104
c-128 0 -212 -92 -212 -180zM1175 638c0 34 -18 48 -62 48c-75 0 -173 -42 -232 -86c30 -46 56 -86 56 -97c0 -3 -4 -5 -8 -5s-22 46 -58 94c-79 -56 -150 -129 -182 -222c222 2 486 156 486 268z" />
    <glyph glyph-name="H" unicode="H" horiz-adv-x="1056" 
d="M1519 648c0 25 -12 34 -36 34c-84 0 -228 -140 -306 -268c84 27 342 105 342 234zM895 318l2 -2c28 15 166 63 202 76c67 91 263 306 393 306c32 0 57 -14 57 -48c0 -126 -279 -225 -384 -257c-36 -59 -134 -229 -134 -344c0 -20 9 -33 22 -33c31 0 67 23 117 71
c40 38 54 61 59 61c3 0 5 -2 5 -5c0 -4 -33 -42 -73 -79c-36 -33 -78 -64 -108 -64c-38 0 -66 25 -66 96c0 117 54 212 96 272l-2 2c-48 -15 -154 -51 -195 -74c-95 -170 -249 -302 -463 -302c-148 0 -254 76 -254 191c0 150 131 243 273 243c85 0 177 -53 177 -147
c0 -103 -113 -171 -213 -171c-53 0 -107 18 -107 25c0 5 3 7 7 7s45 -20 95 -20c91 0 202 55 202 158c0 64 -64 114 -159 114c-127 0 -255 -88 -255 -224c0 -90 94 -164 235 -164c166 0 304 123 377 264c-48 -18 -124 -72 -128 -72s-8 1 -8 5c0 10 86 58 150 89
c44 71 135 226 224 298l-2 2c-50 -29 -116 -74 -177 -74c-47 0 -69 24 -69 71c0 39 6 58 6 71s-6 22 -15 22c-14 0 -62 -20 -142 -102c-68 -71 -92 -122 -99 -122c-4 0 -6 2 -6 6c0 3 51 78 107 135c57 58 110 99 164 99c42 0 53 -33 53 -65c0 -23 -4 -38 -4 -66
c0 -29 5 -33 24 -33c52 0 124 47 190 90c40 26 88 80 120 80c9 0 16 -3 16 -12c0 -29 -74 -27 -136 -89c-58 -58 -120 -205 -174 -285z" />
    <glyph glyph-name="I" unicode="I" horiz-adv-x="778" 
d="M185 196c0 133 149 228 267 228c94 0 197 -51 197 -153c0 -95 -93 -167 -210 -167c-61 0 -126 32 -126 37c0 6 2 7 5 7c7 0 52 -32 121 -32c115 0 198 67 198 153c0 87 -83 121 -158 121c-126 0 -268 -86 -268 -223c0 -119 137 -161 234 -161c206 0 309 146 402 310
c-62 5 -116 38 -116 107c0 215 382 275 494 275c2 0 4 -3 4 -6c0 -4 -44 0 -118 -62c-85 -71 -132 -196 -191 -300c76 13 131 86 137 86c3 0 4 -1 4 -6c0 -13 -76 -82 -148 -94c-76 -144 -148 -226 -285 -284c-71 -30 -134 -38 -193 -38c-119 0 -250 68 -250 202zM1167 679
v2c-3 0 -5 1 -8 1c-48 0 -390 -54 -390 -262c0 -48 19 -89 84 -92c76 148 206 312 314 351z" />
    <glyph glyph-name="J" unicode="J" horiz-adv-x="833" 
d="M99 -132c0 -108 103 -174 204 -174c170 0 329 133 415 274c-73 -10 -257 -73 -273 -94c-30 -40 -68 -74 -97 -74c-17 0 -21 8 -21 21c0 28 113 68 116 71c12 13 22 34 22 67c0 90 -69 119 -137 119c-116 0 -229 -90 -229 -210zM1219 676l-2 2
c-191 -23 -412 -142 -412 -299c0 -50 35 -90 90 -89c108 194 182 282 324 386zM767 389c0 211 372 309 520 309c8 0 10 -2 10 -5c0 -11 -100 -4 -206 -169c-65 -101 -95 -167 -129 -233c21 3 53 17 74 31c46 29 54 54 61 54c4 0 5 -2 5 -4c0 -4 -55 -81 -150 -97
c-53 -93 -99 -188 -157 -277c60 19 107 51 141 80c49 42 65 71 69 71s6 -3 6 -6c0 -4 -41 -51 -73 -77c-40 -34 -95 -70 -159 -87c-100 -143 -270 -297 -452 -297c-154 0 -248 84 -248 205c0 125 111 229 234 229c87 0 168 -50 168 -145c0 -24 -8 -46 -14 -69
c84 35 170 66 260 82c55 95 119 223 160 290c-61 0 -120 42 -120 115z" />
    <glyph glyph-name="K" unicode="K" horiz-adv-x="1111" 
d="M1057 594l-2 2c-41 -19 -102 -52 -148 -52c-45 0 -72 25 -72 85c0 28 4 35 4 42c0 5 -3 7 -13 7c-28 -2 -75 -27 -142 -104c-57 -66 -63 -93 -69 -93c-4 0 -6 2 -6 5c0 9 126 215 238 212c30 0 49 -13 52 -67c3 -59 10 -67 27 -67c54 0 122 44 158 66
c104 63 105 78 119 78c13 0 20 -8 20 -17c0 -29 -83 -30 -125 -71c-54 -53 -118 -191 -221 -363c-107 -179 -266 -263 -437 -263c-163 0 -255 86 -255 196c0 132 126 240 265 240c90 0 187 -51 187 -152c0 -99 -110 -170 -210 -170c-53 0 -107 23 -107 30c0 3 3 6 6 6
s40 -24 98 -24c92 0 197 64 197 161c0 55 -54 111 -161 111c-125 0 -249 -84 -249 -216c0 -116 112 -170 227 -170c147 0 275 65 395 287c66 122 118 191 224 301zM1013 340v-2c64 -24 98 -76 98 -134c0 -30 -18 -94 -18 -147c0 -27 8 -45 28 -45c15 0 50 17 98 67
c49 51 65 75 69 75c2 0 5 -2 5 -6c0 -2 -15 -21 -55 -65c-50 -56 -91 -83 -125 -83c-38 0 -84 46 -84 116c0 53 18 126 18 147c0 45 -35 65 -51 65c-6 0 -18 -6 -24 -6c-8 0 -17 8 -17 12c0 5 6 10 16 10c84 0 162 88 211 148c94 114 207 206 308 206c58 0 95 -30 95 -72
c0 -21 -16 -36 -38 -36c-18 0 -40 10 -40 31c0 18 14 26 14 41c0 14 -18 24 -45 24c-47 0 -115 -54 -175 -132c-78 -102 -162 -177 -288 -214z" />
    <glyph glyph-name="L" unicode="L" horiz-adv-x="722" 
d="M259 110c54 0 147 -20 200 -38c92 86 98 126 178 274c-39 -7 -78 -12 -104 -12c-144 0 -248 78 -248 190c0 124 132 204 256 204c87 0 206 -37 285 -133c33 37 113 103 169 103c34 0 50 -17 50 -50c0 -98 -176 -216 -324 -278c-74 -132 -150 -248 -244 -304
c71 -21 140 -42 214 -42c55 0 99 19 137 56c56 55 60 65 64 65c2 0 4 -4 4 -7c0 -2 -8 -13 -49 -55c-58 -60 -122 -89 -189 -89c-65 0 -147 33 -201 56c-51 -30 -118 -56 -174 -56c-60 0 -106 26 -106 64c0 26 24 52 82 52zM303 541c0 -114 133 -169 230 -169
c42 0 84 4 126 10c48 72 95 146 159 205c-72 88 -186 129 -278 129c-109 0 -237 -64 -237 -175zM735 396c156 52 298 176 298 252c0 27 -12 38 -37 38c-50 0 -130 -71 -156 -107c21 -33 38 -63 38 -66c0 -4 -2 -5 -4 -5c-7 0 -12 21 -41 60c-38 -54 -67 -114 -98 -172z
M443 54c-62 19 -124 44 -189 44c-43 0 -65 -20 -65 -42c0 -20 32 -50 92 -50c61 0 109 18 162 48z" />
    <glyph glyph-name="M" unicode="M" horiz-adv-x="1167" 
d="M1193 648l-2 2c-60 -40 -190 -153 -276 -242c-175 -181 -320 -414 -534 -414c-90 0 -218 70 -218 204c0 118 116 220 252 220c124 0 190 -72 190 -152c0 -100 -95 -166 -195 -166c-52 0 -121 27 -121 34c0 3 2 6 6 6c6 0 46 -28 117 -28c82 0 177 52 177 146
c0 60 -48 122 -160 122c-110 0 -246 -66 -246 -192c0 -101 99 -182 196 -182c216 0 359 252 564 452c162 158 290 240 300 240c6 0 8 -1 8 -5c0 -9 -80 -57 -297 -422c-42 -71 -97 -195 -97 -209c0 -6 3 -8 9 -8c18 0 38 23 205 226c242 295 396 418 410 418c2 0 6 -4 6 -6
c0 -6 -93 -122 -246 -389c-80 -140 -104 -229 -104 -260c0 -21 6 -29 26 -29c64 0 171 136 177 136c3 0 5 -3 5 -6c0 -6 -123 -150 -190 -150c-47 0 -72 30 -72 86c0 84 78 258 364 570l-2 2c-212 -176 -384 -413 -550 -601c-39 -44 -56 -51 -73 -51s-29 15 -29 43
c0 144 212 422 400 605z" />
    <glyph glyph-name="N" unicode="N" horiz-adv-x="1111" 
d="M1142 617h-2c-117 -186 -233 -442 -420 -557c-81 -50 -162 -65 -228 -65c-156 0 -274 68 -274 196c0 118 112 232 272 232c128 0 206 -62 206 -145c0 -101 -108 -175 -218 -175c-42 0 -102 16 -102 25c0 3 2 5 5 5c8 0 32 -18 98 -18c113 0 201 74 201 153
c0 67 -62 121 -177 121c-120 0 -265 -87 -265 -219c0 -101 99 -163 246 -163c168 0 332 82 509 385c98 168 181 313 192 313c5 0 9 -6 9 -7c0 -20 -42 -57 -42 -211c0 -37 4 -73 4 -110c0 -101 -9 -203 -36 -300l2 -2c140 274 352 624 487 624c25 0 47 -24 47 -43
s-15 -37 -39 -37c-43 0 -26 46 -49 46c-54 0 -189 -143 -362 -454c-112 -201 -108 -228 -124 -228c-2 0 -6 1 -6 6c0 25 24 23 24 137c0 73 -16 152 -16 218c0 163 53 236 58 273z" />
    <glyph glyph-name="O" unicode="O" horiz-adv-x="778" 
d="M585 277c0 -50 23 -83 75 -83c107 0 167 152 167 244c0 55 -20 100 -54 136c-93 -47 -188 -173 -188 -297zM973 457c0 -191 -212 -469 -430 -469c-111 0 -154 99 -154 192c0 166 143 345 296 446c-25 9 -54 14 -84 14c-156 0 -267 -140 -278 -278c-1 -13 -3 -16 -6 -16
c-4 0 -6 4 -6 7c0 4 2 66 38 135c46 87 141 164 253 164c35 0 67 -6 95 -17c71 45 144 73 204 73c77 0 124 -42 124 -119c0 -9 -3 -51 -13 -51c-3 0 -3 3 -3 7s4 34 4 46c0 70 -46 105 -112 105c-58 0 -122 -26 -185 -71c22 -9 42 -22 60 -38c27 14 52 21 73 21
c74 0 124 -56 124 -151zM447 136c0 -78 32 -136 104 -136c182 0 410 250 410 455c0 93 -42 141 -112 141c-21 0 -43 -6 -65 -17c48 -47 73 -113 73 -176c0 -98 -79 -225 -188 -225c-54 0 -96 36 -96 93c0 143 102 261 192 311c-16 15 -36 28 -59 35
c-137 -101 -259 -292 -259 -481z" />
    <glyph glyph-name="P" unicode="P" horiz-adv-x="778" 
d="M229 476c-3 0 -4 4 -4 5c0 25 94 239 306 239c51 0 105 -20 130 -42c37 9 88 14 133 14c70 0 138 -14 182 -35c28 16 50 35 61 35c2 0 4 -2 4 -5c0 -7 -26 -17 -52 -36c62 -34 106 -95 106 -168c0 -101 -111 -181 -205 -181c-37 0 -81 30 -81 37c0 3 2 5 6 5
s28 -26 62 -26c99 0 164 112 164 201c0 51 -22 94 -67 120c-85 -59 -144 -194 -233 -349c-89 -156 -236 -296 -390 -296c-62 0 -118 24 -118 82c0 23 13 42 37 42c22 0 41 -15 41 -38c0 -18 -10 -25 -10 -35c0 -21 18 -39 64 -39c177 0 282 228 352 358
c53 99 147 220 244 282c-55 26 -117 34 -167 34c-47 0 -85 -2 -123 -11c31 -35 40 -78 40 -122c0 -144 -144 -307 -294 -307c-59 0 -110 36 -110 110c0 151 206 298 339 325c-32 23 -78 33 -117 33c-76 0 -149 -33 -206 -90c-73 -73 -86 -142 -94 -142zM319 354
c0 -62 34 -98 86 -98c130 0 276 180 276 318c0 36 -3 69 -24 92c-163 -33 -338 -188 -338 -312z" />
    <glyph glyph-name="Q" unicode="Q" horiz-adv-x="722" 
d="M179 53c0 35 28 59 97 59c72 0 146 -27 218 -47c164 86 363 275 363 494c0 87 -43 127 -134 127c-11 0 -38 -2 -49 -5c34 -42 47 -77 47 -129c0 -139 -139 -310 -298 -310c-66 0 -104 54 -104 107c0 152 192 305 329 336c-22 19 -60 31 -105 31
c-155 0 -262 -131 -300 -232c-3 -8 -5 -12 -9 -12c-2 0 -3 3 -3 5c0 7 31 92 102 161c50 49 118 90 206 90c69 0 106 -23 125 -39c22 4 44 9 66 9c112 0 181 -72 181 -182c0 -223 -232 -359 -402 -456c54 -16 105 -40 168 -40c46 0 83 18 127 49c77 54 84 79 89 79
s6 -2 6 -6s-32 -41 -78 -75c-75 -55 -124 -73 -188 -73c-61 0 -117 18 -171 41c-62 -26 -110 -41 -182 -41c-65 0 -101 30 -101 59zM191 53c0 -29 34 -47 92 -47c51 0 109 9 165 35c-58 18 -139 55 -196 55c-37 0 -61 -14 -61 -43zM691 579c0 37 -7 70 -35 97
c-145 -30 -325 -190 -325 -319c0 -61 25 -99 91 -99c127 0 269 192 269 321z" />
    <glyph glyph-name="R" unicode="R" horiz-adv-x="889" 
d="M829 332v-2c44 -12 78 -78 78 -119c0 -50 -34 -123 -34 -169c0 -21 5 -36 25 -36c18 0 40 15 85 60c74 74 71 79 76 79c4 0 6 -2 6 -6c0 -2 -34 -40 -76 -82c-52 -52 -72 -63 -94 -63c-41 0 -76 52 -76 101c0 73 34 112 34 183c0 16 -9 43 -34 47c-9 1 -24 -5 -32 -5
c-20 0 -34 8 -34 16c0 6 12 16 30 16c12 0 30 -12 39 -12c56 0 163 86 163 197c0 44 -15 86 -51 108c-67 -56 -117 -133 -155 -213c-86 -182 -238 -438 -458 -438c-82 0 -118 48 -118 74c0 28 14 50 44 50c21 0 38 -14 38 -36c0 -18 -12 -24 -12 -38c0 -24 24 -38 46 -38
c174 0 242 132 336 317c65 127 132 225 265 332c-39 21 -114 31 -171 31c-38 0 -76 -4 -113 -13c24 -28 39 -80 39 -121c0 -144 -138 -310 -300 -310c-62 0 -104 42 -104 104c0 161 199 302 339 333c-28 24 -80 35 -117 35c-110 0 -218 -70 -285 -201
c-11 -22 -11 -37 -18 -37c-1 0 -3 4 -3 9c0 20 103 241 306 241c47 0 106 -16 133 -43c42 10 89 15 132 15c63 0 136 -16 175 -32c10 5 54 28 63 28c4 -1 5 -3 5 -6s-21 -6 -51 -29c45 -19 93 -70 93 -139c0 -117 -155 -182 -214 -188zM283 344c0 -57 37 -86 92 -86
c126 0 270 177 270 317c0 40 -5 72 -26 95c-143 -29 -336 -168 -336 -326z" />
    <glyph glyph-name="S" unicode="S" horiz-adv-x="778" 
d="M185 191c0 141 141 229 270 229c91 0 194 -44 194 -150c0 -103 -105 -166 -202 -166c-78 0 -136 31 -136 37c0 3 2 5 5 5c4 0 42 -30 129 -30c91 0 192 52 192 155c0 90 -92 119 -167 119c-123 0 -259 -93 -259 -225c0 -109 138 -159 228 -159c248 0 321 185 409 378
c-18 -1 -36 -4 -56 -4c-111 0 -237 62 -237 173c0 107 100 175 217 175c94 0 180 -48 235 -116c36 36 104 86 156 86c34 0 50 -18 50 -48c0 -110 -173 -231 -297 -254c-66 -155 -130 -298 -298 -369c-52 -22 -118 -33 -174 -33c-119 0 -259 59 -259 197zM581 567
c0 -99 135 -161 231 -161c18 0 36 0 48 3c36 70 82 138 139 197c-55 69 -143 110 -223 110c-107 0 -195 -54 -195 -149zM1201 650c0 21 -13 36 -37 36c-49 0 -114 -58 -141 -96c9 -12 36 -58 36 -62c0 -3 -2 -4 -4 -4c-3 0 -17 31 -38 58c-41 -50 -67 -110 -93 -165
c117 17 277 128 277 233z" />
    <glyph glyph-name="T" unicode="T" horiz-adv-x="889" 
d="M977 692h236c111 0 146 16 174 16c2 0 3 -3 3 -5c0 -7 -49 -63 -157 -63c-120 0 -134 26 -352 26c-180 0 -302 -90 -302 -180c0 -52 40 -84 98 -84c186 0 287 188 290 188s6 -3 6 -5c0 -13 -103 -213 -264 -213c-92 0 -146 48 -146 110c0 86 102 210 414 210zM438 394
c-124 0 -263 -90 -263 -212c0 -104 106 -176 256 -176c378 0 409 343 608 534c55 53 118 86 128 86c3 0 4 -1 4 -4c0 -12 -50 -20 -84 -62s-85 -124 -150 -248c-104 -198 -280 -318 -508 -318c-152 0 -274 76 -274 206c0 126 130 228 268 228c87 0 196 -45 196 -150
c0 -109 -113 -170 -214 -170c-65 0 -124 31 -124 38c0 4 1 6 3 6c12 0 46 -32 125 -32c91 0 194 54 194 156c0 70 -56 118 -165 118z" />
    <glyph glyph-name="U" unicode="U" horiz-adv-x="833" 
d="M657 602c0 31 -12 59 -38 76c-141 -30 -276 -155 -276 -260c0 -48 25 -86 71 -86c101 0 243 154 243 270zM1155 683l50 3l-200 -312c-89 -138 -198 -284 -196 -342c0 -14 7 -26 22 -26c26 0 60 27 100 64c50 47 70 79 75 79s7 -3 7 -5s-31 -37 -56 -65
c-29 -33 -93 -85 -125 -85c-31 0 -43 22 -43 59c0 58 19 101 42 149l-2 2c-45 -62 -192 -210 -271 -210c-29 0 -53 24 -53 63c0 167 278 414 278 546c0 58 -52 83 -100 83c-15 0 -30 -1 -46 -4c29 -24 40 -60 40 -99c0 -121 -118 -267 -254 -267c-63 0 -92 42 -92 97
c0 117 141 240 275 274c-20 11 -47 17 -81 17c-150 0 -301 -157 -320 -347c-1 -10 -1 -13 -6 -13c-6 0 -6 6 -6 14c0 20 13 80 33 125c54 120 169 233 299 233c43 0 75 -9 99 -24c18 4 36 6 53 6c87 0 136 -42 136 -131c0 -171 -278 -425 -278 -533c0 -22 7 -28 28 -28
c52 0 205 111 323 291c245 374 241 384 269 386z" />
    <glyph glyph-name="V" unicode="V" horiz-adv-x="778" 
d="M595 583c0 -73 -68 -263 -204 -261c-71 0 -116 45 -116 116c0 121 147 260 289 260c167 0 94 -143 189 -154c28 50 107 154 169 154c22 0 39 -11 39 -40c0 -49 -80 -124 -170 -132c-40 -186 -125 -361 -246 -508l2 -2c199 136 343 344 493 516c104 119 161 166 197 166
c22 0 42 -18 42 -39c0 -17 -12 -37 -31 -37c-31 0 -29 26 -59 26c-55 0 -209 -208 -343 -363c-180 -208 -323 -303 -334 -303c-5 0 -9 3 -9 8c0 8 6 10 16 18c98 78 156 406 226 520c-166 38 -99 154 -200 154c-107 0 -254 -115 -254 -241c0 -59 27 -93 79 -93
c51 0 112 35 152 94c54 80 60 148 66 148c4 0 7 -2 7 -7zM949 663c0 13 -8 23 -26 23c-60 0 -114 -95 -128 -144c89 7 154 71 154 121z" />
    <glyph glyph-name="W" unicode="W" horiz-adv-x="1000" 
d="M533 698c163 0 101 -146 190 -156c40 65 104 158 169 158c18 0 37 -16 37 -40c0 -66 -100 -131 -170 -132c-22 -92 -45 -185 -89 -270c-41 -79 -105 -194 -155 -244l2 -2c35 13 119 101 182 178c74 89 120 159 219 274c88 102 155 158 197 224c5 7 10 10 15 10
c4 0 11 -6 11 -12s-7 -12 -18 -24c-31 -33 -52 -63 -69 -106c-18 -45 -51 -162 -67 -195c-66 -137 -107 -226 -205 -347c31 5 180 150 226 203c96 110 148 179 221 270c68 85 168 205 236 205c22 0 38 -10 38 -35c0 -18 -14 -35 -33 -35c-29 0 -39 28 -55 28
c-38 0 -97 -69 -272 -288c-230 -288 -370 -378 -386 -378c-5 0 -8 3 -8 8c0 8 49 60 93 169c36 90 57 155 89 231c36 85 88 158 114 190c-161 -150 -260 -308 -339 -400c-90 -111 -197 -206 -222 -206c-6 0 -9 2 -9 7c0 8 11 15 23 29c105 123 139 376 219 516
c-158 22 -102 154 -206 154c-107 0 -252 -124 -252 -237c0 -59 24 -99 88 -99c43 0 79 22 120 64c79 81 83 170 91 170c3 0 5 -4 5 -8c0 -13 -11 -76 -43 -132c-35 -62 -95 -120 -161 -120c-74 0 -112 55 -112 126c0 120 158 252 286 252zM763 540c61 0 154 58 154 121
c0 19 -13 27 -29 27c-48 0 -110 -93 -125 -148z" />
    <glyph glyph-name="X" unicode="X" horiz-adv-x="722" 
d="M825 508l2 -2c64 75 205 192 306 192c37 0 60 -32 60 -67c0 -143 -297 -243 -418 -277c-54 -96 -110 -202 -110 -295c0 -30 10 -53 43 -53c84 0 180 138 190 138c3 0 5 -3 5 -5c0 -1 -119 -145 -194 -145c-52 0 -74 48 -74 127c0 13 3 26 4 39
c-69 -70 -209 -166 -310 -166c-41 0 -96 16 -96 67c0 168 365 260 474 287c35 71 88 149 88 230c0 75 -38 110 -99 110c-14 0 -32 -3 -44 -6c29 -28 37 -58 37 -96c0 -122 -119 -252 -243 -252c-49 0 -73 36 -73 81c0 116 154 241 254 271c-17 12 -55 16 -77 16
c-161 0 -287 -162 -319 -307c-6 -28 -5 -40 -11 -40c-3 0 -5 3 -5 7c0 106 132 352 338 352c40 0 74 -14 88 -23c17 3 39 9 55 9c70 0 129 -41 129 -161v-31zM271 70c0 -43 18 -64 62 -64c118 0 296 196 366 326c-86 -22 -428 -107 -428 -262zM673 604c0 29 -9 57 -35 75
c-96 -28 -253 -148 -253 -264c0 -35 17 -61 53 -61c103 0 235 150 235 250zM1167 638c0 32 -14 44 -40 44c-113 0 -296 -225 -344 -313c70 23 384 106 384 269z" />
    <glyph glyph-name="Y" unicode="Y" horiz-adv-x="889" 
d="M981 356l-2 2c-42 -60 -184 -192 -258 -192c-43 0 -56 27 -56 67c0 146 174 268 174 371c0 60 -58 82 -110 82c-115 0 -324 -108 -324 -245c0 -43 38 -71 79 -71c55 0 124 38 182 107c66 78 62 160 74 160c4 0 7 -2 7 -8c0 -25 -34 -275 -249 -275c-65 0 -105 38 -105 85
c0 133 200 259 332 259c85 0 140 -36 140 -144c0 -126 -174 -266 -174 -349c0 -20 14 -27 32 -27c42 0 176 84 254 195c201 286 330 325 351 325c4 0 7 -2 7 -6c0 -18 -126 -11 -237 -231c-53 -105 -180 -360 -259 -439c-108 -108 -256 -168 -409 -168
c-124 0 -265 67 -265 208c0 131 152 226 268 226c118 0 196 -70 196 -150c0 -110 -111 -170 -210 -170c-34 0 -80 12 -80 19c0 4 2 5 5 5c7 0 22 -12 86 -12c84 0 183 60 183 152c0 91 -80 122 -158 122c-126 0 -264 -88 -264 -225c0 -120 149 -163 237 -163
c319 0 423 248 553 490z" />
    <glyph glyph-name="Z" unicode="Z" horiz-adv-x="778" 
d="M473 334c-75 0 -110 46 -110 117c0 133 173 259 296 259c144 0 141 -142 190 -164c62 59 155 158 249 158c32 0 55 -17 55 -44c0 -70 -126 -144 -247 -144c-19 0 -35 1 -51 4c-81 -93 -160 -187 -243 -282c159 -59 106 -218 164 -218c27 0 68 26 101 56
c74 67 75 80 80 80c3 0 4 -2 4 -6c0 -6 -39 -46 -65 -71c-56 -55 -105 -79 -140 -79c-75 0 -84 93 -92 123c-14 52 -21 80 -65 98c-85 -92 -224 -227 -323 -227c-49 0 -83 21 -83 64c0 83 140 196 304 196c27 0 72 -3 95 -11c76 99 158 192 241 285
c-134 42 -86 170 -190 170c-110 0 -268 -128 -268 -249c0 -65 26 -95 92 -95c88 0 180 129 200 216c5 20 4 27 8 27c3 0 4 -3 4 -7c0 -94 -68 -256 -206 -256zM579 229c-22 9 -67 13 -87 13c-154 0 -287 -110 -287 -181c0 -39 31 -55 68 -55c105 0 242 143 306 223zM871 536
c15 -4 30 -8 45 -8c98 0 225 67 225 131c0 25 -20 33 -42 33c-86 0 -177 -99 -228 -156z" />
    <glyph glyph-name="bracketleft" unicode="[" horiz-adv-x="500" 
d="M159 -196l446 894h245l-12 -24h-187l-422 -846h189l-12 -24h-247z" />
    <glyph glyph-name="backslash" unicode="\" horiz-adv-x="278" 
d="M267 698h31l223 -704h-31z" />
    <glyph glyph-name="bracketright" unicode="]" horiz-adv-x="500" 
d="M759 698l-446 -894h-245l12 24h187l422 846h-189l12 24h247z" />
    <glyph glyph-name="asciicircum" unicode="^" horiz-adv-x="400" 
d="M351 265h-30l101 201h25l102 -201h-31l-83 165z" />
    <glyph glyph-name="underscore" unicode="_" horiz-adv-x="500" 
d="M500 -125h-500v50h500v-50z" />
    <glyph glyph-name="grave" unicode="`" horiz-adv-x="222" 
d="M256 492c41 0 25 -56 60 -105c20 -30 55 -48 55 -55c0 -4 -2 -3 -5 -4c-21 0 -133 93 -133 142c0 9 8 22 23 22z" />
    <glyph glyph-name="a" unicode="a" 
d="M234 0c-51 0 -63 46 -63 91c0 16 2 31 5 47c-2 0 -4 -3 -6 -3s-4 3 -4 5c0 4 3 5 16 21c54 66 135 117 204 117c30 0 43 -22 43 -49c0 -11 -1 -21 -3 -27l2 -2c36 57 34 70 55 71l48 2c-28 -34 -144 -212 -144 -247c0 -8 4 -14 17 -14c30 0 84 52 142 120
c12 14 13 16 15 16c4 0 6 -4 6 -6s-32 -38 -55 -63c-46 -48 -84 -79 -111 -79s-44 14 -44 69c0 7 1 13 1 18c-30 -30 -86 -87 -124 -87zM211 44c0 -19 7 -32 23 -32c58 0 183 144 183 218c0 20 -10 36 -31 36c-81 0 -175 -150 -175 -222z" />
    <glyph glyph-name="b" unicode="b" horiz-adv-x="333" 
d="M473 592l63 10c-245 -408 -320 -530 -320 -564c0 -15 4 -26 23 -26c76 0 171 87 171 211c0 37 5 55 30 55c17 0 24 -19 24 -38c0 -60 -55 -133 -74 -155c3 -1 6 -1 9 -1c30 0 65 19 86 43c18 20 17 21 20 21s5 -2 5 -5c0 -4 -6 -9 -16 -21c-29 -33 -69 -50 -104 -50
c-6 0 -10 1 -11 1c-24 -23 -82 -72 -138 -73c-42 -1 -59 30 -59 70c0 71 95 165 95 177c0 1 -1 2 -2 2c-3 0 -17 -19 -51 -56c-54 -59 -54 -64 -59 -64c-3 0 -5 2 -5 4c0 6 82 96 96 112c34 38 134 201 217 347z" />
    <glyph glyph-name="c" unicode="c" horiz-adv-x="278" 
d="M435 229c0 -19 -14 -43 -37 -43c-18 0 -25 12 -25 25c0 26 30 16 30 38c0 8 -7 17 -23 17c-60 0 -159 -101 -159 -215c0 -26 13 -39 42 -39c35 0 84 26 128 72c54 56 56 65 59 65c4 0 6 -3 6 -6s-18 -24 -39 -46c-63 -69 -111 -97 -161 -97c-62 0 -79 62 -79 110
c0 16 3 24 3 27c0 1 -1 2 -2 2c-3 0 -5 -4 -7 -4c-3 0 -5 2 -5 5c0 2 2 6 34 43c57 67 114 95 170 95c39 0 65 -17 65 -49z" />
    <glyph glyph-name="d" unicode="d" 
d="M418 234c0 22 -7 38 -29 38c-67 0 -176 -134 -176 -233c0 -19 8 -27 27 -27c50 0 178 133 178 222zM430 212l218 388l59 2c-156 -280 -318 -531 -318 -571c0 -12 4 -19 17 -19c15 0 41 16 83 58c53 52 70 79 73 79s6 -2 6 -4c0 -3 -8 -13 -21 -28
c-70 -81 -114 -117 -151 -117c-23 0 -37 22 -37 53c0 16 4 30 7 41l-2 2c-22 -34 -82 -96 -134 -96c-41 0 -57 50 -57 91c0 15 1 33 4 48c-2 0 -5 -5 -6 -5c-2 0 -5 2 -5 6c0 1 0 5 30 38c54 60 121 106 187 106c25 0 47 -15 47 -45c0 -9 0 -18 -2 -25z" />
    <glyph glyph-name="e" unicode="e" horiz-adv-x="278" 
d="M426 230c0 -75 -147 -120 -206 -132c-2 -11 -4 -22 -4 -33c0 -39 11 -52 42 -53c27 -1 79 19 140 79c39 40 49 58 53 58c3 0 5 -2 5 -6s-39 -50 -69 -77c-50 -46 -89 -65 -136 -66c-55 -1 -79 54 -79 106c0 15 3 26 3 29c0 2 -1 2 -1 2c-1 -1 -2 -3 -3 -3s-5 4 -5 6
c0 4 29 35 37 43c55 56 119 95 173 95c30 0 50 -20 50 -48zM376 266c-53 0 -138 -100 -152 -156c66 8 172 65 172 137c0 13 -7 19 -20 19z" />
    <glyph glyph-name="f" unicode="f" horiz-adv-x="222" 
d="M335 258l-119 -238c42 3 92 33 148 95c26 28 26 33 31 33c3 0 5 -2 5 -5c0 -4 -29 -37 -50 -58c-42 -43 -92 -74 -142 -82l-143 -267l-61 -8l155 282c-10 7 -12 18 -12 29c0 18 12 31 28 31c5 0 10 -1 13 -3l115 205l-2 2c-40 -35 -58 -59 -84 -87
c-29 -32 -43 -53 -47 -53c-3 0 -5 3 -5 5c0 3 18 25 82 95c54 60 71 62 90 97c45 82 166 301 267 301c27 0 37 -17 37 -46c0 -97 -145 -199 -306 -328zM345 283l2 -2c77 67 278 204 278 316c0 16 -10 23 -28 23c-80 0 -170 -176 -252 -337z" />
    <glyph glyph-name="g" unicode="g" 
d="M399 266c-80 0 -184 -147 -184 -223c0 -17 9 -31 26 -31c74 0 188 162 188 217c0 22 -6 37 -30 37zM481 269l65 5l-168 -278l2 -2c56 23 119 82 162 133c16 19 17 22 21 22c2 0 4 -2 4 -5c0 -5 -7 -12 -36 -44c-53 -59 -118 -107 -159 -121c-37 -76 -170 -291 -263 -291
c-29 0 -50 17 -50 51c0 80 98 140 265 235c15 33 33 71 70 143l-2 2c-28 -40 -96 -119 -151 -119c-47 0 -62 35 -62 87c0 25 7 37 7 52c0 2 -1 3 -4 3c-6 0 -8 -7 -11 -7c-2 0 -4 3 -4 6s4 8 32 38c45 47 131 99 190 99c32 0 52 -14 52 -48c0 -13 -1 -25 -4 -35l2 -2
c13 21 29 48 42 76zM85 -262c0 -23 3 -38 29 -38c75 0 182 198 202 258c-66 -40 -231 -127 -231 -220z" />
    <glyph glyph-name="h" unicode="h" 
d="M189 6l-62 -6c55 97 111 188 167 272l-1 2c-28 -31 -42 -52 -78 -91c-43 -47 -43 -51 -47 -51c-3 0 -4 2 -4 6c0 10 118 118 207 271l108 186l61 7c-38 -67 -222 -369 -293 -495l2 -2c96 110 169 173 204 173c29 0 40 -26 40 -52c0 -55 -110 -156 -110 -200
c0 -7 5 -14 15 -14c31 0 61 28 117 86c23 23 46 55 51 55c3 0 5 -2 5 -5s-24 -31 -50 -59c-71 -78 -104 -89 -128 -89c-20 0 -40 11 -40 55c0 88 110 158 110 198c0 7 -6 13 -11 13c-53 0 -235 -205 -263 -260z" />
    <glyph glyph-name="i" unicode="i" horiz-adv-x="222" 
d="M224 0c-31 0 -48 22 -48 52c0 67 61 135 95 186l-2 2c-12 -12 -37 -38 -85 -92c-10 -12 -11 -13 -14 -13s-4 3 -4 6c0 2 4 6 30 36s71 76 86 97l63 4c-120 -198 -139 -224 -139 -245c0 -17 10 -21 19 -21c32 0 78 40 111 74c26 26 59 66 61 66c3 0 6 -1 6 -5
c0 -3 -19 -26 -61 -70c-49 -51 -90 -77 -118 -77zM380 436c0 17 13 38 35 38c14 0 23 -11 23 -26c0 -17 -13 -38 -35 -38c-14 0 -23 11 -23 26z" />
    <glyph glyph-name="j" unicode="j" horiz-adv-x="222" 
d="M300 274l63 4c-41 -74 -128 -239 -165 -294l2 -2c60 31 119 79 174 144c18 21 18 23 22 23c2 0 4 -2 4 -5c0 -5 -4 -7 -19 -25c-45 -55 -101 -109 -193 -156c-42 -76 -151 -275 -246 -275c-30 0 -51 13 -51 45c0 93 167 183 260 241c70 147 123 248 140 273l-2 2
c-36 -30 -53 -46 -85 -79c-30 -31 -30 -35 -33 -35s-5 3 -5 6c0 2 3 5 36 41c26 28 67 66 98 92zM-83 -274c0 -19 14 -26 32 -26c80 0 168 198 193 256l-2 2c-70 -46 -216 -132 -223 -232zM384 434c0 17 13 38 35 38c14 0 23 -11 23 -26c0 -17 -13 -38 -35 -38
c-14 0 -23 11 -23 26z" />
    <glyph glyph-name="k" unicode="k" 
d="M512 220c-21 0 -25 14 -26 36c-22 -4 -30 -16 -46 -42c-17 -27 -52 -48 -84 -54v-2c27 -5 53 -39 53 -61c0 -21 -22 -63 -22 -70c0 -8 7 -15 15 -15c31 0 81 51 100 71c55 58 55 65 59 65s6 -2 6 -5s-28 -35 -51 -60c-35 -38 -85 -83 -118 -83c-37 0 -53 46 -53 75
c0 30 20 46 20 63c0 8 -10 16 -18 16c-11 0 -21 -14 -39 -14c-10 0 -15 5 -15 12c0 6 6 16 35 16c5 0 9 -2 19 -2c15 0 60 28 88 66c29 38 44 46 67 46c22 0 38 -13 38 -31c0 -17 -14 -27 -28 -27zM480 596l62 6l-350 -598l-68 -4l160 259l-2 2c-16 -19 -47 -57 -68 -80
c-45 -49 -47 -55 -51 -55c-2 0 -4 2 -4 6c0 6 9 10 85 99c99 116 119 166 236 365z" />
    <glyph glyph-name="l" unicode="l" horiz-adv-x="222" 
d="M485 595l66 7c-260 -410 -344 -532 -344 -577c0 -6 7 -13 16 -13c31 0 66 26 116 76c45 46 52 61 57 61c4 0 5 -3 5 -5c0 -3 -24 -30 -38 -45c-58 -62 -105 -99 -143 -99c-34 0 -43 24 -43 50c0 60 33 88 102 202l-2 2c-17 -20 -33 -40 -66 -76c-38 -42 -42 -49 -47 -49
c-3 0 -4 3 -4 5c0 8 110 110 205 265z" />
    <glyph glyph-name="m" unicode="m" horiz-adv-x="611" 
d="M426 6l-63 -6c20 37 143 216 143 251c0 9 -4 14 -13 15c-42 5 -211 -217 -240 -260l-65 -6c97 154 153 236 153 252c0 11 -5 14 -15 14c-28 0 -62 -30 -95 -65c-47 -50 -57 -67 -61 -67s-5 4 -5 6c0 3 22 27 59 69c46 52 79 69 103 69c25 0 40 -13 40 -38
c0 -44 -37 -99 -57 -135l2 -2c35 38 133 175 186 175c22 0 34 -13 34 -45c0 -44 -31 -93 -49 -126l2 -2c35 40 135 173 191 173c19 0 35 -15 35 -51c0 -65 -97 -142 -102 -193c-1 -11 5 -22 16 -22c18 0 54 26 91 64c67 71 63 72 68 72c3 0 5 -1 5 -5c0 -5 -31 -38 -57 -65
c-50 -52 -82 -78 -110 -78c-30 0 -43 26 -43 64c0 84 106 156 106 193c0 4 -3 9 -13 9c-57 0 -219 -219 -246 -260z" />
    <glyph glyph-name="n" unicode="n" horiz-adv-x="444" 
d="M248 6l-67 -6c19 37 160 220 160 251c0 10 -7 15 -15 15c-28 0 -55 -21 -106 -77c-47 -51 -46 -55 -50 -55c-3 0 -5 2 -5 6c0 3 25 31 38 46c48 56 88 92 127 92c26 0 37 -19 37 -49c0 -40 -41 -97 -63 -126l2 -2c39 37 154 177 205 177c25 0 36 -26 36 -47
c0 -34 -20 -63 -37 -86c-45 -61 -67 -97 -67 -113c0 -10 6 -20 16 -20c23 0 65 36 106 80c51 54 47 57 53 57c3 0 4 -3 4 -5c0 -5 -50 -60 -63 -73c-44 -44 -79 -71 -102 -71c-30 0 -44 28 -44 64c0 80 108 163 108 190c0 7 -5 12 -14 12c-48 0 -229 -213 -259 -260z" />
    <glyph glyph-name="o" unicode="o" horiz-adv-x="333" 
d="M444 209c0 -41 -29 -95 -59 -125c2 -1 5 -2 11 -2c34 0 68 20 93 49c13 15 14 17 17 17c4 0 5 -2 5 -5c0 -2 -2 -6 -25 -30c-25 -26 -60 -43 -99 -43c-7 0 -10 0 -13 1c-31 -35 -72 -71 -128 -71c-40 0 -62 35 -62 89c0 36 5 46 5 52c0 4 -1 6 -3 6c-8 0 -15 -16 -18 -16
s-6 2 -6 5c0 5 34 40 58 63c58 55 119 79 164 79c38 0 60 -29 60 -69zM422 221c0 24 -10 45 -35 45c-70 0 -163 -133 -163 -217c0 -28 12 -37 26 -37c79 0 172 118 172 209z" />
    <glyph glyph-name="p" unicode="p" 
d="M398 445l52 9l-213 -361l2 -2c37 44 151 187 215 187c26 0 37 -24 37 -52c0 -63 -107 -148 -107 -200c0 -9 6 -14 16 -14c21 0 54 16 116 86c40 45 42 51 46 51c3 0 5 -3 5 -5c0 -5 -2 -4 -31 -38c-68 -81 -110 -106 -139 -106c-31 0 -43 26 -43 64c0 79 107 148 107 189
c0 7 -6 13 -13 13c-38 0 -185 -122 -331 -378l-83 -146l-67 -4l343 557l-2 2c-52 -61 -134 -164 -138 -164s-6 2 -6 5c0 5 3 4 59 72c94 115 103 125 175 235z" />
    <glyph glyph-name="q" unicode="q" 
d="M219 40c0 -13 6 -28 17 -28c78 0 195 150 195 217c0 27 -10 37 -37 37c-61 0 -175 -122 -175 -226zM483 270l55 2l-266 -450l2 -2c80 101 169 199 252 291c32 35 34 39 37 39s6 -3 6 -6c0 -2 -59 -65 -75 -83c-47 -55 -209 -225 -269 -326l-64 -7l226 372l-2 2
c-18 -22 -92 -102 -148 -102c-39 0 -58 36 -58 90c0 25 7 50 7 52c0 1 -1 2 -3 2c-8 0 -10 -10 -12 -10c-1 0 -5 2 -5 7c0 3 15 19 38 43c61 63 143 94 190 94c28 0 49 -13 49 -49c0 -8 -5 -27 -6 -34l2 -2z" />
    <glyph glyph-name="r" unicode="r" horiz-adv-x="333" 
d="M170 134c-3 0 -5 2 -5 5c0 5 34 41 59 69c43 46 74 70 102 70c25 0 39 -23 39 -47c0 -40 -43 -108 -63 -135l2 -2c53 62 102 95 111 122c10 29 31 62 66 62c17 0 24 -5 24 -16c0 -39 -112 -69 -112 -138c0 -20 15 -34 33 -34c16 0 32 7 45 20c22 22 30 38 34 38
c3 0 6 -2 6 -5s-16 -21 -25 -32c-20 -23 -42 -31 -61 -31c-22 0 -44 15 -44 39c0 23 7 40 20 56l-2 2c-52 -48 -100 -106 -151 -171l-63 -6c101 163 154 225 154 252c0 8 -7 14 -17 14c-14 0 -38 -11 -78 -52c-61 -63 -70 -80 -74 -80z" />
    <glyph glyph-name="s" unicode="s" horiz-adv-x="222" 
d="M296 51v2l2 -2c33 23 55 50 72 70c21 23 21 28 25 28c3 0 5 -2 5 -6c0 -3 -21 -28 -41 -50c-54 -61 -101 -93 -157 -93c-23 0 -32 1 -45 11c-8 6 -16 23 -16 34c0 17 7 28 25 28c11 0 21 -7 21 -16c0 -20 -14 -12 -14 -30c0 -9 5 -15 17 -15c47 0 101 110 101 164
c0 48 0 89 6 94l-2 2c-12 -7 -92 -102 -116 -129c-4 -5 -6 -8 -9 -8s-4 2 -4 4c0 7 16 20 44 55c23 29 81 91 87 94c2 1 11 30 33 30c12 0 17 -6 17 -15c0 -19 -22 -25 -40 -31c-2 -10 -4 -13 -4 -23c0 -74 21 -96 21 -137c0 -24 -12 -44 -28 -61z" />
    <glyph glyph-name="t" unicode="t" horiz-adv-x="222" 
d="M345 368l59 96l62 4l-65 -100h117c2 0 5 -2 5 -6c0 -3 -1 -6 -5 -6h-124c-31 -55 -190 -283 -190 -329c0 -10 6 -15 19 -15c30 0 65 26 110 71c51 50 57 66 62 66c4 0 5 -2 5 -6c0 -3 -32 -40 -54 -61c-61 -61 -97 -82 -125 -82c-34 1 -47 26 -47 49c0 57 34 106 93 190
l-2 2c-19 -23 -34 -39 -61 -70c-9 -10 -36 -43 -39 -43s-5 1 -5 4c0 4 4 8 43 52c30 33 91 105 137 172h-36c-4 0 -5 3 -5 6s3 6 4 6h42z" />
    <glyph glyph-name="u" unicode="u" 
d="M298 274l56 4c-123 -196 -145 -210 -145 -249c0 -12 9 -17 17 -17c52 0 186 155 248 262l64 4c-27 -47 -151 -205 -151 -249c0 -11 5 -17 17 -17c14 0 47 20 94 69c60 61 59 67 64 67c3 0 5 -2 5 -5s-37 -44 -59 -67c-51 -52 -82 -76 -109 -76c-35 0 -42 40 -42 64
c0 14 3 27 7 38l-2 2c-29 -31 -91 -104 -137 -104c-32 0 -46 24 -46 54c0 76 65 132 103 188l-2 2c-29 -22 -62 -59 -92 -91c-13 -15 -13 -17 -17 -17c-3 0 -4 2 -4 6c0 3 5 9 51 57c20 21 46 47 80 75z" />
    <glyph glyph-name="v" unicode="v" 
d="M170 134c-2 0 -4 1 -4 6c0 4 5 9 55 64c54 59 85 74 107 74c32 0 41 -26 41 -51c0 -71 -92 -135 -92 -188c0 -18 9 -27 25 -27c74 0 179 109 179 211c0 35 12 55 31 55c16 0 23 -12 23 -33c0 -39 -64 -139 -94 -163l2 -2c33 2 63 17 84 34c26 22 31 35 34 35s6 -2 6 -5
c0 -5 -25 -33 -43 -45c-37 -25 -73 -31 -91 -31c-13 0 -69 -68 -133 -68c-38 0 -57 28 -57 70c0 79 100 146 100 185c0 7 -6 11 -17 11c-21 0 -46 -18 -69 -40c-55 -53 -83 -92 -87 -92z" />
    <glyph glyph-name="w" unicode="w" horiz-adv-x="500" 
d="M463 272l66 6c-28 -41 -139 -203 -139 -243c0 -15 9 -23 25 -23c63 0 176 90 182 205c3 53 9 61 31 61c14 0 23 -11 23 -22c0 -51 -59 -145 -98 -174l2 -2c42 2 80 29 99 49c13 14 15 20 19 20s5 -3 5 -6c0 -2 -17 -25 -44 -44c-22 -15 -51 -29 -89 -31
c-11 -1 -61 -68 -133 -68c-47 0 -56 38 -56 75c0 9 3 18 5 23l-2 2c-29 -29 -87 -100 -134 -100c-35 0 -50 23 -50 56c0 66 66 135 102 183l-2 2c-32 -27 -51 -46 -76 -76c-23 -26 -26 -30 -29 -30s-4 2 -4 6c0 2 6 7 25 31c34 41 77 79 103 103l57 3
c-25 -39 -146 -214 -146 -243c0 -11 6 -23 19 -23c64 0 189 159 239 260z" />
    <glyph glyph-name="x" unicode="x" horiz-adv-x="333" 
d="M170 134c-3 0 -4 3 -4 6c0 2 5 11 63 72c39 40 70 66 100 66c28 0 42 -24 42 -64c0 -20 -2 -37 -4 -42l2 -2c19 37 77 108 123 108c24 0 39 -14 39 -32c0 -13 -8 -24 -22 -24c-12 0 -22 6 -24 22c-1 9 -1 12 -15 12c-36 0 -137 -123 -137 -228c0 -10 4 -16 12 -16
c23 0 58 26 110 81c39 41 46 55 51 55c3 0 5 -2 5 -5s-31 -39 -66 -76c-44 -47 -74 -67 -103 -67c-41 0 -49 38 -49 81c0 7 2 20 2 27c-26 -40 -79 -108 -131 -108c-33 0 -43 12 -43 31c0 17 7 29 27 29c14 0 23 -10 23 -27c0 -12 3 -17 7 -17c29 0 94 65 122 113
c13 23 37 103 37 120c0 12 -5 17 -11 17c-24 0 -55 -27 -93 -65c-53 -52 -59 -67 -63 -67z" />
    <glyph glyph-name="y" unicode="y" horiz-adv-x="444" 
d="M542 272l64 6l-178 -289l2 -2c69 32 128 94 164 137c19 22 19 24 24 24c2 0 4 -2 4 -5s-26 -33 -43 -52c-56 -62 -104 -93 -162 -123c-103 -182 -199 -280 -259 -280c-28 0 -49 18 -49 54c0 73 115 148 277 245l87 166l-2 2c-26 -36 -134 -153 -183 -153
c-25 0 -43 30 -43 57c0 73 96 150 96 194c0 8 -4 13 -16 13c-25 0 -55 -24 -93 -64c-57 -60 -57 -68 -63 -68c-3 0 -4 2 -4 5s3 7 49 59c57 64 90 80 113 80c31 0 44 -28 44 -55c0 -71 -96 -157 -96 -194c0 -11 3 -15 14 -15c62 0 221 194 253 258zM378 -34l-2 2
c-182 -117 -245 -178 -245 -230c0 -26 13 -38 30 -38c50 0 120 71 217 269v-3z" />
    <glyph glyph-name="z" unicode="z" horiz-adv-x="333" 
d="M371 84c4 -31 -26 -47 -26 -65c0 -4 6 -7 10 -7c19 0 60 39 95 76c54 57 51 60 56 60c3 0 5 -2 5 -5c0 -4 -16 -21 -52 -61c-59 -66 -85 -82 -106 -82c-26 0 -48 21 -48 47c0 21 20 32 20 48c0 5 -6 9 -13 9c-30 0 -120 -58 -131 -76c-5 -9 -21 -28 -31 -28
c-11 0 -14 4 -14 9c0 18 36 37 50 44c9 5 125 112 224 178l-2 2c-14 -8 -57 -29 -92 -29c-25 0 -40 9 -59 21c-27 -22 -60 -61 -76 -80c-6 -7 -7 -9 -11 -9c-3 0 -3 3 -3 7c0 2 62 71 84 89c-3 6 -5 14 -5 20c0 18 13 26 30 26c14 0 24 -9 24 -20c0 -14 -13 -17 -13 -29
c0 -8 17 -13 36 -13c22 0 81 20 94 32c9 8 32 30 42 30c5 0 8 -5 8 -12c0 -20 -33 -30 -51 -39c-6 -3 -44 -32 -113 -90c-35 -30 -79 -58 -79 -61c0 -2 1 -3 3 -3c7 0 56 43 100 43c20 0 41 -10 44 -32z" />
    <glyph glyph-name="braceleft" unicode="{" horiz-adv-x="500" 
d="M421 115l-88 -175c-16 -32 -29 -62 -29 -83c0 -17 19 -33 48 -33l-6 -24c-57 0 -96 9 -96 51c0 21 7 52 28 95l92 184c12 24 26 56 26 72c0 20 -15 37 -42 47c72 19 103 52 136 119l92 185c62 125 128 145 214 145l-13 -24c-66 -5 -105 -46 -140 -116l-88 -175
c-37 -74 -69 -115 -147 -133l-1 -2c31 -9 43 -25 43 -48c0 -21 -9 -45 -29 -85z" />
    <glyph glyph-name="bar" unicode="|" horiz-adv-x="222" 
d="M303 0v602h30v-602h-30z" />
    <glyph glyph-name="braceright" unicode="}" horiz-adv-x="500" 
d="M495 383l88 175c16 32 29 62 29 83c0 17 -19 33 -48 33l6 24c57 0 96 -9 96 -51c0 -21 -7 -52 -28 -95l-92 -184c-12 -24 -26 -56 -26 -72c0 -20 15 -37 42 -47c-72 -19 -103 -52 -136 -119l-92 -185c-62 -125 -128 -145 -214 -145l13 24c66 5 105 46 140 116l88 175
c37 74 69 115 147 133l1 2c-31 9 -43 25 -43 48c0 21 9 45 29 85z" />
    <glyph glyph-name="asciitilde" unicode="~" horiz-adv-x="400" 
d="M475 174l20 -20c-17 -23 -35 -47 -69 -47c-20 0 -38 8 -56 18s-38 20 -63 20c-24 0 -38 -21 -46 -41l-20 20c12 23 32 47 69 47c18 0 40 -8 61 -17c20 -9 41 -20 56 -20c22 0 35 20 48 40z" />
    <glyph glyph-name="afii10051" unicode="&#x402;" horiz-adv-x="1047" 
d="M977 692h236c111 0 146 16 174 16c2 0 3 -3 3 -5c0 -7 -49 -63 -157 -63c-120 0 -134 26 -352 26c-180 0 -302 -90 -302 -180c0 -52 40 -84 98 -84c186 0 287 188 290 188s6 -3 6 -5c0 -13 -103 -213 -264 -213c-92 0 -146 48 -146 110c0 86 102 210 414 210zM284 152
c12 0 46 -32 125 -32c91 0 194 54 194 156c0 70 -56 118 -165 118c-124 0 -263 -90 -263 -212c0 -104 106 -176 256 -176c378 0 409 343 608 534c55 53 118 86 128 86c3 0 4 -1 4 -4c0 -12 -50 -20 -84 -62s-85 -124 -150 -248c-4 -7 -10 -18 -19 -31c21 21 46 45 96 83
c26 19 68 48 111 48c31 0 77 -9 79 -70c4 -103 -66 -207 -131 -281c-37 -43 -118 -116 -200 -116c-66 0 -99 32 -99 80c0 23 18 40 41 40c24 0 37 -11 37 -36c0 -13 -10 -24 -10 -35c0 -23 2 -40 35 -40c69 0 129 77 161 121c75 105 116 233 111 297c0 14 -9 28 -35 28
c-24 0 -57 -19 -98 -48c-48 -34 -103 -91 -119 -107c-106 -158 -267 -251 -468 -251c-152 0 -274 76 -274 206c0 126 130 228 268 228c87 0 196 -45 196 -150c0 -109 -113 -170 -214 -170c-65 0 -124 31 -124 38c0 4 1 6 3 6z" />
    <glyph glyph-name="afii10052" unicode="&#x403;" horiz-adv-x="889" 
d="M977 692h236c111 0 146 16 174 16c2 0 3 -3 3 -5c0 -7 -49 -63 -157 -63c-120 0 -134 26 -352 26c-180 0 -302 -90 -302 -180c0 -52 40 -84 98 -84c186 0 287 188 290 188s6 -3 6 -5c0 -13 -103 -213 -264 -213c-92 0 -146 48 -146 110c0 86 102 210 414 210zM438 394
c-124 0 -263 -90 -263 -212c0 -104 106 -176 256 -176c378 0 409 343 608 534c55 53 118 86 128 86c3 0 4 -1 4 -4c0 -12 -50 -20 -84 -62s-85 -124 -150 -248c-104 -198 -280 -318 -508 -318c-152 0 -274 76 -274 206c0 126 130 228 268 228c87 0 196 -45 196 -150
c0 -109 -113 -170 -214 -170c-65 0 -124 31 -124 38c0 4 1 6 3 6c12 0 46 -32 125 -32c91 0 194 54 194 156c0 70 -56 118 -165 118z" />
    <glyph glyph-name="quotesinglbase" unicode="&#x201a;" horiz-adv-x="222" 
d="M295 44c0 -54 -120 -156 -137 -156c-4 0 -5 2 -5 5c0 4 3 6 17 16c38 28 64 56 65 82c2 66 12 81 39 81c15 0 21 -14 21 -28z" />
    <glyph glyph-name="afii10100" unicode="&#x453;" horiz-adv-x="249" 
d="M172 134c-3 0 -4 3 -4 6c0 2 11 17 66 72c40 40 73 66 105 66c30 0 45 -12 45 -36c0 -31 -11 -43 -48 -68c-27 -18 -52 -30 -75 -56c-13 -15 -21 -35 -21 -52c0 -36 17 -50 34 -50c25 0 45 22 97 77c39 41 46 55 51 55c3 0 5 -2 5 -5s-31 -39 -66 -76
c-44 -47 -62 -67 -108 -67c-36 0 -61 18 -61 57c0 28 16 49 45 69c27 18 47 28 69 44c26 19 32 39 32 57c0 17 -13 24 -29 24c-18 0 -33 -13 -72 -50c-54 -51 -61 -67 -65 -67z" />
    <glyph glyph-name="quotedblbase" unicode="&#x201e;" 
d="M431 44c0 -54 -120 -156 -137 -156c-4 0 -5 2 -5 5c0 4 3 6 17 16c38 28 64 56 65 82c2 66 12 81 39 81c15 0 21 -14 21 -28zM283 44c0 -54 -120 -156 -137 -156c-4 0 -5 2 -5 5c0 4 3 6 17 16c38 28 64 56 65 82c2 66 12 81 39 81c15 0 21 -14 21 -28z" />
    <glyph glyph-name="ellipsis" unicode="&#x2026;" horiz-adv-x="1000" 
d="M356 62c18 0 29 -9 29 -25c0 -27 -11 -43 -39 -43c-16 0 -25 6 -25 28s10 40 35 40zM689 62c18 0 29 -9 29 -25c0 -27 -11 -43 -39 -43c-16 0 -25 6 -25 28s10 40 35 40zM1022 62c18 0 29 -9 29 -25c0 -27 -11 -43 -39 -43c-16 0 -25 6 -25 28s10 40 35 40z" />
    <glyph glyph-name="dagger" unicode="&#x2020;" horiz-adv-x="500" 
d="M256 -156h-18l147 287c50 97 54 137 54 159c41 36 67 91 96 148h-46c-49 0 -70 -30 -108 -30c-15 0 -34 14 -34 35c0 23 14 41 38 41c25 0 49 -30 105 -30h53c22 43 44 64 44 132c0 34 16 56 44 56c23 0 36 -11 36 -42c0 -30 -37 -20 -71 -84l-33 -62h32
c72 0 102 26 120 26c20 0 38 -15 38 -36c0 -17 -13 -36 -33 -36c-29 0 -41 30 -142 30h-22c-19 -38 -47 -88 -47 -142c0 -4 -22 -7 -58 -76z" />
    <glyph glyph-name="daggerdbl" unicode="&#x2021;" horiz-adv-x="500" 
d="M411 22h-42c-31 -60 -40 -84 -40 -128c0 -40 -24 -52 -43 -52s-33 14 -33 36c0 32 42 37 76 104l20 40h-45c-40 0 -65 -28 -103 -28c-26 0 -39 18 -39 33c0 28 17 39 39 39c36 0 44 -28 130 -28h26c51 100 61 130 68 188c47 30 108 171 134 220h-45
c-40 0 -65 -28 -103 -28c-26 0 -39 18 -39 33c0 28 17 39 39 39c36 0 44 -28 130 -28h26c31 63 36 84 40 129c2 27 12 51 43 51c20 0 33 -19 33 -37c0 -37 -46 -50 -71 -97l-25 -46h28c78 0 110 26 128 26c21 0 40 -14 40 -35s-10 -35 -32 -35c-27 0 -60 28 -130 28h-42
c-82 -157 -84 -170 -84 -219c-56 -59 -76 -101 -118 -189h28c78 0 110 26 128 26c21 0 40 -14 40 -35s-10 -35 -32 -35c-27 0 -60 28 -130 28z" />
    <glyph glyph-name="perthousand" unicode="&#x2030;" horiz-adv-x="944" 
d="M1070 362c57 0 69 -40 69 -80c0 -97 -118 -282 -212 -282c-62 0 -82 58 -82 103c0 112 125 259 225 259zM1117 293c0 45 -21 53 -40 53c-76 0 -192 -177 -192 -272c0 -28 15 -58 46 -58c60 0 186 164 186 277zM756 362c57 0 69 -40 69 -80c0 -97 -118 -282 -212 -282
c-62 0 -82 58 -82 103c0 112 125 259 225 259zM803 293c0 45 -21 53 -40 53c-76 0 -192 -177 -192 -272c0 -28 15 -58 46 -58c60 0 186 164 186 277zM472 550c57 0 69 -40 69 -80c0 -97 -118 -282 -212 -282c-62 0 -82 58 -82 103c0 112 125 259 225 259zM519 481
c0 45 -21 53 -40 53c-76 0 -192 -177 -192 -272c0 -28 15 -58 46 -58c60 0 186 164 186 277zM341 -6h-22l406 562h22z" />
    <glyph glyph-name="afii10058" unicode="&#x409;" horiz-adv-x="1214" 
d="M1107 -96c-5 0 -5 10 -15 43c-6 19 -10 40 -12 53c-59 5 -124 44 -124 123c-1 180 152 366 316 543l-2 2c-24 -6 -50 -22 -74 -40c-83 -63 -170 -138 -221 -190c-104 -105 -200 -208 -303 -303c-90 -79 -154 -141 -287 -141c-129 0 -216 82 -216 202
c0 146 150 230 254 230c122 0 188 -72 188 -151c0 -105 -108 -167 -202 -167c-41 0 -46 2 -46 9c0 4 1 6 6 6s13 -3 30 -3c103 0 196 59 196 153c0 67 -52 115 -153 115c-114 0 -247 -86 -247 -210c0 -98 84 -172 198 -172c99 0 159 44 268 137c94 85 174 168 234 233
c212 230 362 322 412 322c4 0 5 -3 5 -7c0 -5 -67 -69 -163 -227c-64 -106 -122 -206 -128 -333c-3 -73 30 -106 57 -118c-2 12 -3 26 -3 39c-11 158 53 364 193 364c55 0 105 -35 105 -126c0 -133 -129 -288 -281 -290c4 -42 20 -87 20 -93c0 -2 -2 -3 -5 -3zM1090 36
c0 -9 0 -17 1 -24c159 2 223 159 223 241c0 89 -31 120 -69 120c-120 0 -164 -225 -155 -337z" />
    <glyph glyph-name="guilsinglleft" unicode="&#x2039;" horiz-adv-x="278" 
d="M232 136v9c24 16 50 37 92 72c39 32 44 39 49 39c2 0 5 -1 5 -4c0 -12 -62 -75 -93 -113c22 -46 45 -98 45 -110c0 -4 -1 -7 -5 -7c-8 0 -8 12 -51 62c-16 19 -27 33 -42 52z" />
    <glyph glyph-name="afii10059" unicode="&#x40a;" horiz-adv-x="1246" 
d="M1519 648c0 25 -12 34 -36 34c-84 0 -228 -140 -306 -268c84 27 342 104 342 234zM1139 -96c-5 0 -5 10 -15 43c-6 19 -10 40 -12 53c-62 6 -124 49 -124 135c0 43 19 96 50 160c14 29 31 53 45 73l-2 2c-48 -15 -154 -51 -195 -74c-95 -170 -249 -302 -463 -302
c-148 0 -254 76 -254 191c0 150 131 243 273 243c85 0 177 -53 177 -147c0 -103 -113 -171 -213 -171c-53 0 -107 18 -107 25c0 5 3 7 7 7s45 -20 95 -20c91 0 202 55 202 158c0 64 -64 114 -159 114c-127 0 -255 -88 -255 -224c0 -90 94 -164 235 -164
c166 0 304 123 377 264c-48 -18 -124 -72 -128 -72s-8 1 -8 5c0 10 86 58 150 89c44 71 135 226 224 298l-2 2c-50 -29 -116 -74 -177 -74c-47 0 -69 24 -69 71c0 39 6 58 6 71s-6 22 -15 22c-14 0 -62 -20 -142 -102c-68 -71 -92 -122 -99 -122c-4 0 -6 2 -6 6
c0 3 51 78 107 135c57 58 110 99 164 99c42 0 53 -33 53 -65c0 -23 -4 -38 -4 -66c0 -29 5 -33 24 -33c52 0 124 47 190 90c40 26 88 80 120 80c9 0 16 -3 16 -12c0 -29 -74 -27 -136 -89c-58 -58 -120 -205 -172 -287c28 15 166 63 202 76c67 91 263 306 393 306
c32 0 57 -14 57 -48c0 -125 -284 -227 -384 -257c-19 -25 -113 -183 -112 -262c0 -81 30 -106 57 -118c-2 12 -3 26 -3 39c0 160 62 348 209 348c37 0 89 -23 89 -110c0 -134 -141 -284 -281 -290c4 -42 20 -87 20 -93c0 -2 -2 -3 -5 -3zM1122 36c0 -9 0 -17 1 -24
c145 4 223 160 223 241c0 83 -30 104 -68 104c-115 0 -165 -209 -156 -321z" />
    <glyph glyph-name="afii10061" unicode="&#x40c;" horiz-adv-x="1111" 
d="M1057 594l-2 2c-41 -19 -102 -52 -148 -52c-45 0 -72 25 -72 85c0 28 4 35 4 42c0 5 -3 7 -13 7c-28 -2 -75 -27 -142 -104c-57 -66 -63 -93 -69 -93c-4 0 -6 2 -6 5c0 9 126 215 238 212c30 0 49 -13 52 -67c3 -59 10 -67 27 -67c54 0 122 44 158 66
c104 63 105 78 119 78c13 0 20 -8 20 -17c0 -29 -83 -30 -125 -71c-54 -53 -118 -191 -221 -363c-107 -179 -266 -263 -437 -263c-163 0 -255 86 -255 196c0 132 126 240 265 240c90 0 187 -51 187 -152c0 -99 -110 -170 -210 -170c-53 0 -107 23 -107 30c0 3 3 6 6 6
s40 -24 98 -24c92 0 197 64 197 161c0 55 -54 111 -161 111c-125 0 -249 -84 -249 -216c0 -116 112 -170 227 -170c147 0 275 65 395 287c66 122 118 191 224 301zM1013 340v-2c64 -24 98 -76 98 -134c0 -30 -18 -94 -18 -147c0 -27 8 -45 28 -45c15 0 50 17 98 67
c49 51 65 75 69 75c2 0 5 -2 5 -6c0 -2 -15 -21 -55 -65c-50 -56 -91 -83 -125 -83c-38 0 -84 46 -84 116c0 53 18 126 18 147c0 45 -35 65 -51 65c-6 0 -18 -6 -24 -6c-8 0 -17 8 -17 12c0 5 6 10 16 10c84 0 162 88 211 148c94 114 207 206 308 206c58 0 95 -30 95 -72
c0 -21 -16 -36 -38 -36c-18 0 -40 10 -40 31c0 18 14 26 14 41c0 14 -18 24 -45 24c-47 0 -115 -54 -175 -132c-78 -102 -162 -177 -288 -214z" />
    <glyph glyph-name="afii10060" unicode="&#x40b;" horiz-adv-x="1046" 
d="M977 692h236c111 0 146 16 174 16c2 0 3 -3 3 -5c0 -7 -49 -63 -157 -63c-120 0 -134 26 -352 26c-180 0 -302 -90 -302 -180c0 -52 40 -84 98 -84c186 0 287 188 290 188s6 -3 6 -5c0 -13 -103 -213 -264 -213c-92 0 -146 48 -146 110c0 86 102 210 414 210zM913 273
c66 67 159 139 212 139c38 0 53 -34 53 -57c0 -37 -7 -76 -32 -120c-33 -59 -120 -156 -120 -202c0 -18 10 -27 22 -27c41 0 124 84 170 140c6 8 14 3 10 -4c-55 -72 -129 -148 -180 -148c-20 0 -54 12 -54 71c0 66 77 155 100 192c28 45 54 81 54 121c0 11 -3 22 -28 22
c-45 0 -148 -71 -245 -188l-1 2c-106 -139 -258 -220 -445 -220c-152 0 -274 76 -274 206c0 126 130 228 268 228c87 0 196 -45 196 -150c0 -109 -113 -170 -214 -170c-65 0 -124 31 -124 38c0 4 1 6 3 6c12 0 46 -32 125 -32c91 0 194 54 194 156c0 70 -56 118 -165 118
c-124 0 -263 -90 -263 -212c0 -104 106 -176 256 -176c378 0 409 343 608 534c55 53 118 86 128 86c3 0 4 -1 4 -4c0 -12 -50 -20 -84 -62s-81 -126 -150 -248c-8 -14 -15 -26 -24 -39z" />
    <glyph glyph-name="afii10145" unicode="&#x40f;" horiz-adv-x="833" 
d="M657 602c0 31 -12 59 -38 76c-141 -30 -276 -155 -276 -260c0 -48 25 -86 71 -86c101 0 243 154 243 270zM558 -6c-29 0 -53 24 -53 63c0 167 278 414 278 546c0 58 -52 83 -100 83c-15 0 -30 -1 -46 -4c29 -24 40 -60 40 -99c0 -121 -118 -267 -254 -267
c-63 0 -92 42 -92 97c0 117 141 240 275 274c-20 11 -47 17 -81 17c-150 0 -301 -157 -320 -347c-1 -10 -1 -13 -6 -13c-6 0 -6 6 -6 14c0 20 13 80 33 125c54 120 169 233 299 233c43 0 75 -9 99 -24c18 4 36 6 53 6c87 0 136 -42 136 -131c0 -171 -278 -425 -278 -533
c0 -22 7 -28 28 -28c52 0 205 111 323 291c245 374 241 384 269 386l50 3l-200 -312c-89 -138 -198 -284 -196 -342c0 -14 7 -26 22 -26c26 0 60 27 100 64c50 47 70 79 75 79s7 -3 7 -5s-30 -38 -56 -65c-30 -32 -93 -85 -125 -85c-31 0 -43 22 -43 59c0 58 19 101 42 149
l-2 2c-45 -62 -192 -210 -271 -210zM651 -104c-79 -21 -293 -114 -292 -231c0 -21 16 -38 31 -38c101 0 199 142 261 269zM768 57c-18 -46 -37 -96 -58 -134l-11 -21c-61 -131 -172 -291 -304 -291c-36 0 -59 26 -59 48c0 128 240 225 321 252l47 109l15 34c2 2 36 3 49 3z
" />
    <glyph glyph-name="afii10099" unicode="&#x452;" 
d="M189 6l-62 -6c55 97 111 188 167 272l-1 2c-29 -32 -42 -52 -78 -91c-43 -47 -43 -51 -47 -51c-3 0 -4 2 -4 6c0 8 95 100 176 218h-38c-6 4 -3 12 3 12h40c8 13 19 30 26 41l108 186l61 7c-19 -34 -78 -132 -139 -234h117c7 0 7 -12 0 -12h-124
c-52 -88 -115 -194 -147 -249l2 -2c96 110 169 173 204 173c29 0 40 -26 40 -52c0 -68 -100 -251 -167 -313c-58 -53 -96 -57 -143 -57c-29 0 -56 12 -56 43c0 8 7 23 27 23c14 0 23 -10 23 -27c0 -12 1 -21 4 -24c4 -5 14 -6 23 -6c30 1 67 16 110 88
c38 64 149 260 149 300c0 7 -6 13 -11 13c-53 0 -235 -205 -263 -260z" />
    <glyph glyph-name="quoteleft" unicode="&#x2018;" horiz-adv-x="222" 
d="M287 352c0 54 120 156 137 156c4 0 5 -2 5 -5c0 -4 -3 -6 -17 -16c-38 -28 -64 -56 -65 -82c-2 -66 -12 -81 -39 -81c-15 0 -21 14 -21 28z" />
    <glyph glyph-name="quoteright" unicode="&#x2019;" horiz-adv-x="222" 
d="M469 480c0 -54 -120 -156 -137 -156c-4 0 -5 2 -5 5c0 4 3 6 17 16c38 28 64 56 65 82c2 66 12 81 39 81c15 0 21 -14 21 -28z" />
    <glyph glyph-name="quotedblleft" unicode="&#x201c;" 
d="M318 352c0 54 120 156 137 156c4 0 5 -2 5 -5c0 -4 -3 -6 -17 -16c-38 -28 -64 -56 -65 -82c-2 -66 -12 -81 -39 -81c-15 0 -21 14 -21 28zM466 352c0 54 120 156 137 156c4 0 5 -2 5 -5c0 -4 -3 -6 -17 -16c-38 -28 -64 -56 -65 -82c-2 -66 -12 -81 -39 -81
c-15 0 -21 14 -21 28z" />
    <glyph glyph-name="quotedblright" unicode="&#x201d;" 
d="M605 480c0 -54 -120 -156 -137 -156c-4 0 -5 2 -5 5c0 4 3 6 17 16c38 28 64 56 65 82c2 66 12 81 39 81c15 0 21 -14 21 -28zM457 480c0 -54 -120 -156 -137 -156c-4 0 -5 2 -5 5c0 4 3 6 17 16c38 28 64 56 65 82c2 66 12 81 39 81c15 0 21 -14 21 -28z" />
    <glyph glyph-name="bullet" unicode="&#x2022;" horiz-adv-x="500" 
d="M335 346c0 96 77 173 173 173s173 -77 173 -173s-77 -173 -173 -173s-173 77 -173 173z" />
    <glyph glyph-name="endash" unicode="&#x2013;" horiz-adv-x="500" 
d="M679 158l-12 -38h-500l12 38h500z" />
    <glyph glyph-name="emdash" unicode="&#x2014;" horiz-adv-x="1000" 
d="M1179 158l-12 -38h-1000l12 38h1000z" />
    <glyph glyph-name="trademark" unicode="&#x2122;" horiz-adv-x="990" 
d="M554 676v-303c0 -53 -2 -50 49 -57v-16h-142v16c51 7 49 4 49 57v303h-62c-40 0 -57 -33 -67 -70h-12v86h326v-86h-12c-10 37 -26 70 -67 70h-62zM981 296l-150 306h-2v-224c0 -40 9 -57 51 -62v-16h-122v16c42 5 49 22 49 62v251c-8 28 -36 47 -64 47v16h94l164 -328
l163 328h83v-16c-41 -2 -57 -22 -57 -57v-246c0 -53 -2 -50 49 -57v-16h-141v16c51 7 48 4 48 57v232h-2l-154 -309h-9z" />
    <glyph glyph-name="afii10106" unicode="&#x459;" horiz-adv-x="471" 
d="M499 278c-113 -180 -141 -204 -141 -236c0 -18 11 -30 29 -30c51 0 105 55 106 127c0 9 -7 26 -22 30c-5 1 -8 0 -9 -1c-4 -2 -8 2 -7 6c6 4 14 7 23 7c22 1 63 -14 63 -61c0 -14 -4 -27 -11 -39l11 1c32 3 50 17 68 32c26 21 31 35 34 35s6 -2 6 -5
c0 -5 -25 -33 -43 -45c-33 -23 -60 -30 -85 -31c-32 -41 -97 -68 -139 -68c-13 0 -26 6 -31 9c-14 10 -27 30 -27 50c0 54 60 120 103 183l-2 2c-51 -48 -94 -97 -146 -155c-45 -51 -82 -89 -121 -89c-31 0 -54 26 -54 68c0 46 25 78 66 78c17 0 28 -11 28 -26
c0 -16 -11 -30 -22 -30s-14 4 -25 4c-16 0 -29 -13 -29 -41c0 -18 14 -41 39 -41c22 0 49 21 73 47c43 47 58 63 129 140c20 22 46 47 80 75z" />
    <glyph glyph-name="guilsinglright" unicode="&#x203a;" horiz-adv-x="278" 
d="M400 142v-9c-24 -16 -50 -37 -92 -72c-39 -32 -44 -39 -49 -39c-2 0 -5 1 -5 4c0 12 62 75 93 113c-22 46 -45 98 -45 110c0 4 1 7 5 7c8 0 8 -12 51 -62c16 -19 27 -33 42 -52z" />
    <glyph glyph-name="afii10107" unicode="&#x45a;" horiz-adv-x="518" 
d="M552 278c-23 -39 -122 -165 -143 -220c-2 -6 -3 -13 -3 -17c0 -21 24 -29 29 -29c52 0 105 60 105 127c0 11 -9 27 -22 30c-5 1 -8 0 -9 -1c-4 -2 -8 2 -7 6c6 5 17 7 23 7c33 0 63 -22 63 -61c0 -14 -4 -27 -11 -39l11 1c32 3 50 17 68 32c26 22 31 35 34 35s6 -2 6 -5
c0 -5 -25 -33 -43 -45c-31 -21 -60 -30 -85 -31c-32 -41 -99 -68 -139 -68c-39 0 -58 35 -58 64c0 28 14 59 32 85c-10 -6 -33 -20 -48 -20c-16 0 -30 4 -35 14c-4 8 -3 19 -10 21s-13 -2 -20 -7l-90 -153l-68 -4l157 242l-2 2c-20 -16 -47 -42 -95 -96
c-10 -12 -18 -22 -21 -22s-4 3 -4 6c0 5 9 12 37 44c38 43 76 73 94 98l63 4l-64 -109c10 4 22 6 35 6c18 0 25 -9 29 -20c3 -9 7 -10 12 -10c13 0 26 8 40 21l5 5c2 3 5 6 7 9c24 32 46 65 63 94z" />
    <glyph glyph-name="afii10109" unicode="&#x45c;" 
d="M512 220c-21 0 -25 14 -26 36c-22 -4 -30 -16 -46 -42c-17 -27 -52 -48 -84 -54v-2c27 -5 53 -39 53 -61c0 -21 -22 -63 -22 -70c0 -8 7 -15 15 -15c31 0 81 51 100 71c55 58 55 65 59 65s6 -2 6 -5s-28 -35 -51 -60c-35 -38 -85 -83 -118 -83c-37 0 -53 46 -53 75
c0 30 20 46 20 63c0 8 -10 16 -18 16c-11 0 -21 -14 -39 -14c-10 0 -15 5 -15 12c0 6 6 16 35 16c5 0 9 -2 19 -2c15 0 60 28 88 66c29 38 44 46 67 46c22 0 38 -13 38 -31c0 -17 -14 -27 -28 -27zM124 0l157 242l-2 2c-20 -16 -47 -42 -95 -96c-10 -12 -18 -22 -21 -22
s-4 3 -4 6c0 5 9 12 37 44c38 43 76 73 94 98l63 4l-161 -274z" />
    <glyph glyph-name="afii10108" unicode="&#x45b;" 
d="M189 6l-62 -6c55 97 111 188 167 272l-1 2c-29 -32 -42 -52 -78 -91c-43 -47 -43 -51 -47 -51c-3 0 -4 2 -4 6c0 8 95 100 176 218h-38c-6 4 -3 12 3 12h40c8 13 19 30 26 41l108 186l61 7c-19 -34 -78 -132 -139 -234h117c7 0 7 -12 0 -12h-124
c-52 -88 -115 -194 -147 -249l2 -2c96 110 169 173 204 173c29 0 40 -26 40 -52c0 -55 -110 -156 -110 -200c0 -7 5 -14 15 -14c31 0 61 28 117 86c23 23 46 55 51 55c3 0 5 -2 5 -5s-24 -31 -50 -59c-71 -78 -104 -89 -128 -89c-20 0 -40 11 -40 55c0 88 110 158 110 198
c0 7 -6 13 -11 13c-53 0 -235 -205 -263 -260z" />
    <glyph glyph-name="afii10193" unicode="&#x45f;" horiz-adv-x="388" 
d="M537 278c-27 -47 -151 -205 -151 -249c0 -11 5 -17 17 -17c14 0 47 20 94 69c60 61 59 67 64 67c3 0 5 -2 5 -5s-37 -44 -59 -67c-51 -52 -82 -76 -109 -76c-35 0 -42 40 -42 64c0 14 3 27 7 38l-2 2c-29 -31 -91 -104 -137 -104c-32 0 -46 24 -46 54
c0 76 65 132 103 188l-2 2c-29 -22 -62 -59 -92 -91c-13 -15 -13 -17 -17 -17c-3 0 -4 2 -4 6c0 3 5 9 51 57c20 21 46 47 80 75l56 4c-123 -196 -145 -210 -145 -249c0 -12 9 -17 17 -17c52 0 186 155 248 262zM344 29c-7 -20 -13 -37 -24 -62c-28 -61 -107 -176 -176 -176
c-41 0 -46 26 -46 44c0 39 132 102 173 130l26 51zM266 -51c-114 -66 -152 -89 -152 -121c0 -21 15 -25 33 -25c39 0 97 102 119 146z" />
    <glyph glyph-name="nbspace" horiz-adv-x="194" 
 />
    <glyph glyph-name="afii10062" unicode="&#x40e;" horiz-adv-x="889" 
d="M981 356l-2 2c-42 -60 -184 -192 -258 -192c-43 0 -56 27 -56 67c0 146 174 268 174 371c0 60 -58 82 -110 82c-115 0 -324 -108 -324 -245c0 -43 38 -71 79 -71c55 0 124 38 182 107c66 78 62 160 74 160c4 0 7 -2 7 -8c0 -25 -34 -275 -249 -275c-65 0 -105 38 -105 85
c0 133 200 259 332 259c85 0 140 -36 140 -144c0 -126 -174 -266 -174 -349c0 -20 14 -27 32 -27c42 0 176 84 254 195c201 286 330 325 351 325c4 0 7 -2 7 -6c0 -18 -126 -11 -237 -231c-53 -105 -180 -360 -259 -439c-108 -108 -256 -168 -409 -168
c-124 0 -265 67 -265 208c0 131 152 226 268 226c118 0 196 -70 196 -150c0 -110 -111 -170 -210 -170c-34 0 -80 12 -80 19c0 4 2 5 5 5c7 0 22 -12 86 -12c84 0 183 60 183 152c0 91 -80 122 -158 122c-126 0 -264 -88 -264 -225c0 -120 149 -163 237 -163
c319 0 423 248 553 490zM1219 920c15 0 23 -13 23 -22c0 -39 -49 -94 -86 -118c-26 -17 -68 -36 -120 -36c-62 0 -117 31 -118 82c0 23 13 42 37 42c22 0 41 -15 41 -38c0 -18 -10 -25 -10 -35c0 -21 9 -38 64 -39c30 -1 82 9 109 59c10 19 14 49 16 73c2 28 24 32 44 32z
" />
    <glyph glyph-name="afii10110" unicode="&#x45e;" horiz-adv-x="444" 
d="M542 272l64 6l-178 -289l2 -2c69 32 128 94 164 137c19 22 19 24 24 24c2 0 4 -2 4 -5s-26 -33 -43 -52c-56 -62 -104 -93 -162 -123c-103 -182 -199 -280 -259 -280c-28 0 -49 18 -49 54c0 73 115 148 277 245l87 166l-2 2c-26 -36 -134 -153 -183 -153
c-25 0 -43 30 -43 57c0 73 96 150 96 194c0 8 -4 13 -16 13c-25 0 -55 -24 -93 -64c-57 -60 -57 -68 -63 -68c-3 0 -4 2 -4 5s3 7 49 59c57 64 90 80 113 80c31 0 44 -28 44 -55c0 -71 -96 -157 -96 -194c0 -11 3 -15 14 -15c62 0 221 194 253 258zM378 -34l-2 2
c-182 -117 -245 -178 -245 -230c0 -26 13 -38 30 -38c50 0 120 71 217 269v-3zM458 328c-59 0 -88 37 -88 60c0 19 7 31 28 31c22 0 26 -19 22 -39c-3 -15 3 -28 14 -35c7 -4 23 -6 32 -6c39 0 68 21 66 56c-2 30 5 45 29 45c13 0 20 -6 20 -16c0 -51 -62 -96 -123 -96z" />
    <glyph glyph-name="afii10057" unicode="&#x408;" horiz-adv-x="833" 
d="M99 -132c0 -108 103 -174 204 -174c170 0 329 133 415 274c-73 -10 -257 -73 -273 -94c-30 -40 -68 -74 -97 -74c-17 0 -21 8 -21 21c0 28 113 68 116 71c12 13 22 34 22 67c0 90 -69 119 -137 119c-116 0 -229 -90 -229 -210zM1219 676l-2 2
c-191 -23 -412 -142 -412 -299c0 -50 35 -90 90 -89c108 194 182 282 324 386zM767 389c0 211 372 309 520 309c8 0 10 -2 10 -5c0 -11 -100 -4 -206 -169c-65 -101 -95 -167 -129 -233c21 3 53 17 74 31c46 29 54 54 61 54c4 0 5 -2 5 -4c0 -4 -55 -81 -150 -97
c-53 -93 -99 -188 -157 -277c60 19 107 51 141 80c49 42 65 71 69 71s6 -3 6 -6c0 -4 -41 -51 -73 -77c-40 -34 -95 -70 -159 -87c-100 -143 -270 -297 -452 -297c-154 0 -248 84 -248 205c0 125 111 229 234 229c87 0 168 -50 168 -145c0 -24 -8 -46 -14 -69
c84 35 170 66 260 82c55 95 119 223 160 290c-61 0 -120 42 -120 115z" />
    <glyph glyph-name="currency" unicode="&#xa4;" 
d="M530 233c0 73 -58 138 -133 138c-76 0 -134 -65 -134 -138s58 -138 134 -138c75 0 133 65 133 138zM499 360l36 37l25 -25l-36 -37c23 -27 36 -63 36 -102s-13 -75 -36 -102l36 -37l-25 -25l-36 37c-28 -23 -63 -37 -102 -37s-75 14 -103 37l-36 -37l-25 25l36 37
c-22 27 -36 63 -36 102s14 75 36 102l-36 37l25 25l36 -37c28 23 64 37 103 37s74 -14 102 -37z" />
    <glyph glyph-name="afii10050" unicode="&#x490;" horiz-adv-x="889" 
d="M977 692h236c57 0 97 5 121 8c44 6 91 32 91 72c0 25 -25 41 -55 41c-9 0 -9 13 1 11c46 -8 66 -21 67 -52c3 -62 -32 -88 -82 -112c-30 -14 -76 -20 -123 -20c-120 0 -134 26 -352 26c-180 0 -302 -90 -302 -180c0 -52 40 -84 98 -84c186 0 287 188 290 188s6 -3 6 -5
c0 -13 -103 -213 -264 -213c-92 0 -146 48 -146 110c0 86 102 210 414 210zM438 394c-124 0 -263 -90 -263 -212c0 -104 106 -176 256 -176c378 0 409 343 608 534c55 53 118 86 128 86c3 0 4 -1 4 -4c0 -12 -50 -20 -84 -62s-85 -124 -150 -248
c-104 -198 -280 -318 -508 -318c-152 0 -274 76 -274 206c0 126 130 228 268 228c87 0 196 -45 196 -150c0 -109 -113 -170 -214 -170c-65 0 -124 31 -124 38c0 4 1 6 3 6c12 0 46 -32 125 -32c91 0 194 54 194 156c0 70 -56 118 -165 118z" />
    <glyph glyph-name="brokenbar" unicode="&#xa6;" horiz-adv-x="222" 
d="M303 0v228h30v-228h-30zM303 374v228h30v-228h-30z" />
    <glyph glyph-name="section" unicode="&#xa7;" horiz-adv-x="500" 
d="M473 -2c0 -80 -63 -154 -163 -154c-83 0 -138 59 -138 124c0 47 34 86 82 86c45 0 77 -23 77 -62c0 -20 -14 -35 -34 -35c-19 0 -30 12 -30 31c0 17 9 18 9 31c0 4 -8 15 -28 15c-34 0 -60 -23 -60 -63c0 -70 48 -111 118 -111c76 0 133 54 133 136
c0 93 -130 173 -130 284c0 88 83 142 165 142c-6 21 -12 46 -12 70c0 90 61 164 153 164c64 0 124 -46 124 -112c0 -42 -25 -80 -70 -80c-37 0 -64 21 -64 47c0 18 11 33 32 33c23 0 32 -12 32 -30c0 -9 -5 -15 -5 -20c-1 -8 7 -10 13 -10c32 0 46 32 46 60
c0 60 -48 96 -109 96c-69 0 -118 -52 -118 -118c0 -121 126 -173 126 -300c0 -92 -82 -136 -165 -136c8 -29 16 -58 16 -88zM353 296c0 -65 55 -105 97 -194c69 0 128 31 128 101c0 76 -68 144 -98 203c-63 -5 -127 -38 -127 -110z" />
    <glyph glyph-name="afii10023" unicode="&#x401;" horiz-adv-x="556" 
d="M551 400v2c-22 8 -41 21 -59 38c-20 -5 -40 -8 -60 -8c-109 0 -193 54 -193 142c0 101 105 156 196 156c66 0 130 -27 180 -68c51 24 106 46 164 46c36 0 58 -14 58 -51c0 -93 -236 -205 -308 -209c6 -22 20 -42 45 -42c6 0 20 4 37 4c19 0 40 -7 40 -15
c0 -9 -9 -13 -23 -13c-35 0 -47 12 -59 12c-80 0 -240 -102 -240 -266c0 -74 30 -112 92 -121c-2 12 -4 26 -4 39c0 152 93 262 195 262c49 0 77 -41 77 -86c0 -116 -144 -226 -254 -228c4 -42 20 -87 20 -93c0 -2 -2 -3 -5 -3c-5 0 -5 10 -15 43c-6 19 -10 40 -12 53
c-91 0 -162 50 -162 146c0 144 165 241 290 260zM825 664c0 22 -14 32 -46 32c-46 0 -101 -32 -138 -56c23 -25 47 -52 47 -54c0 -4 -2 -6 -5 -6c-6 0 -9 14 -52 54c-58 -42 -104 -98 -104 -166c120 18 298 110 298 196zM265 596c0 -92 82 -134 177 -134c11 0 23 1 35 2
c-1 9 -2 18 -2 28c0 74 69 132 130 164c-49 39 -110 62 -172 62c-64 0 -168 -40 -168 -122zM677 222c0 41 -22 70 -64 70c-80 0 -180 -152 -180 -262c0 -9 0 -17 1 -24c105 -4 243 108 243 216zM673 861c18 0 29 -9 29 -25c0 -27 -11 -43 -39 -43c-16 0 -25 6 -25 28
s10 40 35 40zM817 861c18 0 29 -9 29 -25c0 -27 -11 -43 -39 -43c-16 0 -25 6 -25 28s10 40 35 40z" />
    <glyph glyph-name="copyright" unicode="&#xa9;" horiz-adv-x="800" 
d="M307 345c0 194 154 353 344 353c191 0 344 -158 344 -353c0 -192 -153 -351 -344 -351c-190 0 -344 159 -344 351zM651 24c166 0 308 151 308 321c0 173 -141 323 -308 323c-166 0 -308 -151 -308 -323c0 -170 143 -321 308 -321zM808 257h14l-16 -69
c0 -12 -10 -15 -26 -20c-21 -6 -59 -16 -108 -16c-112 0 -215 54 -215 202c0 85 73 198 221 198c54 0 79 -11 106 -20c16 -5 23 -13 23 -21v-71h-16c-2 51 -30 96 -118 96c-107 0 -159 -75 -160 -178c-1 -113 53 -190 169 -190c74 0 108 41 126 89z" />
    <glyph glyph-name="afii10053" unicode="&#x404;" horiz-adv-x="667" 
d="M533 7c-2 12 -4 26 -4 39c0 152 93 262 195 262c49 0 77 -41 77 -86c0 -116 -144 -226 -254 -228c4 -42 20 -87 20 -93c0 -2 -2 -3 -5 -3c-5 0 -5 10 -15 43c-6 19 -10 40 -12 53c-91 0 -172 58 -172 163c0 53 15 106 39 157c-18 -7 -40 -19 -68 -40
c-21 -16 -46 -37 -63 -60c-4 -6 -13 -2 -7 7c19 26 56 58 87 77c18 11 37 20 56 27c20 40 45 78 74 112c-90 28 -130 77 -130 137c0 101 105 156 196 156c66 0 130 -27 180 -68c74 36 124 46 164 46c36 0 58 -14 58 -51c0 -89 -208 -185 -266 -200
c-44 -11 -113 -27 -146 -24c-14 -19 -28 -43 -46 -80c67 15 108 25 161 25c44 0 101 5 131 16c21 8 34 27 38 27s7 -4 7 -6c0 -6 -29 -25 -54 -34c-26 -9 -58 -19 -109 -30c-80 -17 -141 7 -183 -15c-29 -61 -55 -136 -55 -201c0 -77 44 -119 106 -128zM559 462
c181 0 377 113 378 204c0 20 -14 32 -46 32c-46 0 -101 -34 -138 -58c23 -25 47 -52 47 -54c0 -4 -2 -6 -5 -6c-6 0 -9 14 -52 54c-57 -36 -140 -117 -184 -172zM377 596c0 -92 79 -123 131 -130c21 26 39 47 57 64c66 63 93 84 152 126c-49 39 -110 62 -172 62
c-64 0 -168 -40 -168 -122zM789 222c0 41 -22 70 -64 70c-80 0 -180 -152 -180 -262c0 -9 0 -17 1 -24c105 -4 243 108 243 216z" />
    <glyph glyph-name="guillemotleft" unicode="&#xab;" 
d="M238 136v9c24 16 50 37 92 72c39 32 44 39 49 39c2 0 5 -1 5 -4c0 -12 -62 -75 -93 -113c22 -46 45 -98 45 -110c0 -4 -1 -7 -5 -7c-8 0 -8 12 -51 62c-16 19 -27 33 -42 52zM350 136v9c24 16 50 37 92 72c39 32 44 39 49 39c2 0 5 -1 5 -4c0 -12 -62 -75 -93 -113
c22 -46 45 -98 45 -110c0 -4 -1 -7 -5 -7c-8 0 -8 12 -51 62c-16 19 -27 33 -42 52z" />
    <glyph glyph-name="logicalnot" unicode="&#xac;" horiz-adv-x="400" 
d="M477 70v108h-248v30h278v-138h-30z" />
    <glyph glyph-name="registered" unicode="&#xae;" horiz-adv-x="800" 
d="M488 525v13h173c60 0 121 -28 121 -91c0 -56 -37 -94 -84 -109l59 -81c30 -39 64 -77 84 -87v-8h-49c-29 0 -58 59 -139 168h-64v-100c0 -50 -2 -47 52 -52v-16h-153v16c53 5 51 2 51 52v241c0 51 2 48 -51 54zM589 522v-176h58c51 0 83 35 83 96c0 58 -44 80 -87 80h-54
zM307 345c0 194 154 353 344 353c191 0 344 -158 344 -353c0 -192 -153 -351 -344 -351c-190 0 -344 159 -344 351zM651 24c166 0 308 151 308 321c0 173 -141 323 -308 323c-166 0 -308 -151 -308 -323c0 -170 143 -321 308 -321z" />
    <glyph glyph-name="afii10056" unicode="&#x407;" horiz-adv-x="778" 
d="M185 196c0 133 149 228 267 228c94 0 197 -51 197 -153c0 -95 -93 -167 -210 -167c-61 0 -126 32 -126 37c0 6 2 7 5 7c7 0 52 -32 121 -32c115 0 198 67 198 153c0 87 -83 121 -158 121c-126 0 -268 -86 -268 -223c0 -119 137 -161 234 -161c206 0 309 146 402 310
c-62 5 -116 38 -116 107c0 215 382 275 494 275c2 0 4 -3 4 -6c0 -4 -44 0 -118 -62c-85 -71 -132 -196 -191 -300c76 13 131 86 137 86c3 0 4 -1 4 -6c0 -13 -76 -82 -148 -94c-76 -144 -148 -226 -285 -284c-71 -30 -134 -38 -193 -38c-119 0 -250 68 -250 202zM1167 679
v2c-3 0 -5 1 -8 1c-48 0 -390 -54 -390 -262c0 -48 19 -89 84 -92c76 148 206 312 314 351zM1079 861c18 0 29 -9 29 -25c0 -27 -11 -43 -39 -43c-16 0 -25 6 -25 28s10 40 35 40zM1223 861c18 0 29 -9 29 -25c0 -27 -11 -43 -39 -43c-16 0 -25 6 -25 28s10 40 35 40z" />
    <glyph glyph-name="degree" unicode="&#xb0;" horiz-adv-x="300" 
d="M337 394c0 -33 26 -62 59 -62s59 29 59 62s-26 62 -59 62s-59 -29 -59 -62zM317 394c0 44 35 78 79 78s79 -34 79 -78s-35 -78 -79 -78s-79 34 -79 78z" />
    <glyph glyph-name="plusminus" unicode="&#xb1;" horiz-adv-x="400" 
d="M353 178v100h30v-100h124v-30h-124v-100h-30v100h-124v30h124zM229 0v30h278v-30h-278z" />
    <glyph glyph-name="afii10055" unicode="&#x406;" horiz-adv-x="778" 
d="M185 196c0 133 149 228 267 228c94 0 197 -51 197 -153c0 -95 -93 -167 -210 -167c-61 0 -126 32 -126 37c0 6 2 7 5 7c7 0 52 -32 121 -32c115 0 198 67 198 153c0 87 -83 121 -158 121c-126 0 -268 -86 -268 -223c0 -119 137 -161 234 -161c206 0 309 146 402 310
c-62 5 -116 38 -116 107c0 215 382 275 494 275c2 0 4 -3 4 -6c0 -4 -44 0 -118 -62c-85 -71 -132 -196 -191 -300c76 13 131 86 137 86c3 0 4 -1 4 -6c0 -13 -76 -82 -148 -94c-76 -144 -148 -226 -285 -284c-71 -30 -134 -38 -193 -38c-119 0 -250 68 -250 202zM1167 679
v2c-3 0 -5 1 -8 1c-48 0 -390 -54 -390 -262c0 -48 19 -89 84 -92c76 148 206 312 314 351z" />
    <glyph glyph-name="afii10103" unicode="&#x456;" horiz-adv-x="222" 
d="M224 0c-31 0 -48 22 -48 52c0 67 61 135 95 186l-2 2c-12 -12 -37 -38 -85 -92c-10 -12 -11 -13 -14 -13s-4 3 -4 6c0 2 4 6 30 36s71 76 86 97l63 4c-120 -198 -139 -224 -139 -245c0 -17 10 -21 19 -21c32 0 78 40 111 74c26 26 59 66 61 66c3 0 6 -1 6 -5
c0 -3 -19 -26 -61 -70c-49 -51 -90 -77 -118 -77zM380 436c0 17 13 38 35 38c14 0 23 -11 23 -26c0 -17 -13 -38 -35 -38c-14 0 -23 11 -23 26z" />
    <glyph glyph-name="afii10098" unicode="&#x491;" horiz-adv-x="444" 
d="M248 6l-67 -6c19 37 160 220 160 251c0 10 -7 15 -15 15c-28 0 -55 -21 -106 -77c-47 -51 -46 -55 -50 -55c-3 0 -5 2 -5 6c0 3 25 31 38 46c48 56 88 92 127 92c26 0 37 -19 37 -49c0 -40 -41 -97 -63 -126l2 -2c43 43 106 144 151 165c19 9 38 10 59 11
c20 1 40 29 45 35s10 5 10 2c0 -7 -17 -36 -28 -48c-18 -19 -36 -34 -55 -34s-40 6 -56 -6c-38 -28 -154 -173 -184 -220z" />
    <glyph glyph-name="mu" unicode="&#xb5;" 
d="M298 274l56 4c-123 -196 -145 -210 -145 -249c0 -12 9 -17 17 -17c52 0 186 155 248 262l64 4c-27 -47 -151 -205 -151 -249c0 -11 5 -17 17 -17c14 0 47 20 94 69c60 61 59 67 64 67c3 0 5 -2 5 -5s-37 -44 -59 -67c-51 -52 -82 -76 -109 -76c-35 0 -42 40 -42 64
c0 14 3 27 7 38l-2 2c-29 -31 -91 -104 -137 -104c-15 0 -30 6 -36 16l-161 -272l-65 -6l319 504l-2 2c-29 -22 -62 -59 -92 -91c-13 -15 -13 -17 -17 -17c-3 0 -4 2 -4 6c0 3 5 9 51 57c20 21 46 47 80 75z" />
    <glyph glyph-name="mu" unicode="&#x3bc;" 
d="M298 274l56 4c-123 -196 -145 -210 -145 -249c0 -12 9 -17 17 -17c52 0 186 155 248 262l64 4c-27 -47 -151 -205 -151 -249c0 -11 5 -17 17 -17c14 0 47 20 94 69c60 61 59 67 64 67c3 0 5 -2 5 -5s-37 -44 -59 -67c-51 -52 -82 -76 -109 -76c-35 0 -42 40 -42 64
c0 14 3 27 7 38l-2 2c-29 -31 -91 -104 -137 -104c-15 0 -30 6 -36 16l-161 -272l-65 -6l319 504l-2 2c-29 -22 -62 -59 -92 -91c-13 -15 -13 -17 -17 -17c-3 0 -4 2 -4 6c0 3 5 9 51 57c20 21 46 47 80 75z" />
    <glyph glyph-name="paragraph" unicode="&#xb6;" horiz-adv-x="600" 
d="M947 642l-10 -22c-78 -6 -90 -10 -107 -46l-353 -732h-40l371 770h-79l-371 -770h-40l188 389c-90 0 -135 44 -135 114c0 165 164 297 336 297h240z" />
    <glyph glyph-name="periodcentered" unicode="&#xb7;" horiz-adv-x="222" 
d="M270 106c-17 0 -29 17 -29 33s12 33 29 33s29 -17 29 -33s-12 -33 -29 -33z" />
    <glyph glyph-name="periodcentered" unicode="&#x2219;" horiz-adv-x="222" 
d="M270 106c-17 0 -29 17 -29 33s12 33 29 33s29 -17 29 -33s-12 -33 -29 -33z" />
    <glyph glyph-name="afii10071" unicode="&#x451;" horiz-adv-x="278" 
d="M426 230c0 -75 -147 -120 -206 -132c-2 -11 -4 -22 -4 -33c0 -39 11 -52 42 -53c27 -1 79 19 140 79c39 40 49 58 53 58c3 0 5 -2 5 -6s-39 -50 -69 -77c-50 -46 -89 -65 -136 -66c-55 -1 -79 54 -79 106c0 15 3 26 3 29c0 2 -1 2 -1 2c-1 -1 -2 -3 -3 -3s-5 4 -5 6
c0 4 29 35 37 43c55 56 119 95 173 95c30 0 50 -20 50 -48zM376 266c-53 0 -138 -100 -152 -156c66 8 172 65 172 137c0 13 -7 19 -20 19zM302 414c18 0 29 -9 29 -25c0 -27 -11 -43 -39 -43c-16 0 -25 6 -25 28s10 40 35 40zM446 414c18 0 29 -9 29 -25
c0 -27 -11 -43 -39 -43c-16 0 -25 6 -25 28s10 40 35 40z" />
    <glyph glyph-name="afii61352" unicode="&#x2116;" horiz-adv-x="1451" 
d="M1142 617h-2c-117 -186 -233 -442 -420 -557c-81 -50 -162 -65 -228 -65c-156 0 -274 68 -274 196c0 118 112 232 272 232c128 0 206 -62 206 -145c0 -101 -108 -175 -218 -175c-42 0 -102 16 -102 25c0 3 2 5 5 5c8 0 32 -18 98 -18c113 0 201 74 201 153
c0 67 -62 121 -177 121c-120 0 -265 -87 -265 -219c0 -101 99 -163 246 -163c168 0 332 82 509 385c98 168 181 313 192 313c5 0 9 -6 9 -7c0 -20 -42 -57 -42 -211c0 -37 4 -73 4 -110c0 -101 -9 -203 -36 -300l2 -2c140 274 352 624 487 624c25 0 47 -24 47 -43
s-15 -37 -39 -37c-43 0 -26 46 -49 46c-54 0 -189 -143 -362 -454c-112 -201 -108 -228 -124 -228c-2 0 -6 1 -6 6c0 25 24 23 24 137c0 73 -16 152 -16 218c0 163 53 236 58 273zM1570 461c57 0 69 -40 69 -80c0 -97 -118 -282 -212 -282c-62 0 -82 58 -82 103
c0 112 125 259 225 259zM1617 392c0 45 -21 53 -40 53c-76 0 -192 -177 -192 -272c0 -28 15 -58 46 -58c60 0 186 164 186 277zM1262 34l10 30h313l-10 -30h-313z" />
    <glyph glyph-name="afii10101" unicode="&#x454;" horiz-adv-x="278" 
d="M450 149c4 0 6 -3 6 -6s-18 -24 -39 -46c-63 -69 -111 -97 -161 -97c-62 0 -79 62 -79 110c0 16 3 24 3 27c0 1 -1 2 -2 2c-3 0 -5 -4 -7 -4c-3 0 -5 2 -5 5c0 2 2 6 34 43c57 67 114 95 170 95c39 0 65 -17 65 -49c0 -19 -14 -43 -37 -43c-18 0 -25 12 -25 25
c0 26 30 16 30 38c0 8 -7 17 -23 17c-41 0 -101 -49 -134 -116c14 11 32 21 51 21c22 0 31 -5 35 -16c3 -8 5 -11 13 -13c9 -2 22 1 39 14c7 7 10 10 12 10s3 -1 3 -2s-7 -11 -23 -22c-18 -13 -31 -20 -54 -20c-19 0 -31 9 -33 21c-2 9 -8 12 -14 12c-12 0 -26 -9 -36 -18
c-11 -27 -18 -56 -18 -86c0 -26 13 -39 42 -39c35 0 84 26 128 72c54 56 56 65 59 65z" />
    <glyph glyph-name="guillemotright" unicode="&#xbb;" 
d="M505 142v-9c-24 -16 -50 -37 -92 -72c-39 -32 -44 -39 -49 -39c-2 0 -5 1 -5 4c0 12 62 75 93 113c-22 46 -45 98 -45 110c0 4 1 7 5 7c8 0 8 -12 51 -62c16 -19 27 -33 42 -52zM393 142v-9c-24 -16 -50 -37 -92 -72c-39 -32 -44 -39 -49 -39c-2 0 -5 1 -5 4
c0 12 62 75 93 113c-22 46 -45 98 -45 110c0 4 1 7 5 7c8 0 8 -12 51 -62c16 -19 27 -33 42 -52z" />
    <glyph glyph-name="afii10105" unicode="&#x458;" horiz-adv-x="222" 
d="M300 274l63 4c-41 -74 -128 -239 -165 -294l2 -2c60 31 119 79 174 144c18 21 18 23 22 23c2 0 4 -2 4 -5c0 -5 -4 -7 -19 -25c-45 -55 -101 -109 -193 -156c-42 -76 -151 -275 -246 -275c-30 0 -51 13 -51 45c0 93 167 183 260 241c70 147 123 248 140 273l-2 2
c-36 -30 -53 -46 -85 -79c-30 -31 -30 -35 -33 -35s-5 3 -5 6c0 2 3 5 36 41c26 28 67 66 98 92zM-83 -274c0 -19 14 -26 32 -26c80 0 168 198 193 256l-2 2c-70 -46 -216 -132 -223 -232zM384 434c0 17 13 38 35 38c14 0 23 -11 23 -26c0 -17 -13 -38 -35 -38
c-14 0 -23 11 -23 26z" />
    <glyph glyph-name="afii10054" unicode="&#x405;" horiz-adv-x="778" 
d="M185 191c0 141 141 229 270 229c91 0 194 -44 194 -150c0 -103 -105 -166 -202 -166c-78 0 -136 31 -136 37c0 3 2 5 5 5c4 0 42 -30 129 -30c91 0 192 52 192 155c0 90 -92 119 -167 119c-123 0 -259 -93 -259 -225c0 -109 138 -159 228 -159c248 0 321 185 409 378
c-18 -1 -36 -4 -56 -4c-111 0 -237 62 -237 173c0 107 100 175 217 175c94 0 180 -48 235 -116c36 36 104 86 156 86c34 0 50 -18 50 -48c0 -110 -173 -231 -297 -254c-66 -155 -130 -298 -298 -369c-52 -22 -118 -33 -174 -33c-119 0 -259 59 -259 197zM581 567
c0 -99 135 -161 231 -161c18 0 36 0 48 3c36 70 82 138 139 197c-55 69 -143 110 -223 110c-107 0 -195 -54 -195 -149zM1201 650c0 21 -13 36 -37 36c-49 0 -114 -58 -141 -96c9 -12 36 -58 36 -62c0 -3 -2 -4 -4 -4c-3 0 -17 31 -38 58c-41 -50 -67 -110 -93 -165
c117 17 277 128 277 233z" />
    <glyph glyph-name="afii10102" unicode="&#x455;" horiz-adv-x="222" 
d="M296 51v2l2 -2c33 23 55 50 72 70c21 23 21 28 25 28c3 0 5 -2 5 -6c0 -3 -21 -28 -41 -50c-54 -61 -101 -93 -157 -93c-23 0 -32 1 -45 11c-8 6 -16 23 -16 34c0 17 7 28 25 28c11 0 21 -7 21 -16c0 -20 -14 -12 -14 -30c0 -9 5 -15 17 -15c47 0 101 110 101 164
c0 48 0 89 6 94l-2 2c-12 -7 -92 -102 -116 -129c-4 -5 -6 -8 -9 -8s-4 2 -4 4c0 7 16 20 44 55c23 29 81 91 87 94c2 1 11 30 33 30c12 0 17 -6 17 -15c0 -19 -22 -25 -40 -31c-2 -10 -4 -13 -4 -23c0 -74 21 -96 21 -137c0 -24 -12 -44 -28 -61z" />
    <glyph glyph-name="afii10104" unicode="&#x457;" horiz-adv-x="222" 
d="M224 0c-31 0 -48 22 -48 52c0 67 61 135 95 186l-2 2c-12 -12 -37 -38 -85 -92c-10 -12 -11 -13 -14 -13s-4 3 -4 6c0 2 4 6 30 36s71 76 86 97l63 4c-120 -198 -139 -224 -139 -245c0 -17 10 -21 19 -21c32 0 78 40 111 74c26 26 59 66 61 66c3 0 6 -1 6 -5
c0 -3 -19 -26 -61 -70c-49 -51 -90 -77 -118 -77zM277 414c18 0 29 -9 29 -25c0 -27 -11 -43 -39 -43c-16 0 -25 6 -25 28s10 40 35 40zM398 414c18 0 29 -9 29 -25c0 -27 -11 -43 -39 -43c-16 0 -25 6 -25 28s10 40 35 40z" />
    <glyph glyph-name="afii10017" unicode="&#x410;" horiz-adv-x="1056" 
d="M1053 58l-22 -58h-72l28 62c-72 10 -145 30 -202 73c-90 -79 -212 -141 -360 -141c-138 0 -256 82 -256 202c0 146 150 230 254 230c122 0 188 -72 188 -151c0 -105 -108 -167 -202 -167c-41 0 -46 2 -46 9c0 4 1 6 6 6s13 -3 30 -3c103 0 196 59 196 153
c0 67 -52 115 -153 115c-114 0 -247 -86 -247 -210c0 -98 114 -172 227 -172c134 0 243 44 352 137c-70 55 -125 125 -125 217c0 106 80 159 151 159c92 0 170 -66 208 -143c209 228 367 322 412 322c4 0 5 -3 5 -7c0 -5 -66 -69 -163 -227c-82 -133 -138 -262 -205 -394
c28 0 56 7 88 19c55 22 75 54 80 54c3 0 5 -2 5 -5c0 -7 -61 -74 -177 -80zM1023 233c0 40 -8 90 -20 119c-70 -69 -133 -144 -208 -208c56 -43 132 -62 196 -70c18 51 32 104 32 159zM1027 148l2 -2c84 193 203 373 356 520l-2 2c-46 -6 -218 -144 -370 -306
c17 -40 22 -82 22 -122c0 -32 -3 -63 -8 -92zM687 342c0 -90 44 -149 96 -190c77 65 144 140 215 213c-36 67 -87 124 -169 124c-70 0 -142 -45 -142 -147z" />
    <glyph glyph-name="afii10018" unicode="&#x411;" horiz-adv-x="944" 
d="M228 476c-3 0 -5 0 -5 5s15 51 56 108c53 76 149 139 253 139c45 0 91 -15 125 -43c37 9 81 17 129 17c70 0 184 -6 247 -10c29 -2 114 2 134 5c41 7 72 12 74 11c3 -2 3 -4 3 -5c-1 -11 -53 -63 -168 -63c-103 0 -169 10 -238 22c-47 8 -108 17 -171 14
c30 -28 44 -79 44 -119c0 -145 -140 -313 -298 -313c-60 0 -108 37 -108 107c0 93 65 192 140 249c60 46 134 67 197 81c-32 24 -71 35 -111 35c-106 0 -198 -67 -242 -130c-62 -89 -54 -110 -61 -110zM227 80c0 23 18 40 41 40c24 0 37 -11 37 -36c0 -13 -10 -24 -10 -35
c0 -23 16 -43 58 -43c108 0 203 61 315 279c54 105 118 198 183 255c55 53 118 86 128 86c3 0 4 -1 4 -4c0 -12 -50 -20 -84 -62c-61 -73 -113 -186 -172 -287c-76 -131 -213 -279 -379 -279c-69 0 -121 38 -121 86zM827 358c0 10 10 16 39 16c19 0 42 -5 63 -10
c72 -16 136 -71 136 -151c0 -119 -135 -219 -247 -219c-60 0 -115 38 -115 98c0 46 29 86 53 110c20 20 51 44 54 44c2 0 5 -3 5 -6c0 -4 -17 -13 -48 -42s-52 -70 -52 -102c0 -56 42 -90 96 -90c111 0 190 129 190 229c0 91 -46 121 -85 121c-31 0 -30 -12 -70 -12
c-14 0 -19 6 -19 14zM321 348c0 -53 30 -88 91 -88c131 0 269 195 269 312c0 48 -11 83 -30 102c-59 -9 -136 -35 -199 -81c-76 -55 -131 -141 -131 -245z" />
    <glyph glyph-name="afii10019" unicode="&#x412;" horiz-adv-x="944" 
d="M228 476c-3 0 -5 0 -5 5s15 51 56 108c53 76 149 139 253 139c45 0 91 -15 125 -43c44 10 86 17 129 17c69 0 138 -13 202 -39c22 12 49 29 70 29c2 0 4 -2 4 -4c0 -6 -21 -4 -60 -31c54 -28 91 -75 91 -134c0 -86 -90 -139 -164 -157v-2c74 -17 136 -71 136 -151
c0 -119 -135 -219 -247 -219c-60 0 -115 38 -115 98c0 46 29 86 53 110c20 20 51 44 54 44c2 0 5 -3 5 -6c0 -4 -17 -13 -48 -42s-52 -70 -52 -102c0 -56 42 -90 96 -90c111 0 190 129 190 229c0 91 -46 121 -85 121c-31 0 -30 -12 -70 -12c-14 0 -19 6 -19 14
c0 10 10 16 39 16c20 0 28 -2 36 -2c81 0 133 101 133 172c0 50 -13 81 -48 102c-123 -82 -185 -254 -260 -373c-81 -129 -213 -279 -379 -279c-69 0 -121 38 -121 86c0 23 18 40 41 40c24 0 37 -11 37 -36c0 -13 -10 -24 -10 -35c0 -23 16 -43 58 -43c108 0 203 61 315 279
c87 170 171 281 305 369c-58 26 -126 36 -191 36c-38 0 -77 -5 -115 -14c30 -28 44 -79 44 -119c0 -145 -140 -313 -298 -313c-60 0 -108 37 -108 107c0 152 195 295 338 329c-32 25 -72 36 -112 36c-106 0 -198 -67 -242 -130c-62 -89 -54 -110 -61 -110zM321 348
c0 -53 30 -88 91 -88c131 0 269 195 269 312c0 48 -11 81 -28 100c-133 -32 -332 -154 -332 -324z" />
    <glyph glyph-name="afii10020" unicode="&#x413;" horiz-adv-x="889" 
d="M977 692h236c111 0 146 16 174 16c2 0 3 -3 3 -5c0 -7 -49 -63 -157 -63c-120 0 -134 26 -352 26c-180 0 -302 -90 -302 -180c0 -52 40 -84 98 -84c186 0 287 188 290 188s6 -3 6 -5c0 -13 -103 -213 -264 -213c-92 0 -146 48 -146 110c0 86 102 210 414 210zM1167 626
c3 0 4 -1 4 -4c0 -12 -50 -20 -84 -62s-85 -124 -150 -248c-104 -198 -280 -318 -508 -318c-152 0 -274 76 -274 206c0 126 130 228 268 228c87 0 196 -45 196 -150c0 -109 -113 -170 -214 -170c-65 0 -124 31 -124 38c0 4 1 6 3 6c12 0 46 -32 125 -32c91 0 194 54 194 156
c0 70 -56 118 -165 118c-124 0 -263 -90 -263 -212c0 -104 106 -176 256 -176c378 0 409 343 608 534c55 53 118 86 128 86z" />
    <glyph glyph-name="afii10021" unicode="&#x414;" horiz-adv-x="889" 
d="M489 10v-2c23 1 46 -2 86 -2c242 0 470 148 470 400c0 68 -20 142 -69 192c-82 -93 -128 -207 -192 -316c-59 -101 -171 -239 -295 -272zM259 27c0 13 14 17 42 17c70 0 118 -24 176 -24c96 0 182 156 252 284c85 155 155 245 232 309c-46 48 -136 73 -210 73
c-27 0 -58 -2 -82 -7c37 -36 54 -99 54 -147c0 -138 -121 -306 -268 -306c-81 0 -140 56 -140 139c0 166 177 292 328 322c-33 23 -78 33 -119 33c-104 0 -184 -56 -243 -138c-74 -104 -68 -216 -80 -216c-2 0 -4 2 -4 7c0 9 8 111 61 194c70 110 168 165 268 165
c39 0 92 -13 131 -42c36 5 67 8 87 8c80 0 172 -25 226 -77c50 40 123 77 126 77s5 -4 5 -9c0 -6 -60 -25 -117 -83c49 -53 73 -124 73 -195c0 -279 -248 -417 -502 -417c-27 0 -54 6 -81 6c-35 0 -69 -6 -103 -6c-76 0 -112 10 -112 33zM365 322c0 -61 39 -84 94 -84
c138 0 252 161 252 289c0 53 -16 112 -55 149c-142 -42 -291 -184 -291 -354z" />
    <glyph glyph-name="afii10022" unicode="&#x415;" horiz-adv-x="556" 
d="M551 400v2c-22 8 -41 21 -59 38c-20 -5 -40 -8 -60 -8c-109 0 -193 54 -193 142c0 101 105 156 196 156c66 0 130 -27 180 -68c51 24 106 46 164 46c36 0 58 -14 58 -51c0 -93 -236 -205 -308 -209c6 -22 20 -42 45 -42c6 0 20 4 37 4c19 0 40 -7 40 -15
c0 -9 -9 -13 -23 -13c-35 0 -47 12 -59 12c-80 0 -240 -102 -240 -266c0 -74 30 -112 92 -121c-2 12 -4 26 -4 39c0 152 93 262 195 262c49 0 77 -41 77 -86c0 -116 -144 -226 -254 -228c4 -42 20 -87 20 -93c0 -2 -2 -3 -5 -3c-5 0 -5 10 -15 43c-6 19 -10 40 -12 53
c-91 0 -162 50 -162 146c0 144 165 241 290 260zM825 664c0 22 -14 32 -46 32c-46 0 -101 -32 -138 -56c23 -25 47 -52 47 -54c0 -4 -2 -6 -5 -6c-6 0 -9 14 -52 54c-58 -42 -104 -98 -104 -166c120 18 298 110 298 196zM265 596c0 -92 82 -134 177 -134c11 0 23 1 35 2
c-1 9 -2 18 -2 28c0 74 69 132 130 164c-49 39 -110 62 -172 62c-64 0 -168 -40 -168 -122zM677 222c0 41 -22 70 -64 70c-80 0 -180 -152 -180 -262c0 -9 0 -17 1 -24c105 -4 243 108 243 216z" />
    <glyph glyph-name="afii10024" unicode="&#x416;" horiz-adv-x="1092" 
d="M688 -8c0 8 49 60 93 169c36 90 57 155 89 231c36 85 88 158 114 190c-35 -25 -79 -63 -111 -94c-39 -37 -121 -103 -162 -136c-30 -49 -73 -115 -119 -175c-51 -67 -169 -183 -295 -183c-46 0 -96 20 -96 67c0 153 344 243 429 278c12 24 92 190 92 257
c0 43 -13 90 -58 92c-14 1 -32 -3 -44 -6c29 -28 37 -58 37 -96c0 -122 -120 -252 -243 -252c-49 0 -73 36 -73 81c0 116 154 241 254 271c-17 12 -55 16 -77 16c-161 0 -287 -162 -319 -307c-6 -28 -5 -40 -11 -40c-3 0 -5 3 -5 7c0 106 132 352 338 352
c40 0 74 -14 88 -23c8 2 41 10 55 9c74 -4 108 -45 108 -116c0 -81 -38 -175 -54 -208c40 28 99 79 150 127c49 46 107 91 153 141c12 13 21 30 33 44c5 7 10 10 15 10c4 0 11 -6 11 -12s-7 -12 -18 -24c-31 -33 -52 -63 -69 -106c-18 -45 -51 -162 -67 -195
c-66 -137 -107 -226 -205 -347c29 11 94 71 145 129c53 61 137 153 188 191c56 98 97 150 146 208c70 83 156 156 251 156c37 0 72 -8 72 -59c0 -89 -252 -167 -364 -251c-45 -62 -121 -253 -121 -327c0 -31 12 -55 40 -55c84 0 180 138 190 138c3 0 5 -3 5 -5
c0 -1 -119 -145 -194 -145c-54 0 -83 48 -83 128c0 56 19 118 51 188c-39 -33 -92 -92 -166 -175c-85 -96 -171 -150 -185 -151c-5 0 -8 3 -8 8zM623 324h1c-95 -30 -385 -118 -385 -254c0 -43 18 -64 62 -64c125 0 248 168 322 318zM641 604c0 29 -11 61 -35 75
c-96 -28 -253 -148 -253 -264c0 -35 17 -61 53 -61c103 0 235 150 235 250zM1497 635c0 32 -21 49 -47 49c-111 0 -189 -118 -279 -274c114 72 326 157 326 225z" />
    <glyph glyph-name="afii10025" unicode="&#x417;" horiz-adv-x="676" 
d="M276 586c-62 -89 -54 -110 -61 -110c-3 0 -5 0 -5 5s15 51 56 108c53 76 160 139 253 139c48 0 64 -12 88 -23c16 5 52 11 69 11c53 0 149 -7 149 -138c0 -82 -85 -160 -163 -188c74 -17 136 -72 136 -152c0 -4 0 -10 -1 -12c14 -9 25 -17 33 -23c11 -8 29 -22 50 -43
c6 -6 0 -13 -4 -9c-24 24 -45 40 -52 45c-10 8 -27 20 -28 20c-17 -117 -161 -222 -309 -222c-147 0 -212 76 -212 161c0 89 99 163 230 163c84 0 162 -27 229 -58v1c0 92 -46 121 -85 121c-31 0 -30 -12 -70 -12c-14 0 -19 6 -19 14c0 10 10 16 39 16c20 0 28 -2 36 -2
c79 0 132 98 132 162c0 70 -19 132 -99 142c-15 2 -31 0 -50 -6c37 -39 59 -97 30 -170c-45 -114 -134 -130 -172 -130c-58 0 -87 47 -91 80c-6 54 32 110 88 159c36 32 89 57 120 65c-32 16 -46 16 -75 16c-107 0 -198 -67 -242 -130zM494 6c143 0 234 91 240 243
c-67 28 -159 58 -225 58c-71 0 -188 -37 -188 -148c0 -115 117 -153 173 -153zM604 692c-34 -7 -86 -29 -136 -76c-43 -40 -71 -89 -71 -136c0 -27 24 -68 79 -68c42 0 106 21 148 142c23 66 14 118 -20 138z" />
    <glyph glyph-name="afii10026" unicode="&#x418;" horiz-adv-x="833" 
d="M657 602c0 31 -12 59 -38 76c-141 -30 -276 -155 -276 -260c0 -48 25 -86 71 -86c101 0 243 154 243 270zM525 716c43 0 75 -9 99 -24c18 4 36 6 53 6c87 0 136 -42 136 -131c0 -171 -278 -425 -278 -533c0 -22 7 -28 28 -28c52 0 205 111 323 291
c245 374 241 384 269 386l50 3l-200 -312c-89 -138 -198 -284 -196 -342c0 -14 7 -26 22 -26c26 0 60 27 100 64c50 47 70 79 75 79s7 -3 7 -5s-31 -37 -56 -65c-29 -33 -93 -85 -125 -85c-31 0 -43 22 -43 59c0 58 19 101 42 149l-2 2c-45 -62 -192 -210 -271 -210
c-29 0 -53 24 -53 63c0 167 278 414 278 546c0 58 -52 83 -100 83c-15 0 -30 -1 -46 -4c29 -24 40 -60 40 -99c0 -121 -118 -267 -254 -267c-63 0 -92 42 -92 97c0 117 141 240 275 274c-20 11 -47 17 -81 17c-150 0 -301 -157 -320 -347c-1 -10 -1 -13 -6 -13
c-6 0 -6 6 -6 14c0 20 13 80 33 125c54 120 169 233 299 233z" />
    <glyph glyph-name="afii10027" unicode="&#x419;" horiz-adv-x="833" 
d="M657 602c0 31 -12 59 -38 76c-141 -30 -276 -155 -276 -260c0 -48 25 -86 71 -86c101 0 243 154 243 270zM525 716c43 0 75 -9 99 -24c18 4 36 6 53 6c87 0 136 -42 136 -131c0 -171 -278 -425 -278 -533c0 -22 7 -28 28 -28c52 0 205 111 323 291
c245 374 241 384 269 386l50 3l-200 -312c-89 -138 -198 -284 -196 -342c0 -14 7 -26 22 -26c26 0 60 27 100 64c50 47 70 79 75 79s7 -3 7 -5s-31 -37 -56 -65c-29 -33 -93 -85 -125 -85c-31 0 -43 22 -43 59c0 58 19 101 42 149l-2 2c-45 -62 -192 -210 -271 -210
c-29 0 -53 24 -53 63c0 167 278 414 278 546c0 58 -52 83 -100 83c-15 0 -30 -1 -46 -4c29 -24 40 -60 40 -99c0 -121 -118 -267 -254 -267c-63 0 -92 42 -92 97c0 117 141 240 275 274c-20 11 -47 17 -81 17c-150 0 -301 -157 -320 -347c-1 -10 -1 -13 -6 -13
c-6 0 -6 6 -6 14c0 20 13 80 33 125c54 120 169 233 299 233zM1154 921c15 0 23 -13 23 -22c0 -39 -49 -94 -86 -118c-26 -17 -68 -36 -120 -36c-62 0 -117 31 -118 82c0 23 13 42 37 42c22 0 41 -15 41 -38c0 -18 -10 -25 -10 -35c0 -21 9 -38 64 -39c30 -1 82 9 109 59
c10 19 14 49 16 73c2 28 24 32 44 32z" />
    <glyph glyph-name="afii10028" unicode="&#x41a;" horiz-adv-x="1111" 
d="M1057 594l-2 2c-41 -19 -102 -52 -148 -52c-45 0 -72 25 -72 85c0 28 4 35 4 42c0 5 -3 7 -13 7c-28 -2 -75 -27 -142 -104c-57 -66 -63 -93 -69 -93c-4 0 -6 2 -6 5c0 9 126 215 238 212c30 0 49 -13 52 -67c3 -59 10 -67 27 -67c54 0 122 44 158 66
c104 63 105 78 119 78c13 0 20 -8 20 -17c0 -29 -83 -30 -125 -71c-54 -53 -118 -191 -221 -363c-107 -179 -266 -263 -437 -263c-163 0 -255 86 -255 196c0 132 126 240 265 240c90 0 187 -51 187 -152c0 -99 -110 -170 -210 -170c-53 0 -107 23 -107 30c0 3 3 6 6 6
s40 -24 98 -24c92 0 197 64 197 161c0 55 -54 111 -161 111c-125 0 -249 -84 -249 -216c0 -116 112 -170 227 -170c147 0 275 65 395 287c66 122 118 191 224 301zM1013 340v-2c64 -24 98 -76 98 -134c0 -30 -18 -94 -18 -147c0 -27 8 -45 28 -45c15 0 50 17 98 67
c49 51 65 75 69 75c2 0 5 -2 5 -6c0 -2 -15 -21 -55 -65c-50 -56 -91 -83 -125 -83c-38 0 -84 46 -84 116c0 53 18 126 18 147c0 45 -35 65 -51 65c-6 0 -18 -6 -24 -6c-8 0 -17 8 -17 12c0 5 6 10 16 10c84 0 162 88 211 148c94 114 207 206 308 206c58 0 95 -30 95 -72
c0 -21 -16 -36 -38 -36c-18 0 -40 10 -40 31c0 18 14 26 14 41c0 14 -18 24 -45 24c-47 0 -115 -54 -175 -132c-78 -102 -162 -177 -288 -214z" />
    <glyph glyph-name="afii10029" unicode="&#x41b;" horiz-adv-x="969" 
d="M1149 464c-35 -61 -66 -121 -98 -180c-75 -136 -108 -198 -108 -246c0 -14 7 -26 22 -26c26 0 60 27 100 64c50 47 70 79 75 79s7 -3 7 -5s-31 -37 -56 -65c-29 -33 -93 -85 -125 -85c-31 0 -43 23 -43 59c0 58 6 116 35 175c17 35 34 68 50 94c59 98 152 233 264 338
l-2 2c-24 -6 -50 -22 -74 -40c-83 -63 -170 -138 -221 -190c-104 -105 -200 -208 -303 -303c-90 -79 -154 -141 -287 -141c-129 0 -216 82 -216 202c0 146 150 230 254 230c122 0 188 -72 188 -151c0 -105 -108 -167 -202 -167c-41 0 -46 2 -46 9c0 4 1 6 6 6s13 -3 30 -3
c103 0 196 59 196 153c0 67 -52 115 -153 115c-114 0 -247 -86 -247 -210c0 -98 84 -172 198 -172c99 0 159 44 268 137c94 85 174 168 234 233c212 230 362 322 412 322c4 0 5 -3 5 -7c0 -5 -66 -69 -163 -227z" />
    <glyph glyph-name="afii10030" unicode="&#x41c;" horiz-adv-x="1167" 
d="M1193 648l-2 2c-60 -40 -190 -153 -276 -242c-175 -181 -320 -414 -534 -414c-90 0 -218 70 -218 204c0 118 116 220 252 220c124 0 190 -72 190 -152c0 -100 -95 -166 -195 -166c-52 0 -121 27 -121 34c0 3 2 6 6 6c6 0 46 -28 117 -28c82 0 177 52 177 146
c0 60 -48 122 -160 122c-110 0 -246 -66 -246 -192c0 -101 99 -182 196 -182c216 0 359 252 564 452c162 158 290 240 300 240c6 0 8 -1 8 -5c0 -9 -80 -57 -297 -422c-42 -71 -97 -195 -97 -209c0 -6 3 -8 9 -8c18 0 38 23 205 226c242 295 396 418 410 418c2 0 6 -4 6 -6
c0 -6 -93 -122 -246 -389c-80 -140 -104 -229 -104 -260c0 -21 6 -29 26 -29c64 0 171 136 177 136c3 0 5 -3 5 -6c0 -6 -123 -150 -190 -150c-47 0 -72 30 -72 86c0 84 78 258 364 570l-2 2c-212 -176 -384 -413 -550 -601c-39 -44 -56 -51 -73 -51s-29 15 -29 43
c0 144 212 422 400 605z" />
    <glyph glyph-name="afii10031" unicode="&#x41d;" horiz-adv-x="1056" 
d="M1519 648c0 25 -12 34 -36 34c-84 0 -228 -140 -306 -268c84 27 342 105 342 234zM442 428c85 0 177 -53 177 -147c0 -103 -113 -171 -213 -171c-53 0 -107 18 -107 25c0 5 3 7 7 7s45 -20 95 -20c91 0 202 55 202 158c0 64 -64 114 -159 114c-127 0 -255 -88 -255 -224
c0 -90 94 -164 235 -164c166 0 304 123 377 264c-48 -18 -124 -72 -128 -72s-8 1 -8 5c0 10 86 58 150 89c44 71 135 226 224 298l-2 2c-50 -29 -116 -74 -177 -74c-47 0 -69 24 -69 71c0 39 6 58 6 71s-6 22 -15 22c-14 0 -62 -20 -142 -102c-68 -71 -92 -122 -99 -122
c-4 0 -6 2 -6 6c0 3 51 78 107 135c57 58 110 99 164 99c42 0 53 -33 53 -65c0 -23 -4 -38 -4 -66c0 -29 5 -33 24 -33c52 0 124 47 190 90c40 26 88 80 120 80c9 0 16 -3 16 -12c0 -29 -74 -27 -136 -89c-58 -58 -120 -205 -172 -287c28 15 166 63 202 76
c67 91 263 306 393 306c32 0 57 -14 57 -48c0 -126 -279 -225 -384 -257c-36 -59 -134 -229 -134 -344c0 -20 9 -33 22 -33c31 0 67 23 117 71c40 38 54 61 59 61c3 0 5 -2 5 -5c0 -4 -33 -42 -73 -79c-36 -33 -78 -64 -108 -64c-38 0 -66 25 -66 96c0 117 54 212 96 272
l-2 2c-48 -15 -154 -51 -195 -74c-95 -170 -249 -302 -463 -302c-148 0 -254 76 -254 191c0 150 131 243 273 243z" />
    <glyph glyph-name="afii10032" unicode="&#x41e;" horiz-adv-x="778" 
d="M585 277c0 -50 23 -83 75 -83c107 0 167 152 167 244c0 55 -20 100 -54 136c-93 -47 -188 -173 -188 -297zM973 457c0 -191 -212 -469 -430 -469c-111 0 -154 99 -154 192c0 166 143 345 296 446c-25 9 -54 14 -84 14c-156 0 -267 -140 -278 -278c-1 -13 -3 -16 -6 -16
c-4 0 -6 4 -6 7c0 4 2 66 38 135c46 87 141 164 253 164c35 0 67 -6 95 -17c71 45 144 73 204 73c77 0 124 -42 124 -119c0 -9 -3 -51 -13 -51c-3 0 -3 3 -3 7s4 34 4 46c0 70 -46 105 -112 105c-58 0 -122 -26 -185 -71c22 -9 42 -22 60 -38c27 14 52 21 73 21
c74 0 124 -56 124 -151zM447 136c0 -78 32 -136 104 -136c182 0 410 250 410 455c0 93 -42 141 -112 141c-21 0 -43 -6 -65 -17c48 -47 73 -113 73 -176c0 -98 -79 -225 -188 -225c-54 0 -96 36 -96 93c0 143 102 261 192 311c-16 15 -36 28 -59 35
c-137 -101 -259 -292 -259 -481z" />
    <glyph glyph-name="afii10033" unicode="&#x41f;" horiz-adv-x="1008" 
d="M967 590c3 0 6 -3 6 -5c0 -13 -103 -213 -264 -213c-92 0 -146 48 -146 110c0 86 102 212 414 210l363 -2c100 2 137 18 163 18c2 0 3 -3 3 -5c0 -7 -49 -63 -157 -63c-120 0 -250 26 -468 26c-180 0 -302 -90 -302 -180c0 -52 40 -84 98 -84c186 0 287 188 290 188z
M438 394c-124 0 -263 -90 -263 -212c0 -104 106 -176 256 -176c378 0 409 343 608 534c55 53 118 86 128 86c3 0 4 -1 4 -4c0 -12 -50 -20 -84 -62s-85 -124 -150 -248c-104 -198 -280 -318 -508 -318c-152 0 -274 76 -274 206c0 126 130 228 268 228c87 0 196 -45 196 -150
c0 -109 -113 -170 -214 -170c-65 0 -124 31 -124 38c0 4 1 6 3 6c12 0 46 -32 125 -32c91 0 194 54 194 156c0 70 -56 118 -165 118zM1321 621c0 -10 -19 -25 -50 -60c-41 -47 -114 -188 -158 -263c-97 -164 -131 -215 -131 -260c0 -14 7 -26 22 -26c26 0 60 27 100 64
c50 47 70 79 75 79s7 -3 7 -5s-31 -37 -56 -65c-29 -33 -93 -85 -125 -85c-31 0 -43 22 -43 59c0 55 16 100 49 164c104 198 195 286 218 310c37 40 82 92 88 92c2 0 4 -1 4 -4z" />
    <glyph glyph-name="afii10034" unicode="&#x420;" horiz-adv-x="778" 
d="M233 76c0 23 13 42 37 42c22 0 41 -15 41 -38c0 -18 -10 -25 -10 -35c0 -21 18 -39 64 -39c177 0 282 228 352 358c53 99 147 220 244 282c-55 26 -117 34 -167 34c-47 0 -85 -2 -123 -11c31 -35 40 -78 40 -122c0 -144 -144 -307 -294 -307c-59 0 -110 36 -110 110
c0 151 206 298 339 325c-32 23 -78 33 -117 33c-76 0 -149 -33 -206 -90c-73 -73 -86 -142 -94 -142c-3 0 -4 4 -4 5c0 25 94 239 306 239c51 0 105 -20 130 -42c37 9 88 14 133 14c70 0 138 -14 182 -35c28 16 50 35 61 35c2 0 4 -2 4 -5c0 -7 -26 -17 -52 -36
c62 -34 106 -95 106 -168c0 -101 -111 -181 -205 -181c-37 0 -81 30 -81 37c0 3 2 5 6 5s28 -26 62 -26c99 0 164 112 164 201c0 51 -22 94 -67 120c-85 -59 -144 -194 -233 -349c-89 -156 -236 -296 -390 -296c-62 0 -118 24 -118 82zM319 354c0 -62 34 -98 86 -98
c130 0 276 180 276 318c0 36 -3 69 -24 92c-163 -33 -338 -188 -338 -312z" />
    <glyph glyph-name="afii10035" unicode="&#x421;" horiz-adv-x="667" 
d="M1019 634c0 -118 -294 -292 -538 -300c-31 -65 -54 -136 -54 -209c0 -81 22 -117 106 -119c-1 11 -3 20 -3 31c0 156 85 271 193 271c50 0 78 -38 78 -86c0 -114 -144 -218 -254 -227c5 -55 18 -88 18 -93c0 -4 -2 -6 -5 -6c-6 0 -23 69 -25 98c-113 0 -172 69 -172 175
c0 50 26 123 50 167c-102 9 -190 85 -190 186c0 120 100 206 241 206c73 0 174 -36 238 -116c67 38 163 86 243 86c42 0 74 -19 74 -64zM454 716c-125 0 -215 -85 -215 -176c0 -102 110 -163 194 -168c59 100 181 188 259 234c-58 72 -148 110 -238 110zM953 686
c-84 0 -188 -52 -241 -89c34 -44 59 -98 59 -100c0 -4 -1 -6 -6 -6c-6 0 -12 34 -62 101c-87 -56 -156 -134 -208 -224c273 0 512 168 512 268c0 26 -14 50 -54 50zM789 223c0 41 -20 69 -62 69c-84 0 -181 -144 -181 -264v-22c100 4 243 107 243 217z" />
    <glyph glyph-name="afii10036" unicode="&#x422;" horiz-adv-x="1168" 
d="M973 585c0 -13 -103 -213 -264 -213c-92 0 -146 48 -146 110c0 55 39 129 152 168c173 60 317 41 468 41h311c94 1 151 17 172 17c2 0 3 -3 3 -5c0 -7 -49 -63 -157 -63c-79 0 -236 14 -388 22c-88 4 -175 4 -243 4c-180 0 -302 -90 -302 -180c0 -52 40 -84 98 -84
c186 0 287 188 290 188s6 -3 6 -5zM438 394c-124 0 -263 -90 -263 -212c0 -104 106 -176 256 -176c378 0 409 343 608 534c55 53 118 86 128 86c3 0 4 -1 4 -4c0 -12 -50 -20 -84 -62s-85 -124 -150 -248c-104 -198 -280 -318 -508 -318c-152 0 -274 76 -274 206
c0 126 130 228 268 228c87 0 196 -45 196 -150c0 -109 -113 -170 -214 -170c-65 0 -124 31 -124 38c0 4 1 6 3 6c12 0 46 -32 125 -32c91 0 194 54 194 156c0 70 -56 118 -165 118zM854 -6c-4 0 -11 13 -6 16c34 24 79 81 148 208c158 289 187 301 210 322
c40 37 113 86 129 86c3 0 3 -1 3 -4c-1 -11 -50 -21 -84 -62c-37 -45 -120 -213 -161 -280c-69 -113 -223 -286 -239 -286zM1335 155c5 0 7 -3 7 -5s-31 -37 -56 -65c-29 -33 -93 -85 -125 -85c-31 0 -43 22 -43 59c0 49 16 94 49 158c106 206 199 293 222 317
c37 40 82 92 88 92c2 0 4 -1 4 -4c0 -10 -19 -25 -50 -60c-41 -47 -114 -188 -158 -263c-97 -164 -135 -225 -135 -261c0 -14 7 -26 22 -26c26 0 60 27 100 64c50 47 70 79 75 79z" />
    <glyph glyph-name="afii10037" unicode="&#x423;" horiz-adv-x="889" 
d="M747 629c0 -25 -34 -275 -249 -275c-65 0 -105 38 -105 85c0 133 200 259 332 259c85 0 140 -36 140 -144c0 -126 -174 -266 -174 -349c0 -20 14 -27 32 -27c42 0 176 84 254 195c201 286 330 325 351 325c4 0 7 -2 7 -6c0 -18 -126 -11 -237 -231
c-53 -105 -180 -360 -259 -439c-108 -108 -256 -168 -409 -168c-124 0 -265 67 -265 208c0 131 152 226 268 226c118 0 196 -70 196 -150c0 -110 -111 -170 -210 -170c-34 0 -80 12 -80 19c0 4 2 5 5 5c7 0 22 -12 86 -12c84 0 183 60 183 152c0 91 -80 122 -158 122
c-126 0 -264 -88 -264 -225c0 -120 149 -163 237 -163c319 0 423 248 551 492c-42 -60 -184 -192 -258 -192c-43 0 -56 27 -56 67c0 146 174 268 174 371c0 60 -58 82 -110 82c-115 0 -324 -108 -324 -245c0 -43 38 -71 79 -71c55 0 124 38 182 107c66 78 62 160 74 160
c4 0 7 -2 7 -8z" />
    <glyph glyph-name="afii10038" unicode="&#x424;" horiz-adv-x="1297" 
d="M935 312c-46 -91 -85 -170 -139 -274c-117 -225 -284 -324 -470 -324c-139 0 -236 90 -236 195c0 149 133 232 259 232c101 0 193 -54 193 -150c0 -101 -105 -166 -200 -166c-70 0 -134 26 -134 35c0 2 4 5 6 5c9 0 45 -28 123 -28c89 0 193 54 193 155
c0 75 -72 119 -158 119c-122 0 -256 -76 -256 -222c0 -75 73 -163 210 -163c158 0 256 84 352 225c63 94 110 187 267 492c40 69 95 151 159 218l21 21c-46 -40 -71 -68 -115 -116c-48 -52 -71 -87 -119 -153c-146 -200 -210 -256 -310 -256c-104 0 -142 75 -123 172
c7 36 16 69 44 119c-30 15 -81 42 -81 126c0 83 81 156 196 156c47 0 113 -15 171 -61c56 25 115 39 173 39c53 0 58 -30 58 -51c0 -42 -59 -95 -85 -111c-11 -7 -56 -39 -128 -69c-69 -29 -127 -44 -192 -45c-14 0 -37 2 -50 6c-20 -31 -46 -85 -46 -148
c0 -16 6 -117 65 -117c94 0 153 56 295 243c66 87 93 127 161 195c39 39 87 78 117 101c16 12 25 18 29 18c3 0 5 -3 5 -7c0 -2 -4 -6 -10 -11c-18 -15 -46 -40 -69 -70c-52 -67 -64 -91 -98 -156c-23 -44 -39 -86 -48 -106c36 51 69 101 109 145c113 126 194 183 284 183
c55 0 104 -29 115 -100c8 -50 -10 -111 -35 -162c27 -16 72 -55 72 -118c0 -62 -37 -97 -52 -107c-7 -4 -6 4 -4 6c8 9 43 27 43 92c0 39 -10 70 -74 100c-47 -88 -73 -123 -141 -178c-61 -49 -128 -84 -224 -84c-59 0 -84 38 -84 87c0 55 69 137 168 184
c52 25 121 41 186 42c14 0 38 -4 52 -7c16 41 34 104 32 149c-3 60 -36 80 -54 80c-59 0 -146 -30 -272 -171c-59 -66 -104 -133 -151 -209zM527 480v-1c65 79 173 152 249 185c-42 32 -104 54 -155 54c-103 0 -174 -58 -174 -122c0 -76 34 -96 80 -116zM985 609
c20 30 51 87 -33 87c-54 0 -104 -13 -151 -37c18 -11 68 -70 69 -73s-3 -6 -5 -6c-5 0 -11 12 -25 27c-13 14 -38 38 -49 46c-78 -43 -164 -116 -208 -185c31 -7 90 -5 126 0c71 9 176 59 212 84c4 3 45 28 64 57zM1365 433c-39 15 -96 5 -132 1
c-118 -14 -242 -117 -242 -190c0 -24 8 -71 66 -71c77 0 141 39 192 90c44 44 77 94 116 170z" />
    <glyph glyph-name="afii10039" unicode="&#x425;" horiz-adv-x="722" 
d="M825 508l2 -2c64 75 205 192 306 192c37 0 60 -32 60 -67c0 -143 -297 -243 -418 -277c-54 -96 -110 -202 -110 -295c0 -30 10 -53 43 -53c84 0 180 138 190 138c3 0 5 -3 5 -5c0 -1 -119 -145 -194 -145c-52 0 -74 48 -74 127c0 13 3 26 4 39
c-69 -70 -209 -166 -310 -166c-41 0 -96 16 -96 67c0 168 365 260 474 287c35 71 88 149 88 230c0 75 -38 110 -99 110c-14 0 -32 -3 -44 -6c29 -28 37 -58 37 -96c0 -122 -119 -252 -243 -252c-49 0 -73 36 -73 81c0 116 154 241 254 271c-17 12 -55 16 -77 16
c-161 0 -287 -162 -319 -307c-6 -28 -5 -40 -11 -40c-3 0 -5 3 -5 7c0 106 132 352 338 352c40 0 74 -14 88 -23c17 3 39 9 55 9c70 0 129 -41 129 -161v-31zM271 70c0 -43 18 -64 62 -64c118 0 296 196 366 326c-86 -22 -428 -107 -428 -262zM673 604c0 29 -9 57 -35 75
c-96 -28 -253 -148 -253 -264c0 -35 17 -61 53 -61c103 0 235 150 235 250zM1167 638c0 32 -14 44 -40 44c-113 0 -296 -225 -344 -313c70 23 384 106 384 269z" />
    <glyph glyph-name="afii10040" unicode="&#x426;" horiz-adv-x="996" 
d="M657 602c0 31 -12 59 -38 76c-141 -30 -276 -155 -276 -260c0 -48 25 -86 71 -86c101 0 243 154 243 270zM199 344c-6 0 -6 6 -6 14c0 20 13 80 33 125c54 120 169 233 299 233c43 0 75 -9 99 -24c18 4 36 6 53 6c87 0 136 -42 136 -131c0 -171 -278 -425 -278 -533
c0 -22 7 -28 28 -28c52 0 205 111 323 291c245 374 241 384 269 386l50 3l-200 -312c-89 -138 -198 -284 -196 -342c0 -14 7 -26 22 -26c26 0 60 27 100 64c50 47 61 68 70 76c2 2 36 3 49 3c-18 -46 -37 -96 -58 -134c29 13 55 26 101 64c65 53 69 70 73 70c5 0 6 -5 6 -6
c0 -5 -36 -44 -73 -73c-44 -35 -90 -64 -118 -76c-61 -131 -172 -291 -304 -291c-36 0 -59 26 -59 48c0 128 240 225 321 252l47 109c-9 -11 -19 -22 -29 -33c-29 -33 -93 -85 -125 -85c-31 0 -43 22 -43 59c0 58 19 101 42 149l-2 2c-45 -62 -192 -210 -271 -210
c-29 0 -53 24 -53 63c0 167 278 414 278 546c0 58 -52 83 -100 83c-15 0 -30 -1 -46 -4c29 -24 40 -60 40 -99c0 -121 -118 -267 -254 -267c-63 0 -92 42 -92 97c0 117 141 240 275 274c-20 11 -47 17 -81 17c-150 0 -301 -157 -320 -347c-1 -10 -1 -13 -6 -13zM933 -12
c-79 -21 -293 -114 -292 -231c0 -21 16 -38 31 -38c101 0 199 142 261 269z" />
    <glyph glyph-name="afii10041" unicode="&#x427;" horiz-adv-x="786" 
d="M610 602c0 31 -12 59 -38 76c-141 -30 -276 -155 -276 -260c0 -48 25 -86 71 -86c101 0 243 154 243 270zM146 358c0 20 13 80 33 125c54 120 169 233 299 233c43 0 75 -9 99 -24c18 4 36 6 53 6c87 0 136 -42 136 -131c0 -39 -16 -95 -39 -132c-28 -45 -61 -89 -61 -116
c0 -18 10 -27 35 -27c51 0 199 105 328 298c37 55 56 92 79 93l50 3l-200 -312c-89 -138 -198 -284 -196 -342c0 -14 7 -26 22 -26c26 0 60 27 100 64c50 47 70 79 75 79s7 -3 7 -5s-31 -37 -56 -65c-29 -33 -93 -85 -125 -85c-31 0 -43 22 -43 59c0 58 19 101 42 149
l171 273c-58 -73 -189 -195 -259 -195c-38 0 -75 10 -75 62c0 37 19 60 54 115c40 63 61 110 61 146c0 58 -52 83 -100 83c-15 0 -30 -1 -46 -4c29 -24 40 -60 40 -99c0 -121 -118 -267 -254 -267c-63 0 -92 42 -92 97c0 117 141 240 275 274c-20 11 -47 17 -81 17
c-150 0 -301 -157 -320 -347c-1 -10 -1 -13 -6 -13c-6 0 -6 6 -6 14z" />
    <glyph glyph-name="afii10042" unicode="&#x428;" horiz-adv-x="1107" 
d="M657 602c0 31 -12 59 -38 76c-141 -30 -276 -155 -276 -260c0 -48 25 -86 71 -86c101 0 243 154 243 270zM832 -6c-31 0 -49 20 -49 57c0 58 25 103 48 151l-2 2c-45 -62 -192 -210 -271 -210c-29 0 -53 24 -53 63c0 167 278 414 278 546c0 58 -52 83 -100 83
c-15 0 -30 -1 -46 -4c29 -24 40 -60 40 -99c0 -121 -118 -267 -254 -267c-63 0 -92 42 -92 97c0 117 141 240 275 274c-20 11 -47 17 -81 17c-150 0 -301 -157 -320 -347c-1 -10 -1 -13 -6 -13c-6 0 -6 6 -6 14c0 20 13 80 33 125c54 120 169 233 299 233c43 0 75 -9 99 -24
c18 4 36 6 53 6c87 0 136 -42 136 -131c0 -171 -278 -425 -278 -533c0 -22 7 -28 28 -28c52 0 205 111 323 291c245 374 241 384 269 386l50 3l-200 -312c-89 -138 -198 -284 -196 -342c0 -14 4 -26 28 -26c52 0 205 111 323 291c245 374 241 384 269 386l50 3l-200 -312
c-89 -138 -198 -284 -196 -342c0 -14 7 -26 22 -26c26 0 60 27 100 64c50 47 70 79 75 79s7 -3 7 -5s-31 -37 -56 -65c-29 -33 -93 -85 -125 -85c-31 0 -49 20 -49 57c0 58 25 103 48 151l-2 2c-45 -62 -192 -210 -271 -210z" />
    <glyph glyph-name="afii10043" unicode="&#x429;" horiz-adv-x="1270" 
d="M657 602c0 31 -12 59 -38 76c-141 -30 -276 -155 -276 -260c0 -48 25 -86 71 -86c101 0 243 154 243 270zM832 -6c-31 0 -49 20 -49 57c0 58 25 103 48 151l-2 2c-45 -62 -192 -210 -271 -210c-29 0 -53 24 -53 63c0 167 278 414 278 546c0 58 -52 83 -100 83
c-15 0 -30 -1 -46 -4c29 -24 40 -60 40 -99c0 -121 -118 -267 -254 -267c-63 0 -92 42 -92 97c0 117 141 240 275 274c-20 11 -47 17 -81 17c-150 0 -301 -157 -320 -347c-1 -10 -1 -13 -6 -13c-6 0 -6 6 -6 14c0 20 13 80 33 125c54 120 169 233 299 233c43 0 75 -9 99 -24
c18 4 36 6 53 6c87 0 136 -42 136 -131c0 -171 -278 -425 -278 -533c0 -22 7 -28 28 -28c52 0 205 111 323 291c245 374 241 384 269 386l50 3l-200 -312c-89 -138 -198 -284 -196 -342c0 -14 4 -26 28 -26c52 0 205 111 323 291c245 374 241 384 269 386l50 3l-200 -312
c-89 -138 -198 -284 -196 -342c0 -14 7 -26 22 -26c26 0 60 27 100 64c50 47 61 68 70 76c2 2 36 3 49 3c-18 -46 -37 -96 -58 -134c29 13 55 26 101 64c65 53 69 70 73 70c5 0 6 -5 6 -6c0 -5 -36 -44 -73 -73c-44 -35 -90 -64 -118 -76c-61 -131 -159 -291 -291 -291
c-37 0 -72 16 -72 48c0 128 240 225 321 252l47 109c-9 -11 -19 -22 -29 -33c-29 -33 -93 -85 -125 -85c-31 0 -43 22 -43 59c0 58 19 101 42 149l-2 2c-45 -62 -192 -210 -271 -210zM913 -252c0 -14 20 -34 36 -34c101 0 194 142 256 269c-69 -18 -292 -107 -292 -235z" />
    <glyph glyph-name="afii10044" unicode="&#x42a;" horiz-adv-x="681" 
d="M256 334c-75 0 -110 46 -110 117c0 133 173 259 296 259c144 0 141 -142 190 -164c62 59 155 158 249 158c32 0 55 -17 55 -44c0 -70 -126 -144 -247 -144c-19 0 -36 2 -51 4c-48 -55 -85 -101 -123 -166c-31 -53 -65 -138 -65 -228c0 -73 22 -106 57 -118
c-2 12 -4 26 -4 39c-6 159 67 407 209 405c61 -1 121 -31 121 -126c0 -151 -163 -332 -312 -331c4 -42 20 -87 20 -93c0 -2 -2 -3 -5 -3c-5 0 -5 10 -15 43c-6 19 -10 40 -12 53c-85 2 -128 61 -124 137s18 111 62 184c48 80 89 127 169 212c-134 42 -86 170 -190 170
c-110 0 -268 -128 -268 -249c0 -65 26 -95 92 -95c88 0 180 129 200 216c5 20 4 27 8 27c3 0 4 -3 4 -7c0 -94 -68 -256 -206 -256zM654 536c14 -5 30 -8 45 -8c98 0 225 67 225 131c0 25 -20 33 -42 33c-86 0 -177 -99 -228 -156zM519 31c0 -9 0 -17 1 -24
c155 -1 243 158 243 281c0 95 -41 122 -82 122c-121 0 -167 -266 -162 -379z" />
    <glyph glyph-name="afii10045" unicode="&#x42b;" horiz-adv-x="905" 
d="M278 324l-5 1c-11 2 -17 3 -28 7c-29 10 -72 37 -72 98c0 190 307 269 490 275c8 0 8 -6 5 -7c-44 -11 -74 -28 -103 -52c-39 -33 -64 -51 -119 -129c-60 -84 -91 -162 -100 -182c20 0 46 10 43 10c4 0 5 -2 5 -4c0 -5 -17 -15 -54 -20c-24 -70 -36 -115 -39 -166
c-3 -48 4 -128 64 -148c-7 27 -10 91 -10 105c-3 131 78 341 214 341c72 0 121 -39 121 -137c0 -130 -116 -282 -251 -315c-18 -4 -44 -6 -61 -6c4 -42 20 -88 20 -94c0 -2 -2 -3 -5 -3c-4 0 -7 10 -15 43c-5 19 -10 42 -12 55c-69 5 -129 62 -129 156c0 56 23 131 41 172z
M608 686v5c-26 -2 -55 -7 -79 -12c-182 -34 -307 -162 -309 -251c-1 -49 14 -87 64 -93c30 57 71 132 149 215c83 88 146 118 175 136zM377 7c24 -1 37 1 62 8c116 35 181 177 181 274c0 89 -32 121 -91 121c-96 0 -166 -193 -157 -348c1 -9 1 -30 5 -55zM965 155
c5 0 7 -3 7 -5s-31 -37 -56 -65c-29 -33 -93 -85 -125 -85c-37 0 -66 26 -72 64c-15 95 35 218 87 325c-22 -9 -48 -18 -75 -26l-3 10c19 6 48 17 85 32c22 38 33 58 49 83c56 88 85 123 129 159c43 35 65 51 94 51c14 0 44 -6 44 -45c0 -85 -138 -191 -263 -249
c-85 -196 -100 -298 -100 -358c0 -22 8 -34 24 -34c26 0 60 27 100 64c50 47 70 79 75 79zM1103 653c0 19 -13 30 -30 30s-54 -26 -78 -56c-26 -32 -81 -122 -122 -207c118 63 229 156 230 233z" />
    <glyph glyph-name="afii10046" unicode="&#x42c;" horiz-adv-x="535" 
d="M282 323l-5 1c-11 2 -17 3 -28 7c-29 10 -72 37 -72 98c0 190 307 269 490 275c8 0 8 -6 5 -7c-44 -11 -74 -28 -103 -52c-39 -33 -64 -51 -119 -129c-60 -84 -91 -162 -100 -182c20 0 46 10 43 10c4 0 5 -2 5 -4c0 -5 -17 -15 -54 -20c-24 -70 -36 -115 -39 -166
c-3 -48 4 -128 64 -148c-7 27 -10 91 -10 105c-3 131 78 341 214 341c72 0 121 -39 121 -137c0 -130 -116 -282 -251 -315c-18 -4 -44 -6 -61 -6c4 -42 20 -88 20 -94c0 -2 -2 -3 -5 -3c-4 0 -7 10 -15 43c-5 19 -10 42 -12 55c-69 5 -129 62 -129 156c0 56 23 131 41 172z
M612 685v5c-26 -2 -55 -7 -79 -12c-182 -34 -307 -162 -309 -251c-1 -49 14 -87 64 -93c30 57 71 132 149 215c83 88 146 118 175 136zM381 6c24 -1 37 1 62 8c116 35 181 177 181 274c0 89 -32 121 -91 121c-96 0 -166 -193 -157 -348c1 -9 1 -30 5 -55z" />
    <glyph glyph-name="afii10047" unicode="&#x42d;" horiz-adv-x="722" 
d="M815 284l1 2c14 35 31 111 31 183c0 128 -105 209 -212 209c-94 0 -254 -84 -254 -200c0 -34 21 -57 61 -63c44 -7 103 33 135 83c25 39 50 82 62 118c4 13 8 20 12 20s6 -2 6 -5c-1 -20 -7 -65 -27 -110c-40 -89 -91 -127 -156 -127c-51 0 -107 31 -107 86
c0 98 136 218 307 218c117 0 237 -72 237 -240c0 -83 -31 -148 -51 -190c31 -10 51 -10 63 -10c33 0 68 17 93 53c5 7 13 21 17 35c1 4 9 0 6 -6c-22 -49 -42 -66 -67 -85c-19 -14 -37 -19 -65 -25c-14 -3 -48 -5 -68 -1c-24 -37 -64 -97 -126 -149
c-49 -41 -136 -86 -234 -86c-136 0 -200 80 -200 169c0 125 136 191 252 191c87 0 154 -30 284 -70zM791 242c-146 58 -233 94 -292 94c-118 1 -180 -68 -180 -164c0 -92 79 -166 171 -166c149 0 239 106 301 236z" />
    <glyph glyph-name="afii10048" unicode="&#x42e;" horiz-adv-x="1400" 
d="M996 305l14 26c-37 -11 -81 -21 -111 -27c-9 -15 -18 -31 -28 -47c-107 -179 -266 -263 -437 -263c-163 0 -255 86 -255 196c0 132 126 240 265 240c90 0 187 -51 187 -152c0 -99 -110 -170 -210 -170c-53 0 -107 23 -107 30c0 3 3 6 6 6s40 -24 98 -24
c92 0 197 64 197 161c0 55 -54 111 -161 111c-125 0 -249 -84 -249 -216c0 -116 112 -170 227 -170c147 0 275 63 395 287c-56 -16 -103 -49 -136 -79c-28 -26 -28 -35 -33 -35c-4 0 -5 3 -5 6c0 5 67 90 181 121c63 114 115 182 217 288l-2 2c-41 -19 -102 -52 -148 -52
c-45 0 -72 25 -72 85c0 28 4 35 4 42c0 5 -3 7 -13 7c-28 -2 -75 -27 -142 -104c-57 -66 -63 -93 -69 -93c-4 0 -6 2 -6 5c0 9 126 215 238 212c30 0 49 -13 52 -67c3 -59 10 -67 27 -67c54 0 122 44 158 66c104 63 105 78 119 78c13 0 20 -8 20 -17c0 -29 -83 -30 -125 -71
c-47 -46 -104 -162 -186 -305c34 8 76 17 111 29l38 69c105 156 235 289 375 289c62 0 129 -32 129 -101c0 -14 -5 -50 -13 -50c-3 0 -4 5 -4 9c-1 5 5 9 5 38c0 64 -54 92 -117 92c-149 0 -279 -150 -350 -322c1 1 3 1 4 2c16 7 20 12 27 15c8 7 15 -2 12 -6
c-4 -7 -23 -16 -49 -26c-33 -84 -51 -172 -51 -250c0 -68 31 -97 96 -97c52 0 105 22 155 56c-108 36 -153 145 -123 266c17 69 50 126 104 185c65 71 145 103 197 103c63 0 91 -52 91 -120c0 -124 -102 -323 -244 -429c21 -5 50 -5 82 -3c13 1 92 10 145 63
c4 4 13 16 15 16c4 0 6 -3 6 -6c0 -2 -4 -7 -7 -11c-8 -11 -41 -34 -41 -34c-60 -39 -139 -42 -143 -42c-26 0 -49 3 -69 8c-55 -39 -115 -64 -176 -64c-98 0 -142 80 -142 180c0 47 11 91 27 131zM1286 71c126 91 246 295 245 427c-1 73 -26 106 -75 106
c-81 0 -204 -135 -245 -259c-41 -126 -24 -241 75 -274z" />
    <glyph glyph-name="afii10049" unicode="&#x42f;" horiz-adv-x="893" 
d="M803 354c-54 -18 -148 -16 -201 16c-66 40 -88 77 -88 155c0 108 101 173 216 173c106 0 167 -70 168 -168c0 -41 -7 -90 -23 -130c25 3 68 18 110 47l7 -9c-61 -105 -88 -210 -102 -301c-6 -42 -5 -123 16 -123c31 0 55 28 85 58c28 28 68 70 72 77c2 3 10 4 10 -4
c0 -2 -20 -24 -36 -41c-51 -52 -94 -104 -139 -104c-49 0 -80 51 -66 119c23 109 80 216 127 298c-27 -18 -44 -29 -97 -53c-39 -90 -90 -187 -181 -264c-111 -94 -208 -106 -282 -106c-120 0 -250 60 -250 214c0 134 112 219 227 218c111 -1 188 -67 188 -145
c0 -121 -119 -173 -204 -173c-34 0 -69 7 -84 16c-4 2 -1 9 3 8c26 -7 39 -12 86 -12c90 0 183 64 183 153c0 78 -67 115 -152 115c-82 0 -133 -29 -174 -81c-33 -42 -45 -84 -45 -135c0 -90 93 -166 194 -166c31 0 151 -2 257 94c96 87 126 152 175 254zM819 392
c18 49 31 103 31 152c0 69 -31 141 -118 141c-74 0 -158 -56 -158 -153c0 -107 86 -149 180 -149c20 0 40 2 65 9z" />
    <glyph glyph-name="afii10065" unicode="&#x430;" 
d="M483 271l48 2c-28 -34 -144 -212 -144 -247c0 -8 4 -14 17 -14c30 0 84 52 142 120c12 14 13 16 15 16c4 0 6 -4 6 -6s-32 -38 -55 -63c-46 -48 -84 -79 -111 -79s-44 14 -44 69c0 7 1 13 1 18c-30 -30 -86 -87 -124 -87c-51 0 -63 46 -63 91c0 16 2 31 5 47
c-2 0 -4 -3 -6 -3s-4 3 -4 5c0 4 3 5 16 21c54 66 135 117 204 117c30 0 43 -22 43 -49c0 -11 -1 -21 -3 -27l2 -2c36 57 34 70 55 71zM211 44c0 -19 7 -32 23 -32c58 0 183 144 183 218c0 20 -10 36 -31 36c-81 0 -175 -150 -175 -222z" />
    <glyph glyph-name="afii10066" unicode="&#x431;" horiz-adv-x="332" 
d="M165 129c-3 0 -5 2 -5 4c0 6 83 96 96 112c25 29 44 52 67 83c32 43 138 132 170 154c41 28 70 48 123 59c25 5 38 15 42 18c16 16 24 29 38 43c1 1 7 -1 8 -6l-58 -65c-22 -26 -34 -43 -73 -53c-20 -5 -46 -6 -71 -14c-51 -17 -65 -42 -84 -67
c-9 -12 -69 -104 -121 -193c17 18 37 39 64 56c28 17 54 18 61 18c38 0 54 -19 54 -51c0 -60 -54 -119 -74 -142c3 -1 6 -1 9 -1c23 0 48 14 69 38c18 20 23 26 24 26c5 0 6 -2 6 -5c0 -4 -11 -14 -21 -26c-29 -33 -57 -45 -87 -45c-6 0 -10 2 -11 1
c-22 -24 -74 -73 -121 -73c-49 0 -83 16 -83 72c0 59 75 151 90 173c1 2 -1 4 -2 4s-29 -30 -65 -72c-30 -34 -40 -48 -45 -48zM386 249c-40 0 -95 -64 -114 -88c-18 -31 -30 -57 -34 -67c-17 -49 -1 -82 26 -82c70 0 158 105 158 189c0 43 -18 48 -36 48z" />
    <glyph glyph-name="afii10067" unicode="&#x432;" horiz-adv-x="333" 
d="M464 240c0 -60 -55 -133 -74 -155c3 -1 6 -1 9 -1c30 0 65 19 86 43c18 20 17 21 20 21s5 -2 5 -5c0 -4 -6 -9 -16 -21c-29 -33 -69 -50 -104 -50c-6 0 -10 1 -11 1c-24 -23 -82 -73 -138 -73c-42 0 -59 30 -59 70c0 71 95 165 95 177c0 1 -1 2 -2 2
c-3 0 -17 -19 -51 -56c-54 -59 -54 -64 -59 -64c-3 0 -5 2 -5 4c0 6 82 96 104 119c64 67 192 350 305 350c33 0 49 -15 49 -48c0 -86 -192 -214 -305 -325c-24 -36 -97 -163 -97 -191c0 -15 4 -26 23 -26c68 0 171 76 171 211c0 37 5 53 30 53c17 0 24 -17 24 -36zM375 347
l-47 -87l2 -2l123 106c53 45 143 128 143 198c0 13 -10 28 -23 28c-83 0 -153 -157 -198 -243z" />
    <glyph glyph-name="afii10068" unicode="&#x433;" horiz-adv-x="249" 
d="M172 134c-3 0 -4 3 -4 6c0 2 11 17 66 72c40 40 73 66 105 66c30 0 45 -12 45 -36c0 -31 -11 -43 -48 -68c-27 -18 -52 -30 -75 -56c-13 -15 -21 -35 -21 -52c0 -36 17 -50 34 -50c25 0 45 22 97 77c39 41 46 55 51 55c3 0 5 -2 5 -5s-31 -39 -66 -76
c-44 -47 -62 -67 -108 -67c-36 0 -61 18 -61 57c0 28 16 49 45 69c27 18 47 28 69 44c26 19 32 39 32 57c0 17 -13 24 -29 24c-18 0 -33 -13 -72 -50c-54 -51 -61 -67 -65 -67z" />
    <glyph glyph-name="afii10069" unicode="&#x434;" 
d="M399 266c-80 0 -184 -147 -184 -223c0 -17 9 -31 26 -31c74 0 188 162 188 217c0 22 -6 37 -30 37zM481 269l65 5l-168 -278l2 -2c56 23 119 82 162 133c16 19 17 22 21 22c2 0 4 -2 4 -5c0 -5 -7 -12 -36 -44c-53 -59 -118 -107 -159 -121c-37 -76 -170 -291 -263 -291
c-29 0 -50 17 -50 51c0 80 98 140 265 235c15 33 33 71 70 143l-2 2c-28 -40 -96 -119 -151 -119c-47 0 -62 35 -62 87c0 25 7 37 7 52c0 2 -1 3 -4 3c-6 0 -8 -7 -11 -7c-2 0 -4 3 -4 6s4 8 32 38c45 47 131 99 190 99c32 0 52 -14 52 -48c0 -13 -1 -25 -4 -35l2 -2
c13 21 29 48 42 76zM85 -262c0 -23 3 -38 29 -38c75 0 182 198 202 258c-66 -40 -231 -127 -231 -220z" />
    <glyph glyph-name="afii10070" unicode="&#x435;" horiz-adv-x="278" 
d="M426 230c0 -75 -147 -120 -206 -132c-2 -11 -4 -22 -4 -33c0 -39 11 -52 42 -53c27 -1 79 19 140 79c39 40 49 58 53 58c3 0 5 -2 5 -6s-39 -50 -69 -77c-50 -46 -89 -65 -136 -66c-55 -1 -79 54 -79 106c0 15 3 26 3 29c0 2 -1 2 -1 2c-1 -1 -2 -3 -3 -3s-5 4 -5 6
c0 4 29 35 37 43c55 56 119 95 173 95c30 0 50 -20 50 -48zM376 266c-53 0 -138 -100 -152 -156c66 8 172 65 172 137c0 13 -7 19 -20 19z" />
    <glyph glyph-name="afii10072" unicode="&#x436;" horiz-adv-x="552" 
d="M170 134c-3 0 -5 2 -5 6s36 44 65 72c36 34 71 66 101 66c41 0 49 -32 49 -61c0 -23 -9 -47 -20 -68c22 16 72 34 132 121l50 8l-109 -184l2 -2l81 54c11 17 19 29 35 47c43 48 97 85 136 85c20 0 44 -8 44 -27c0 -34 -87 -64 -165 -98c-14 -24 -29 -76 -29 -92
c0 -40 7 -49 26 -49c11 0 44 19 105 79c39 40 49 58 53 58c3 0 5 -2 5 -6s-39 -50 -69 -77c-50 -46 -72 -66 -115 -66c-34 0 -49 15 -49 64c0 24 9 48 18 66c-25 -12 -75 -39 -125 -123l-58 -7l119 197l-2 2c-29 -24 -58 -46 -89 -63c-10 -16 -21 -33 -37 -51
c-50 -57 -100 -85 -138 -85c-21 0 -42 6 -42 27c0 42 144 94 170 108c14 30 27 65 27 86c0 28 -2 45 -16 45c-11 0 -37 -18 -101 -79c-39 -40 -45 -53 -49 -53zM569 162c81 36 128 59 128 84c0 12 -9 20 -22 20c-42 0 -89 -67 -106 -104zM304 122c-62 -24 -131 -60 -131 -90
c0 -16 15 -20 23 -20c36 0 82 59 108 110z" />
    <glyph glyph-name="afii10073" unicode="&#x437;" horiz-adv-x="319" 
d="M31 -262c0 91 182 180 279 254l12 9c4 8 4 15 4 22c0 18 -8 37 -29 37c-11 0 -20 -2 -27 -6c-19 -11 -49 -54 -70 -54c-6 0 -9 4 -9 13c0 25 44 41 59 47c42 36 102 105 102 163c0 20 -23 26 -24 26c-15 0 -34 -4 -68 -29c-33 -24 -76 -66 -96 -85c-5 -3 -10 1 -7 6
c32 33 60 62 108 98c40 30 76 39 93 39c27 0 48 -12 48 -33c0 -30 -15 -55 -31 -73c-32 -37 -66 -69 -102 -104l2 -2c5 2 14 6 28 6c35 0 55 -22 58 -52c61 39 126 128 134 128c4 0 4 -3 4 -6c0 -6 -82 -99 -137 -135c5 -119 -187 -319 -284 -319c-30 0 -47 19 -47 50z
M57 -271c0 -20 9 -29 28 -29c86 0 214 215 233 283l-2 2c-65 -51 -259 -161 -259 -256z" />
    <glyph glyph-name="afii10074" unicode="&#x438;" horiz-adv-x="388" 
d="M537 278c-27 -47 -151 -205 -151 -249c0 -11 5 -17 17 -17c14 0 47 20 94 69c60 61 59 67 64 67c3 0 5 -2 5 -5s-37 -44 -59 -67c-51 -52 -82 -76 -109 -76c-35 0 -42 40 -42 64c0 14 3 27 7 38l-2 2c-29 -31 -91 -104 -137 -104c-32 0 -46 24 -46 54
c0 76 65 132 103 188l-2 2c-29 -22 -62 -59 -92 -91c-13 -15 -13 -17 -17 -17c-3 0 -4 2 -4 6c0 3 5 9 51 57c20 21 46 47 80 75l56 4c-123 -196 -145 -210 -145 -249c0 -12 9 -17 17 -17c52 0 186 155 248 262z" />
    <glyph glyph-name="afii10075" unicode="&#x439;" horiz-adv-x="388" 
d="M537 278c-27 -47 -151 -205 -151 -249c0 -11 5 -17 17 -17c14 0 47 20 94 69c60 61 59 67 64 67c3 0 5 -2 5 -5s-37 -44 -59 -67c-51 -52 -82 -76 -109 -76c-35 0 -42 40 -42 64c0 14 3 27 7 38l-2 2c-29 -31 -91 -104 -137 -104c-32 0 -46 24 -46 54
c0 76 65 132 103 188l-2 2c-29 -22 -62 -59 -92 -91c-13 -15 -13 -17 -17 -17c-3 0 -4 2 -4 6c0 3 5 9 51 57c20 21 46 47 80 75l56 4c-123 -196 -145 -210 -145 -249c0 -12 9 -17 17 -17c52 0 186 155 248 262zM405 328c-59 0 -85 37 -83 60c2 19 10 31 31 31
c22 0 24 -19 19 -39c-5 -15 0 -28 11 -35c6 -4 22 -6 31 -6c39 0 70 21 71 56c1 30 9 45 33 45c13 0 19 -6 18 -16c-4 -51 -70 -96 -131 -96z" />
    <glyph glyph-name="afii10076" unicode="&#x43a;" 
d="M512 220c-21 0 -25 14 -26 36c-22 -4 -30 -16 -46 -42c-17 -27 -52 -48 -84 -54v-2c27 -5 53 -39 53 -61c0 -21 -22 -63 -22 -70c0 -8 7 -15 15 -15c31 0 81 51 100 71c55 58 55 65 59 65s6 -2 6 -5s-28 -35 -51 -60c-35 -38 -85 -83 -118 -83c-37 0 -53 46 -53 75
c0 30 20 46 20 63c0 8 -10 16 -18 16c-11 0 -21 -14 -39 -14c-10 0 -15 5 -15 12c0 6 6 16 35 16c5 0 9 -2 19 -2c15 0 60 28 88 66c29 38 44 46 67 46c22 0 38 -13 38 -31c0 -17 -14 -27 -28 -27zM124 0l157 242l-2 2c-20 -16 -47 -42 -95 -96c-10 -12 -18 -22 -21 -22
s-4 3 -4 6c0 5 9 12 37 44c38 43 76 73 94 98l63 4l-161 -274z" />
    <glyph glyph-name="afii10077" unicode="&#x43b;" horiz-adv-x="361" 
d="M534 143c0 -3 -37 -44 -59 -67c-51 -52 -82 -76 -109 -76c-35 0 -42 40 -42 64c0 56 61 121 103 178l-2 2c-51 -48 -94 -97 -146 -155c-45 -51 -82 -89 -121 -89c-31 0 -54 26 -54 68c0 46 25 78 66 78c17 0 28 -11 28 -26c0 -16 -11 -30 -22 -30s-14 4 -25 4
c-16 0 -29 -13 -29 -41c0 -18 14 -41 39 -41c22 0 49 21 73 47c43 47 58 63 129 140c20 22 46 47 80 75l56 4c-123 -196 -145 -210 -145 -249c0 -11 5 -17 17 -17c14 0 47 20 94 69c60 61 59 67 64 67c3 0 5 -2 5 -5z" />
    <glyph glyph-name="afii10078" unicode="&#x43c;" horiz-adv-x="494" 
d="M637 278c-123 -196 -145 -221 -145 -249c0 -11 5 -17 17 -17c14 0 47 20 94 69c60 61 59 67 64 67c3 0 5 -2 5 -5s-37 -44 -59 -67c-51 -52 -82 -76 -109 -76c-35 0 -42 39 -42 64c0 37 57 121 103 178l-2 2c-53 -52 -106 -127 -131 -159c-12 -16 -61 -85 -79 -85
c-30 0 -34 21 -34 41c0 61 55 144 97 201l-2 2c-50 -52 -85 -101 -126 -153c-21 -27 -43 -48 -51 -55c-24 -20 -45 -36 -71 -36c-29 0 -54 24 -54 68c0 43 27 81 66 78c15 -1 28 -9 28 -26c0 -22 -15 -30 -22 -30c-9 0 -14 4 -25 4c-20 0 -29 -23 -29 -44
c0 -20 16 -38 39 -38c19 0 45 18 68 39c42 38 64 79 131 157c19 22 31 36 64 66l56 4c-54 -88 -138 -218 -138 -257c0 -7 5 -9 8 -9c6 0 70 87 121 152c21 27 68 82 102 110z" />
    <glyph glyph-name="afii10079" unicode="&#x43d;" horiz-adv-x="405" 
d="M549 278c-27 -47 -151 -205 -151 -249c0 -11 5 -17 17 -17c14 0 47 20 94 69c60 61 59 67 64 67c3 0 5 -2 5 -5s-37 -44 -59 -67c-51 -52 -82 -76 -109 -76c-35 0 -42 40 -42 64c0 14 3 27 7 38c6 16 15 32 25 47c-10 -6 -33 -20 -48 -20c-16 0 -30 4 -35 14
c-4 8 -3 19 -10 21s-13 -2 -20 -7l-90 -153l-68 -4l157 242l-2 2c-20 -16 -47 -42 -95 -96c-10 -12 -18 -22 -21 -22s-4 3 -4 6c0 5 9 12 37 44c38 43 76 73 94 98l63 4l-64 -109c10 4 22 6 35 6c18 0 25 -9 29 -20c3 -9 7 -10 12 -10c13 0 26 8 40 21l5 5c2 3 5 6 7 9
c24 32 46 65 63 94z" />
    <glyph glyph-name="afii10080" unicode="&#x43e;" horiz-adv-x="333" 
d="M444 209c0 -41 -29 -95 -59 -125c2 -1 5 -2 11 -2c34 0 68 20 93 49c13 15 14 17 17 17c4 0 5 -2 5 -5c0 -2 -2 -6 -25 -30c-25 -26 -60 -43 -99 -43c-7 0 -10 0 -13 1c-31 -35 -72 -71 -128 -71c-40 0 -62 35 -62 89c0 36 5 46 5 52c0 4 -1 6 -3 6c-8 0 -15 -16 -18 -16
s-6 2 -6 5c0 5 34 40 58 63c58 55 119 79 164 79c38 0 60 -29 60 -69zM422 221c0 24 -10 45 -35 45c-70 0 -163 -133 -163 -217c0 -28 12 -37 26 -37c79 0 172 118 172 209z" />
    <glyph glyph-name="afii10081" unicode="&#x43f;" horiz-adv-x="444" 
d="M248 6l-67 -6c19 37 160 220 160 251c0 10 -7 15 -15 15c-28 0 -55 -21 -106 -77c-47 -51 -46 -55 -50 -55c-3 0 -5 2 -5 6c0 3 25 31 38 46c48 56 88 92 127 92c26 0 37 -19 37 -49c0 -40 -41 -97 -63 -126l2 -2c39 37 154 177 205 177c25 0 36 -26 36 -47
c0 -34 -20 -63 -37 -86c-45 -61 -67 -97 -67 -113c0 -10 6 -20 16 -20c23 0 65 36 106 80c51 54 47 57 53 57c3 0 4 -3 4 -5c0 -5 -50 -60 -63 -73c-44 -44 -79 -71 -102 -71c-30 0 -44 28 -44 64c0 80 108 163 108 190c0 7 -5 12 -14 12c-48 0 -229 -213 -259 -260z" />
    <glyph glyph-name="afii10082" unicode="&#x440;" 
d="M398 445l52 9l-213 -361l2 -2c37 44 151 187 215 187c26 0 37 -24 37 -52c0 -63 -107 -148 -107 -200c0 -9 6 -14 16 -14c21 0 54 16 116 86c40 45 42 51 46 51c3 0 5 -3 5 -5c0 -5 -2 -4 -31 -38c-68 -81 -110 -106 -139 -106c-31 0 -43 26 -43 64c0 79 107 148 107 189
c0 7 -6 13 -13 13c-38 0 -185 -122 -331 -378l-83 -146l-67 -4l343 557l-2 2c-52 -61 -134 -164 -138 -164s-6 2 -6 5c0 5 3 4 59 72c94 115 103 125 175 235z" />
    <glyph glyph-name="afii10083" unicode="&#x441;" horiz-adv-x="278" 
d="M450 149c4 0 6 -3 6 -6s-18 -24 -39 -46c-63 -69 -111 -97 -161 -97c-62 0 -79 62 -79 110c0 16 3 24 3 27c0 1 -1 2 -2 2c-3 0 -5 -4 -7 -4c-3 0 -5 2 -5 5c0 2 2 6 34 43c57 67 114 95 170 95c39 0 65 -17 65 -49c0 -19 -14 -43 -37 -43c-18 0 -25 12 -25 25
c0 26 30 16 30 38c0 8 -7 17 -23 17c-60 0 -159 -101 -159 -215c0 -26 13 -39 42 -39c35 0 84 26 128 72c54 56 56 65 59 65z" />
    <glyph glyph-name="afii10084" unicode="&#x442;" horiz-adv-x="611" 
d="M426 6l-63 -6c20 37 143 216 143 251c0 9 -4 14 -13 15c-42 5 -211 -217 -240 -260l-65 -6c97 154 153 236 153 252c0 11 -5 14 -15 14c-28 0 -62 -30 -95 -65c-47 -50 -57 -67 -61 -67s-5 4 -5 6c0 3 22 27 59 69c46 52 79 69 103 69c25 0 40 -13 40 -38
c0 -44 -37 -99 -57 -135l2 -2c35 38 133 175 186 175c22 0 34 -13 34 -45c0 -44 -31 -93 -49 -126l2 -2c35 40 135 173 191 173c19 0 35 -15 35 -51c0 -65 -97 -142 -102 -193c-1 -11 5 -22 16 -22c18 0 54 26 91 64c67 71 63 72 68 72c3 0 5 -1 5 -5c0 -5 -31 -38 -57 -65
c-50 -52 -82 -78 -110 -78c-30 0 -43 26 -43 64c0 84 106 156 106 193c0 4 -3 9 -13 9c-57 0 -219 -219 -246 -260z" />
    <glyph glyph-name="afii10085" unicode="&#x443;" horiz-adv-x="444" 
d="M542 272l64 6l-178 -289l2 -2c69 32 128 94 164 137c19 22 19 24 24 24c2 0 4 -2 4 -5s-26 -33 -43 -52c-56 -62 -104 -93 -162 -123c-103 -182 -199 -280 -259 -280c-28 0 -49 18 -49 54c0 73 115 148 277 245l87 166l-2 2c-26 -36 -134 -153 -183 -153
c-25 0 -43 30 -43 57c0 73 96 150 96 194c0 8 -4 13 -16 13c-25 0 -55 -24 -93 -64c-57 -60 -57 -68 -63 -68c-3 0 -4 2 -4 5s3 7 49 59c57 64 90 80 113 80c31 0 44 -28 44 -55c0 -71 -96 -157 -96 -194c0 -11 3 -15 14 -15c62 0 221 194 253 258zM378 -34l-2 2
c-182 -117 -245 -178 -245 -230c0 -26 13 -38 30 -38c50 0 120 71 217 269v-3z" />
    <glyph glyph-name="afii10086" unicode="&#x444;" horiz-adv-x="581" 
d="M217 40c0 -13 6 -28 17 -28c78 0 195 150 195 217c0 27 -10 37 -37 37c-61 0 -175 -122 -175 -226zM383 102c-18 -22 -92 -102 -148 -102c-39 0 -58 36 -58 90c0 25 7 50 7 52c0 1 -1 2 -3 2c-8 0 -10 -10 -12 -10c-1 0 -5 2 -5 7c0 3 15 19 38 43c61 63 143 94 190 94
c28 0 49 -13 49 -49c0 -8 -5 -27 -6 -34l2 -2l153 242l48 9l-161 -269c5 7 11 13 28 32c32 36 72 71 128 71c41 0 62 -33 62 -89c0 -41 -15 -81 -34 -105c10 2 27 6 49 22c17 12 32 31 41 41c5 3 8 0 8 -4c0 -3 -22 -30 -43 -46c-17 -13 -43 -24 -70 -27
c-52 -51 -109 -70 -151 -70c-38 0 -60 29 -60 69c0 19 6 42 16 63l-238 -401l-54 -3l226 372zM457 57c0 -24 10 -45 35 -45c70 0 163 133 163 217c0 28 -12 37 -26 37c-79 0 -172 -118 -172 -209z" />
    <glyph glyph-name="afii10087" unicode="&#x445;" horiz-adv-x="333" 
d="M492 278c24 0 39 -14 39 -32c0 -13 -8 -24 -22 -24c-12 0 -22 6 -24 22c-1 9 -1 12 -15 12c-36 0 -137 -123 -137 -228c0 -10 4 -16 12 -16c23 0 58 26 110 81c39 41 46 55 51 55c3 0 5 -2 5 -5s-31 -39 -66 -76c-44 -47 -74 -67 -103 -67c-41 0 -49 38 -49 81
c0 7 2 20 2 27c-26 -40 -79 -108 -131 -108c-33 0 -43 12 -43 31c0 17 7 29 27 29c14 0 23 -10 23 -27c0 -12 3 -17 7 -17c29 0 94 65 122 113c13 23 37 103 37 120c0 12 -5 17 -11 17c-24 0 -55 -27 -93 -65c-53 -52 -59 -67 -63 -67c-3 0 -4 3 -4 6c0 2 5 11 63 72
c39 40 70 66 100 66c28 0 42 -24 42 -64c0 -20 -2 -37 -4 -42l2 -2c19 37 77 108 123 108z" />
    <glyph glyph-name="afii10088" unicode="&#x446;" horiz-adv-x="461" 
d="M298 274l56 4c-123 -196 -145 -210 -145 -249c0 -12 9 -17 17 -17c52 0 186 155 248 262l64 4c-27 -47 -151 -205 -151 -249c0 -11 0 -32 49 -3c11 6 36 23 71 53l47 13l-20 -47c37 30 77 75 98 101c6 7 12 -1 7 -7c-43 -53 -85 -91 -109 -109
c-28 -61 -107 -176 -176 -176c-41 0 -46 26 -46 44c0 39 132 102 173 130l16 31c-14 -12 -69 -59 -98 -59c-18 0 -42 12 -42 64c0 14 3 27 7 38l-2 2c-29 -31 -91 -104 -137 -104c-32 0 -46 24 -46 54c0 76 65 132 103 188l-2 2c-29 -22 -62 -59 -92 -91
c-13 -15 -13 -17 -17 -17c-3 0 -4 2 -4 6c0 3 5 9 51 57c20 21 46 47 80 75zM476 12c-114 -66 -152 -89 -152 -121c0 -21 15 -25 33 -25c39 0 97 102 119 146z" />
    <glyph glyph-name="afii10089" unicode="&#x447;" horiz-adv-x="296" 
d="M463 148c3 0 5 -2 5 -5s-37 -44 -59 -67c-52 -54 -81 -76 -112 -76c-50 0 -63 27 -63 56c0 22 13 42 33 65c21 24 85 73 96 81l36 29l-2 2c-14 -8 -57 -29 -92 -29c-25 0 -42 10 -51 16c-27 -22 -55 -56 -71 -75c-6 -7 -7 -9 -11 -9c-3 0 -3 3 -3 7c0 2 54 64 77 82
c-10 8 -11 23 -11 27c0 18 13 26 30 26c14 0 24 -9 24 -20c0 -14 -13 -17 -13 -29c0 -8 17 -13 36 -13c22 0 81 20 94 32c9 8 32 30 42 30c5 0 8 -5 8 -12c0 -20 -35 -30 -51 -42c-9 -7 -27 -21 -37 -33c-80 -90 -79 -135 -79 -148c0 -17 4 -31 18 -31c13 0 45 20 92 69
c60 61 59 67 64 67z" />
    <glyph glyph-name="afii10090" unicode="&#x448;" horiz-adv-x="561" 
d="M352 278c-123 -196 -145 -210 -145 -249c0 -12 9 -17 17 -17c52 0 186 155 248 262l64 4c-27 -47 -151 -205 -151 -249c0 -9 3 -17 13 -17c52 0 186 155 248 262l64 4c-27 -47 -151 -205 -151 -249c0 -11 5 -17 17 -17c14 0 47 20 94 69c60 61 59 67 64 67c3 0 5 -2 5 -5
s-37 -44 -59 -67c-51 -52 -82 -76 -109 -76c-35 0 -42 40 -42 64c0 14 3 27 7 38l-2 2c-29 -31 -91 -104 -137 -104c-35 0 -42 40 -42 64c0 14 3 27 7 38l-2 2c-29 -31 -91 -104 -137 -104c-32 0 -46 24 -46 54c0 76 65 132 103 188l-2 2c-29 -22 -62 -59 -92 -91
c-13 -15 -13 -17 -17 -17c-3 0 -4 2 -4 6c0 3 5 9 51 57c20 21 46 47 80 75z" />
    <glyph glyph-name="afii10091" unicode="&#x449;" horiz-adv-x="641" 
d="M354 278c-123 -196 -145 -210 -145 -249c0 -12 9 -17 17 -17c52 0 186 155 248 262l64 4c-27 -47 -151 -205 -151 -249c0 -9 3 -17 13 -17c52 0 186 155 248 262l64 4c-27 -47 -151 -205 -151 -249c0 -11 0 -32 49 -3c11 6 36 23 71 53l47 13l-20 -47c37 30 77 75 98 101
c6 7 12 -1 7 -7c-43 -53 -85 -91 -109 -109c-28 -61 -107 -176 -176 -176c-41 0 -46 26 -46 44c0 39 132 102 173 130l16 31c-14 -12 -69 -59 -98 -59c-18 0 -42 12 -42 64c0 14 3 27 7 38l-2 2c-29 -31 -91 -104 -137 -104c-35 0 -42 40 -42 64c0 14 3 27 7 38l-2 2
c-29 -31 -91 -104 -137 -104c-32 0 -46 24 -46 54c0 76 65 132 103 188l-2 2c-29 -22 -62 -59 -92 -91c-13 -15 -13 -17 -17 -17c-3 0 -4 2 -4 6c0 3 5 9 51 57c20 21 46 47 80 75zM650 12c-114 -66 -152 -89 -152 -121c0 -21 15 -25 33 -25c39 0 97 102 119 146z" />
    <glyph glyph-name="afii10092" unicode="&#x44a;" horiz-adv-x="409" 
d="M569 148c3 4 9 -1 7 -6c-1 -3 -15 -23 -42 -43c-25 -18 -64 -31 -87 -31c-40 -42 -107 -68 -137 -68c-37 0 -68 28 -68 68c0 70 51 100 153 163l-2 2c-14 -8 -57 -29 -92 -29c-25 0 -41 10 -51 16c-27 -22 -55 -56 -71 -75c-6 -7 -7 -9 -11 -9c-3 0 -3 3 -3 7
c0 2 55 65 77 82l-6 7c-3 6 -5 14 -5 20c0 18 13 26 30 26c14 0 24 -9 24 -20c0 -14 -13 -17 -13 -29c0 -8 17 -13 36 -13c22 0 81 20 94 32c9 8 32 30 42 30c5 0 8 -5 8 -12c0 -20 -33 -30 -51 -39c-14 -7 -28 -22 -43 -37c-61 -61 -68 -124 -68 -145c0 -25 13 -33 22 -33
c35 0 67 38 85 67c27 43 28 73 28 75c0 9 -6 24 -22 24c-9 0 -18 -1 -38 -12c-7 -4 -10 2 -6 5c17 11 30 17 51 17c20 0 69 0 69 -53c0 -20 -8 -38 -21 -54c14 0 52 11 73 28c25 20 34 34 38 39z" />
    <glyph glyph-name="afii10093" unicode="&#x44b;" horiz-adv-x="473" 
d="M579 86c26 26 59 66 61 66c3 0 6 -1 6 -5c0 -3 -19 -26 -61 -70c-49 -51 -90 -77 -118 -77c-31 0 -48 22 -48 52c0 67 57 135 95 185l-2 2c-32 -16 -110 -46 -159 -60c5 -1 7 -2 10 -3c18 -7 39 -22 39 -56c0 -69 -99 -120 -162 -120c-35 0 -60 29 -60 71
c0 33 34 82 59 118c12 17 27 37 38 53l-2 2c-13 -11 -46 -40 -97 -96c-11 -12 -11 -13 -14 -13s-4 3 -4 6c0 2 3 7 31 36c33 35 75 70 95 97l63 4c-120 -196 -134 -215 -134 -237c0 -24 16 -29 25 -29c32 0 51 8 72 28c26 25 42 65 42 99c0 8 -5 19 -10 24c-6 6 -13 7 -20 7
c-6 0 -11 -3 -14 -6s-7 3 -6 7c8 7 21 9 27 10c52 18 170 54 191 78c4 4 8 8 9 15l57 4c-120 -198 -139 -224 -139 -245c0 -17 10 -21 19 -21c32 0 78 40 111 74z" />
    <glyph glyph-name="afii10094" unicode="&#x44c;" horiz-adv-x="337" 
d="M349 278c-116 -188 -134 -215 -134 -237c0 -23 16 -29 25 -29c18 0 30 0 54 14c34 20 60 69 60 109c0 22 -12 32 -27 34c-5 1 -12 0 -17 -5c-3 -3 -7 3 -6 7c7 8 24 10 30 10c27 0 68 -13 68 -61c0 -14 -4 -27 -11 -39l11 1c32 3 50 17 68 32c26 22 31 35 34 35
s6 -2 6 -5c0 -5 -26 -31 -43 -45c-30 -24 -60 -30 -85 -31c-32 -41 -100 -68 -138 -68c-40 0 -64 29 -64 71c0 34 34 82 59 118c13 19 24 34 38 53l-2 2c-13 -11 -46 -40 -97 -96c-11 -12 -11 -13 -14 -13s-4 3 -4 6c0 2 3 7 31 36c33 35 75 70 95 97z" />
    <glyph glyph-name="afii10095" unicode="&#x44d;" horiz-adv-x="311" 
d="M381 73c-13 -12 -72 -73 -147 -73c-24 0 -68 9 -68 45c0 20 10 28 25 28c11 0 21 -8 21 -16c0 -20 -15 -18 -14 -30s13 -15 33 -15c78 0 122 62 139 125c-11 -7 -25 -15 -41 -15c-22 0 -31 5 -35 16c-3 8 -5 11 -13 13c-9 2 -22 -1 -39 -14c-7 -7 -10 -10 -12 -10
s-3 1 -3 2s7 11 23 22c18 13 31 20 54 20c19 0 31 -9 33 -21c2 -9 3 -14 9 -14c10 0 17 3 26 9c4 18 6 37 6 54c-1 57 -23 67 -45 67c-19 0 -48 -17 -86 -51c-24 -21 -61 -64 -71 -76c-6 -7 -14 -4 -10 2c11 18 57 67 79 85c47 40 73 52 104 52c57 0 85 -30 85 -87
c0 -38 -18 -73 -41 -104v-1c17 5 48 14 71 41c12 14 17 20 19 21c3 1 6 -2 6 -5c0 -5 -9 -13 -16 -21c-26 -30 -63 -46 -92 -49z" />
    <glyph glyph-name="afii10096" unicode="&#x44e;" horiz-adv-x="524" 
d="M632 209c0 -41 -29 -95 -59 -125c2 -1 5 -2 11 -2c34 0 68 20 93 49c13 15 14 17 17 17c4 0 5 -2 5 -5c0 -2 -2 -6 -25 -30c-25 -26 -60 -43 -99 -43c-7 0 -10 0 -13 1c-31 -35 -72 -71 -128 -71c-40 0 -62 35 -62 89c0 19 4 40 11 59h-47c-6 -9 -12 -18 -87 -144l-68 -4
c6 10 23 32 42 60l30 43c43 62 88 130 88 148c0 10 -7 15 -15 15c-28 0 -55 -21 -106 -77c-47 -51 -46 -55 -50 -55c-3 0 -5 2 -5 6c0 3 25 31 38 46c48 56 88 92 127 92c26 0 37 -19 37 -49c0 -21 -10 -46 -24 -69h46c30 64 97 118 183 118c38 0 60 -29 60 -69zM610 221
c0 24 -10 45 -35 45c-70 0 -163 -133 -163 -217c0 -28 12 -37 26 -37c79 0 172 118 172 209z" />
    <glyph glyph-name="afii10097" unicode="&#x44f;" horiz-adv-x="348" 
d="M490 273c-28 -34 -144 -212 -144 -247c0 -8 4 -14 17 -14c30 0 84 52 142 120c12 14 13 16 15 16c4 0 6 -4 6 -6s-32 -38 -55 -63c-46 -48 -84 -79 -111 -79s-44 14 -44 69c0 17 11 43 28 67l-3 2c-12 -13 -32 -36 -44 -49c-46 -50 -90 -89 -129 -89c-31 0 -54 26 -54 68
c0 46 25 78 66 78c17 0 28 -11 28 -26c0 -16 -11 -30 -22 -30s-14 4 -25 4c-16 0 -29 -13 -29 -41c0 -18 14 -41 39 -41c22 0 57 23 81 47c29 29 44 44 71 77c-7 -4 -18 -7 -28 -7c-51 0 -76 30 -76 65c0 46 54 84 117 84c37 0 50 -23 52 -37c2 -12 -2 -35 -3 -39l2 -2
c36 57 34 70 55 71zM287 139c23 0 41 4 59 19c17 14 30 41 30 72c0 20 -10 36 -31 36c-77 0 -107 -127 -58 -127z" />
    <glyph glyph-name="hyphenminus" horiz-adv-x="333" 
d="M456 158l-12 -38h-221l12 38h221z" />
    <glyph glyph-name="Euro" unicode="&#x20ac;" 
d="M363 394h-15c-6 36 -40 58 -101 58c-90 0 -127 -57 -136 -175h211l-9 -18h-202c-1 -6 -1 -15 -1 -21v-24h181l-8 -18h-171c7 -120 49 -182 135 -182c52 0 93 16 100 59h16l-2 -40c-19 -22 -51 -38 -119 -38c-111 0 -162 64 -170 201h-55l8 18h45v24s0 14 1 21h-54l8 18
h47c10 136 56 195 170 195c74 0 104 -20 119 -37z" />
    </font>
</defs>
</svg>
